<?xml version="1.0" encoding="UTF-8"?><svg id="uuid-27d9d459-d82c-44d7-bc3a-86df61acfb0e" xmlns="http://www.w3.org/2000/svg" viewBox="0 0 66.31 98.91"><defs><style>.uuid-92eee0b2-82f6-43a2-8a1f-e1faf6d736b8{fill:#1b45b3;fill-rule:evenodd;}</style></defs><g id="uuid-2575a763-973b-4808-b513-987201b64b67"><path class="uuid-92eee0b2-82f6-43a2-8a1f-e1faf6d736b8" d="M5.98,0C2.68,0,0,2.68,0,5.98v86.95c0,3.3,2.68,5.98,5.98,5.98h54.35c3.3,0,5.98-2.68,5.98-5.98V5.98c0-3.3-2.68-5.98-5.98-5.98H5.98ZM1.09,5.98C1.09,3.28,3.28,1.09,5.98,1.09h54.35c2.7,0,4.89,2.19,4.89,4.89v86.95c0,2.7-2.19,4.89-4.89,4.89H5.98c-2.7,0-4.89-2.19-4.89-4.89V5.98ZM26.63,3.8c-.6,0-1.09.49-1.09,1.09s.49,1.09,1.09,1.09h13.05c.6,0,1.09-.49,1.09-1.09s-.49-1.09-1.09-1.09h-13.05ZM53,19.11l-9.15,9.15c-2.19-2.55-2.07-6.39.34-8.81,2.41-2.41,6.26-2.53,8.81-.34h0ZM53.71,19.82l-9.15,9.15c2.55,2.19,6.39,2.07,8.81-.34,2.41-2.41,2.53-6.26.34-8.81h0ZM54.08,18.75c2.92,2.92,2.92,7.66,0,10.59-2.92,2.92-7.66,2.92-10.59,0-2.92-2.92-2.92-7.66,0-10.59,2.92-2.92,7.66-2.92,10.59,0ZM53.71,37.78c2.19,2.55,2.07,6.39-.34,8.81-2.41,2.41-6.26,2.52-8.81.34l9.15-9.14ZM53,37.07l-9.15,9.15c-2.19-2.55-2.07-6.39.34-8.81,2.41-2.41,6.26-2.53,8.81-.34h0ZM54.08,47.29c2.92-2.92,2.92-7.66,0-10.58-2.92-2.92-7.66-2.92-10.59,0-2.92,2.92-2.92,7.66,0,10.58,2.92,2.92,7.66,2.92,10.59,0ZM53.71,55.74c2.19,2.55,2.07,6.39-.34,8.8-2.41,2.42-6.26,2.53-8.81.34l9.15-9.14ZM53,55.04l-9.15,9.14c-2.19-2.55-2.07-6.39.34-8.81,2.41-2.41,6.26-2.52,8.81-.34h0ZM54.08,65.25c2.92-2.92,2.92-7.66,0-10.58-2.92-2.92-7.66-2.92-10.59,0-2.92,2.92-2.92,7.66,0,10.58,2.92,2.92,7.66,2.92,10.59,0ZM53.71,73.7c2.19,2.55,2.07,6.39-.34,8.81-2.41,2.41-6.26,2.53-8.81.34l9.15-9.15ZM53,72.99l-9.15,9.15c-2.19-2.55-2.07-6.39.34-8.81,2.41-2.41,6.26-2.53,8.81-.34h0ZM54.08,83.21c2.92-2.92,2.92-7.66,0-10.59-2.92-2.92-7.66-2.92-10.59,0-2.92,2.92-2.92,7.66,0,10.59,2.92,2.92,7.66,2.92,10.59,0ZM21.75,19.11l-9.15,9.15c-2.19-2.55-2.07-6.39.34-8.81,2.41-2.41,6.26-2.53,8.81-.34h0ZM22.45,19.82l-9.15,9.15c2.55,2.19,6.39,2.07,8.81-.34,2.41-2.41,2.53-6.26.34-8.81h0ZM22.82,18.75c2.92,2.92,2.92,7.66,0,10.59-2.92,2.92-7.66,2.92-10.59,0-2.92-2.92-2.92-7.66,0-10.59,2.92-2.92,7.66-2.92,10.59,0ZM22.45,37.78c2.19,2.55,2.07,6.39-.34,8.81-2.41,2.41-6.26,2.52-8.81.34l9.15-9.14ZM21.75,37.07l-9.15,9.15c-2.19-2.55-2.07-6.39.34-8.81,2.41-2.41,6.26-2.53,8.81-.34h0ZM22.82,47.29c2.92-2.92,2.92-7.66,0-10.58-2.92-2.92-7.66-2.92-10.59,0-2.92,2.92-2.92,7.66,0,10.58,2.92,2.92,7.66,2.92,10.59,0ZM22.45,55.74c2.19,2.55,2.07,6.39-.34,8.8-2.41,2.42-6.26,2.53-8.81.34l9.15-9.14ZM21.75,55.04l-9.15,9.14c-2.19-2.55-2.07-6.39.34-8.81,2.41-2.41,6.26-2.52,8.81-.34h0ZM22.82,65.25c2.92-2.92,2.92-7.66,0-10.58-2.92-2.92-7.66-2.92-10.59,0-2.92,2.92-2.92,7.66,0,10.58,2.92,2.92,7.66,2.92,10.59,0ZM22.45,73.7c2.19,2.55,2.07,6.39-.34,8.81s-6.26,2.53-8.81.34l9.15-9.15ZM21.75,72.99l-9.15,9.15c-2.19-2.55-2.07-6.39.34-8.81,2.41-2.41,6.26-2.53,8.81-.34h0ZM22.82,83.21c2.92-2.92,2.92-7.66,0-10.59-2.92-2.92-7.66-2.92-10.59,0-2.92,2.92-2.92,7.66,0,10.59,2.92,2.92,7.66,2.92,10.59,0ZM25.54,94.02c0-.6.49-1.09,1.09-1.09h13.05c.6,0,1.09.49,1.09,1.09s-.49,1.09-1.09,1.09h-13.05c-.6,0-1.09-.49-1.09-1.09ZM32.07,9.24c0-.6.48-1.09,1.09-1.09s1.09.49,1.09,1.09v80.44c0,.6-.48,1.09-1.09,1.09s-1.09-.49-1.09-1.09V9.24Z"/></g></svg>