<?xml version="1.0" encoding="UTF-8"?><svg id="uuid-23a56df2-f613-40f3-8d60-572b2b1b58a1" xmlns="http://www.w3.org/2000/svg" viewBox="0 0 55.3 98.65"><defs><style>.uuid-f4593ef9-30e0-45a1-a984-a8cd4b22e043{fill:#1b45b3;}</style></defs><g id="uuid-2a07f698-75a7-4c49-8f27-eced9506ea3f"><path class="uuid-f4593ef9-30e0-45a1-a984-a8cd4b22e043" d="M34.24,2.14s.08.01.12.02c2.54.54,4.94,1.39,6.98,2.57,7.37,4.26,7.27,10.82.08,15-7.54,4.38-19.87,4.39-27.47,0-7.15-4.13-7.48-10.7-.09-15,2.06-1.2,4.5-2.03,7.08-2.57.03,0,.07-.01.1-.02,5.88-.76,12.5-.08,13.19,0ZM21.3.49c-3.01.56-5.85,1.49-8.23,2.87-3.98,2.31-6.18,5.43-6.2,8.79,0,0,0,.01,0,.02v8.76c0,.35-.18.68-.47.88C2.29,24.71.03,28.35,0,32.22c0,0,0,.02,0,.03v50c-.01,4.48,2.94,8.65,8.32,11.76,10.74,6.2,28.13,6.18,38.77,0,5.28-3.07,8.19-7.19,8.21-11.61,0-4.39,0-48.17,0-50.06-.01-3.89-2.28-7.54-6.41-10.46-.29-.2-.46-.53-.46-.88,0-3.18,0-8.44,0-8.75,0-3.39-2.24-6.55-6.29-8.89-2.36-1.36-5.16-2.29-8.12-2.85,0,0-5.81-1.13-12.71-.02ZM13.38,21.22c7.81,4.38,20.24,4.52,28.27.19.72-.39,1.59.13,1.59.95v7.64c0,.35-.17.67-.45.88-.42.31-.87.61-1.36.89-7.54,4.39-19.87,4.39-27.47,0-.64-.37-1.22-.76-1.75-1.17-.27-.21-.43-.52-.43-.86v-7.57c0-.82.88-1.34,1.6-.94ZM22.55,48.38c3.35.37,6.84.38,10.2.02l1.58-.23c4.68-.67,9.12-2.04,12.76-4.16,1.93-1.12,3.54-2.44,4.77-3.74.67-.71,1.85-.22,1.85.75v41.38c-.01,3.83-2.64,7.47-7.42,10.25-10.22,5.94-26.9,5.93-37.18,0-4.87-2.81-7.54-6.5-7.53-10.39v-41.31c0-.97,1.19-1.45,1.86-.74,1.43,1.51,3.19,2.84,4.88,3.81,3.09,1.78,7.45,3.38,12.64,4.14l1.58.24ZM46.3,42.64c-10.23,5.95-26.98,5.89-37.18,0C.95,37.92-.91,30.65,5.19,24.84c.62-.6,1.66-.24,1.81.61.35,1.98,1.63,5.06,6.17,7.69,8.05,4.65,21.08,4.63,29.05,0,4.48-2.6,5.75-5.63,6.09-7.59.15-.86,1.19-1.21,1.82-.6,2.32,2.24,3.58,4.77,3.58,7.41,0,4.45-3.51,8.01-7.42,10.28Z"/><path class="uuid-f4593ef9-30e0-45a1-a984-a8cd4b22e043" d="M47.22,76.92c0-1.57-1.03-3.04-2.9-4.11-2.16-1.24-5.09-1.72-7.89-1.5v-3.51s0,0,0,0c0,0,0,0,0-.01,0-1.57-1.03-3.04-2.9-4.11-3.67-2.12-9.61-2.12-13.26,0-1.83,1.07-2.85,2.51-2.85,4.07,0,0,0,0,0,0h0s-.01,3.5-.01,3.5c-2.45-.03-4.91.48-6.77,1.56-.02,0-.03.02-.05.03,0,0,0,0,0,0-1.8,1.06-2.8,2.49-2.81,4.03,0,0,0,0,0,.01v3.87c-.01,1.58,1.02,3.05,2.89,4.13,3.02,1.74,7.85,2.19,11.81.63,3.25,1.37,7.41,1.38,10.6.19,6.6,2.26,11.83-1.07,11.48-.96.86-.68,2.63-1.66,2.64-3.93v-3.87s.01,0,.01,0c0,0,0,0,0,0,0,0,0,0,0,0ZM34.4,80.18l-5.23-3.02c2.18-.31,4.52-1.09,6.03-2.68,2.17,1.88,1.7,4.13-.8,5.7ZM19.88,75.46c2.2,1.45,5.02,1.93,7.69,1.83l5.85,3.38c-3.41,1.58-8.41,1.48-11.58-.36-1.96-1.13-3.17-2.95-1.96-4.85ZM37.49,77.31l5.64,3.26c-1.67.77-3.7,1.12-5.74,1.07.15-.71.06-.65.1-4.33ZM43.86,73.6c1.57.91,2.44,2.09,2.44,3.32,0,1.35-1.04,2.44-2.19,3.16l-6.73-3.89c-.21-.89-.76-1.73-1.61-2.45.32-.49.52-1.01.61-1.54,2.97-.29,5.68.37,7.48,1.4ZM35.52,70.26c-.18.8.79,2.83-2.41,4.69-3.6,2.1-9.7,1.98-13.01-.45v-2.78c4.52,2.8,12.56,2.12,15.42-1.47ZM33.09,64.46c3.11,1.79,3.31,4.57.26,6.48l-11.84-6.84c3.6-1.66,8.52-1.41,11.58.36ZM20.53,64.6l11.84,6.84c-3.41,1.58-8.41,1.48-11.58-.36-3.04-1.76-3.36-4.54-.26-6.48ZM17.46,72.13c.13.89.63,1.89,1.68,2.79-.42.64-.65,1.33-.65,2.05,0,0,0,.01,0,.02v.08s-6.62-3.82-6.62-3.82c1.54-.71,3.48-1.15,5.6-1.11ZM10.89,73.74l7.59,4.38c.02,2.6-.08,2.76.08,3.5-3.74.31-9.85-1.05-9.85-4.73,0-1.16.78-2.27,2.18-3.16ZM8.7,80.75v-1.4c2.08,2.64,6.75,3.51,10.17,3.15.45.93,1.29,1.77,2.48,2.46-5.52,1.68-12.66-.54-12.65-4.21ZM19.39,80.85v-1.4c3.39,4.3,13.78,4.32,17.18.05-.18.8.79,2.83-2.41,4.69-5.41,3.14-14.79.88-14.78-3.33ZM34.36,85.11c.09-.05.19-.08.27-.13,1.16-.68,2-1.51,2.45-2.42,2.33.1,4.75-.28,6.79-1.32v2.86c-2.58,1.49-6.35,1.8-9.52,1.01Z"/></g></svg>