<?xml version="1.0" encoding="UTF-8"?><svg id="uuid-afa51215-e7a1-4241-b207-6ed7189b6301" xmlns="http://www.w3.org/2000/svg" viewBox="0 0 55.3 98.65"><defs><style>.uuid-055016d3-e2cc-4eb4-b2b0-9b948490066f{fill:#1b45b3;}</style></defs><g id="uuid-b95cc6bc-fb52-4a75-9a79-501fccbe8bcd"><path class="uuid-055016d3-e2cc-4eb4-b2b0-9b948490066f" d="M34.24,2.14s.08.01.12.02c2.54.54,4.94,1.39,6.98,2.57,7.37,4.26,7.27,10.82.08,15-7.54,4.38-19.87,4.39-27.47,0-7.15-4.13-7.48-10.7-.09-15,2.06-1.2,4.5-2.03,7.08-2.57.03,0,.07-.01.1-.02,5.88-.76,12.5-.08,13.19,0ZM21.3.49c-3.01.56-5.85,1.49-8.23,2.87-3.98,2.31-6.18,5.43-6.2,8.79,0,0,0,.01,0,.02v8.76c0,.35-.18.68-.47.88C2.29,24.71.03,28.35,0,32.22c0,0,0,.02,0,.03v50c-.01,4.48,2.94,8.65,8.32,11.76,10.74,6.2,28.13,6.18,38.77,0,5.28-3.07,8.19-7.19,8.21-11.61,0-4.39,0-48.17,0-50.06-.01-3.89-2.28-7.54-6.41-10.46-.29-.2-.46-.53-.46-.88,0-3.18,0-8.44,0-8.75,0-3.39-2.24-6.55-6.29-8.89-2.36-1.36-5.16-2.29-8.12-2.85,0,0-5.81-1.13-12.71-.02ZM13.38,21.22c7.81,4.38,20.24,4.52,28.27.19.72-.39,1.59.13,1.59.95v7.64c0,.35-.17.67-.45.88-.42.31-.87.61-1.36.89-7.54,4.39-19.87,4.39-27.47,0-.64-.37-1.22-.76-1.75-1.17-.27-.21-.43-.52-.43-.86v-7.57c0-.82.88-1.34,1.6-.94ZM22.55,48.38c3.35.37,6.84.38,10.2.02l1.58-.23c4.68-.67,9.12-2.04,12.76-4.16,1.93-1.12,3.54-2.44,4.77-3.74.67-.71,1.85-.22,1.85.75v41.38c-.01,3.83-2.64,7.47-7.42,10.25-10.22,5.94-26.9,5.93-37.18,0-4.87-2.81-7.54-6.5-7.53-10.39v-41.31c0-.97,1.19-1.45,1.86-.74,1.43,1.51,3.19,2.84,4.88,3.81,3.09,1.78,7.45,3.38,12.64,4.14l1.58.24ZM46.3,42.64c-10.23,5.95-26.98,5.89-37.18,0C.95,37.92-.91,30.65,5.19,24.84c.62-.6,1.66-.24,1.81.61.35,1.98,1.63,5.06,6.17,7.69,8.05,4.65,21.08,4.63,29.05,0,4.48-2.6,5.75-5.63,6.09-7.59.15-.86,1.19-1.21,1.82-.6,2.32,2.24,3.58,4.77,3.58,7.41,0,4.45-3.51,8.01-7.42,10.28Z"/><path class="uuid-055016d3-e2cc-4eb4-b2b0-9b948490066f" d="M27.54,62.68c-.42.28-.82.63-1.2,1.03.56-.15,1.12-.21,1.68-.2.13-.08.26-.16.39-.24.33-.19.66-.33.96-.42-.6-.14-1.22-.2-1.83-.17ZM46.94,74.97c-.47-1.71-1.57-3.15-3.11-4.05l-4.82-2.8-1.69-.98c.37.45.65.95.86,1.48,0,.01.01.01.01.01l.12.07s.04.02.05.03c.09.06.36.2,1.01.59.74.42,1.97,1.13,4.04,2.33,1.35.78,2.31,2.05,2.71,3.56.4,1.51.19,3.08-.59,4.43-.8,1.36-2.07,2.32-3.6,2.71-1.5.39-3.06.17-4.39-.6l-1.23-.71c-.47-1.68-1.56-3.08-3.07-3.96h-.02s-1.88-1.1-1.88-1.1c0-.05.01-.1.01-.15-.28-.1-.55-.21-.82-.35v.03l-8.39-4.88s-.01-.04-.01-.06l-.95-.55s.01.04.01.06l-.59-.34c-1.02-.59-2.14-.9-3.29-.91-.59,0-1.19.07-1.78.22-1.73.46-3.17,1.56-4.07,3.11-.9,1.54-1.14,3.34-.68,5.07.45,1.72,1.56,3.17,3.1,4.07.09.05,3.21,1.86,6.32,3.67,3.11,1.81,6.23,3.62,6.32,3.67,1.05.61,2.21.9,3.35.9,2.31,0,4.55-1.19,5.79-3.32.73-1.25,1.03-2.65.87-4.07l.58.33c3.2,1.85,7.3.76,9.15-2.42.9-1.55,1.14-3.36.68-5.09ZM34.93,85.8c-.78,1.34-2.04,2.3-3.54,2.7-1.51.41-3.09.2-4.45-.59l-1.35-.79c-1.41-.82-3.18-1.85-3.78-2.2-.7-.4-1.08-1.29-1.08-2.48-.01-2.68,1.87-5.96,4.21-7.3,1.02-.59,1.96-.71,2.66-.36h-.01s.13.08.13.08c.01.01.03.02.05.03.2.12,1.15.66,5.05,2.92,1.34.78,2.31,2.04,2.71,3.56.4,1.5.19,3.07-.6,4.43Z"/><path class="uuid-055016d3-e2cc-4eb4-b2b0-9b948490066f" d="M39.37,69.32c-.08-.41-.2-.81-.36-1.2-.52-1.27-1.44-2.39-2.71-3.13l-12.02-7.03c-1.48-.86-3.21-1.1-4.87-.66-1.66.44-3.06,1.51-3.92,3.01-1.69,2.91-.85,6.6,1.82,8.52.16.12.33.24.51.34l1.82,1.06,11.54,6.55c.64.19,1.28.29,1.91.29h.13c2.19-.05,4.25-1.22,5.41-3.22.82-1.42,1.04-3.03.74-4.53ZM21.18,70.02l-2.88-1.69c-2.61-1.53-3.5-4.91-1.98-7.53.74-1.28,1.92-2.19,3.34-2.57.46-.12.93-.18,1.4-.18.95,0,1.89.25,2.74.75l5.34,3.12c-.4.11-.81.28-1.21.51-.13.08-.26.16-.39.25-.42.28-.82.63-1.2,1.03-1.68,1.71-2.87,4.29-2.86,6.49,0,.44.06.86.16,1.25l-1.51-.88-.95-.55ZM37.8,73.36c-.74,1.28-1.93,2.19-3.35,2.56-1.04.27-2.11.24-3.1-.09-.28-.1-.55-.21-.82-.35-.07-.04-.15-.08-.22-.12-.11-.07-4.76-2.8-4.87-2.86-.64-.37-.99-1.19-.99-2.31-.02-2.39,1.56-5.28,3.57-6.68.13-.08.26-.16.39-.24.33-.19.66-.33.96-.42.24-.07.47-.1.69-.1.34,0,.65.08.91.25.01.01.02.01.03.02.09.05.36.21,1.07.63.72.41,1.88,1.09,3.74,2.18.6.35,1.11.8,1.51,1.31.37.45.65.95.86,1.48.56,1.5.48,3.24-.38,4.74Z"/></g></svg>