<?xml version="1.0" encoding="UTF-8"?><svg id="uuid-c2161efc-1aca-4da0-9326-ada9a7fa321d" xmlns="http://www.w3.org/2000/svg" viewBox="0 0 45.88 96.02"><defs><style>.uuid-2438235d-48d7-445d-8498-776a9e638cc8{fill:#1b45b3;}</style></defs><g id="uuid-85b0ad91-e57e-4849-8cfe-9b6c6f2cffa2"><path class="uuid-2438235d-48d7-445d-8498-776a9e638cc8" d="M38.98,32.62c-.69-.4-1.43-.76-2.19-1.09l.05-5.91s0-.03,0-.05c0,0,0,0,0,0,0,0,0-.01,0-.02,0-3.26-2.9-5.61-5.97-6.84V7.89c0-4.35-3.54-7.89-7.89-7.89s-7.89,3.54-7.89,7.89v10.8c-6.32,2.45-5.89,6.65-5.97,6.8,0,.46-.05,6.47-.05,6.08-.74.32-1.47.66-2.14,1.05C2.56,35.16.15,38.57.13,42.24c0,0,0,.01,0,.02L0,82.4c-.01,3.73,2.44,7.2,6.91,9.77,7.71,4.45,20.85,5.77,32.04,0,4.38-2.54,6.79-5.97,6.8-9.64.13-39.22.07-17.76.13-31.91v-.05s-.02-.09-.03-.13l.03-8.05s0,0,0-.01c0,0,0-.02,0-.02,0-3.71-2.45-7.17-6.9-9.73ZM16.56,7.89c0-3.54,2.88-6.41,6.41-6.41s6.41,2.88,6.41,6.41v12.99c0,1.81-3.31,2.78-6.41,2.78s-6.41-.97-6.41-2.78V7.89ZM15.08,20.28c0,.48,0,4.26,0,4.11,0,1.36.88,2.63,2.47,3.56,3.06,1.76,7.83,1.78,10.87,0,1.57-.91,2.44-2.17,2.44-3.56,0-.29,0-4.27,0-4.1,2.2,1.01,4.49,2.83,4.49,5.26.01,8.88-24.79,9.17-24.77-.05,0-2.41,2.29-4.26,4.49-5.23ZM32.12,31.8v8.02c-4.9,3.05-13.11,3.06-18.09.18-2.27-1.31-3.51-3-3.51-4.77l.05-5.97c4.34,5.25,15.42,5.75,21.55,2.53ZM7.67,33.9c.44-.26.91-.5,1.38-.72l-.02,2.05c0,2.32,1.5,4.47,4.24,6.06,5.33,3.08,13.99,3.08,19.3,0,5.45-3.17,3.91-7.16,4.2-8.15.5.24.99.5,1.46.77,3.97,2.29,6.15,5.29,6.16,8.45,0,3.6-2.91,6.56-6.07,8.4-8.4,4.88-22.11,4.88-30.56,0-3.25-1.88-6.17-4.81-6.17-8.48,0-3.13,2.16-6.11,6.07-8.38ZM39.08,60.21c1.09-.63,2.05-1.33,2.89-2.06v21.74c-3.94,4.38-13.79,7.97-24.95,6.12v-22.43c7.88,1.27,16.26,0,22.06-3.37h0ZM44.39,47.23c-.46,1.51,2.04,7-6.05,11.7h0c-5.73,3.33-14.13,4.5-21.92,3.05-.45-.09-.87.26-.87.73v23.93c0,.36.26.66.61.73,9.8,1.79,23.29-.4,28.14-8.11v3.27c-.02,3.13-2.17,6.1-6.05,8.35-10.59,5.46-23.15,4.32-30.6.02-3.99-2.3-6.18-5.32-6.17-8.49l.11-35.3c.98,1.54,2.87,3.44,5.44,4.92,9.05,5.23,23.43,5,32.04,0,2.49-1.45,4.35-3.3,5.31-4.8Z"/></g></svg>