<?xml version="1.0" encoding="UTF-8"?><svg id="uuid-07c14a74-e61f-41a7-9f03-03f19fd7a06a" xmlns="http://www.w3.org/2000/svg" viewBox="0 0 414.95 322.49"><defs><style>.uuid-790a658d-7b0c-4d0c-887e-3a964d836adf{fill:#fbfbfc;}.uuid-5b943a4b-7c33-4f84-8f5c-8b08b9a9079f{fill:#0046ba;}</style></defs><g id="uuid-c29e9d35-4c42-47f2-80dc-40e9b81cddc7"><path class="uuid-790a658d-7b0c-4d0c-887e-3a964d836adf" d="M209.77,55.89c.13.07.28.08.42,0l6.53-3.77c.13-.08.21-.22.21-.36v-2.44c0-.15-.08-.28-.21-.36l-39.3-22.84c-.13-.07-.28-.07-.42,0l-6.53,3.77c-.13.08-.21.22-.21.36v2.44c0,.15.08.28.21.36l39.3,22.84ZM177.2,26.96l38.47,22.35c-.42.25-6.05,3.49-5.69,3.29l-38.47-22.35,5.69-3.29Z"/><path class="uuid-790a658d-7b0c-4d0c-887e-3a964d836adf" d="M224.03,47.63c.13.07.28.08.42,0l6.53-3.77c.13-.08.21-.22.21-.36v-2.45c-.01-.15-.09-.28-.22-.36l-39.29-22.84c-.13-.07-.28-.07-.42,0l-6.53,3.77c-.13.08-.21.22-.21.36v2.45c0,.15.08.28.21.36l39.3,22.84ZM191.45,18.69l38.47,22.35c-.34.2-6.06,3.49-5.69,3.29l-38.47-22.35,5.69-3.29Z"/><path class="uuid-790a658d-7b0c-4d0c-887e-3a964d836adf" d="M179.3,73.75c.13.07.28.08.42,0l6.53-3.77c.13-.08.21-.22.21-.36v-2.44c0-.15-.08-.28-.21-.36l-39.3-22.84c-.13-.07-.28-.07-.42,0l-6.53,3.77c-.13.08-.21.22-.21.36v2.44c0,.15.08.28.21.36l39.3,22.84ZM146.73,44.82l38.47,22.35c-.42.25-6.04,3.49-5.69,3.29l-38.47-22.35,5.69-3.29Z"/><path class="uuid-790a658d-7b0c-4d0c-887e-3a964d836adf" d="M194.65,64.7c.13.07.28.08.42,0l6.53-3.77c.13-.08.21-.22.21-.36v-2.45c0-.15-.09-.28-.22-.36l-39.29-22.84c-.13-.07-.28-.07-.42,0l-6.53,3.77c-.13.08-.21.22-.21.36v2.45c0,.15.08.28.21.36l39.3,22.84ZM162.08,35.76l38.47,22.35c-.34.2-6.05,3.49-5.69,3.29l-38.47-22.35,5.69-3.29Z"/><path class="uuid-790a658d-7b0c-4d0c-887e-3a964d836adf" d="M148.89,91.39c.13.07.28.08.42,0l6.53-3.77c.13-.08.21-.22.21-.36v-2.44c0-.15-.08-.28-.21-.36l-39.3-22.84c-.13-.07-.28-.07-.42,0l-6.53,3.77c-.13.08-.21.22-.21.36v2.44c0,.15.08.28.21.36l39.3,22.84ZM116.32,62.46l38.47,22.35c-.42.25-6.04,3.49-5.69,3.29l-38.47-22.35,5.69-3.29Z"/><path class="uuid-790a658d-7b0c-4d0c-887e-3a964d836adf" d="M163.15,83.13c.13.07.28.08.42,0l6.53-3.77c.13-.08.21-.22.21-.36v-2.45c-.01-.15-.09-.28-.22-.36l-39.29-22.84c-.13-.07-.28-.07-.42,0l-6.53,3.77c-.13.08-.21.22-.21.36v2.45c0,.15.08.28.21.36l39.3,22.84ZM130.58,54.19l38.47,22.35c-.34.2-6.06,3.49-5.69,3.29l-38.47-22.35,5.69-3.29Z"/><path class="uuid-790a658d-7b0c-4d0c-887e-3a964d836adf" d="M134.2,100.19l6.53-3.77c.13-.08.21-.22.21-.36v-2.45c0-.15-.09-.28-.22-.36l-39.29-22.84c-.13-.07-.28-.07-.42,0l-6.53,3.77c-.13.08-.21.22-.21.36v2.45c0,.15.08.28.21.36l39.3,22.84c.13.07.28.08.42,0ZM101.2,71.26l38.47,22.35c-.34.2-6.05,3.49-5.69,3.29l-38.47-22.35,5.69-3.29Z"/><path class="uuid-790a658d-7b0c-4d0c-887e-3a964d836adf" d="M131.89,109.19c-.12-.07-.68-.39-.87-.5.11.06.37.21.89.51.27.15.55.13.82,0,8-4.65,96.32-55.95,121.94-70.84.53-.31.53-1.08,0-1.41L195.46,2.76s0-.02-.02-.02c-.25-.13-.57-.13-.82,0l-3.48,2.04-118.46,68.85c-.53.3-.53,1.1,0,1.41,50.6,29.19,58.76,33.9,59.21,34.16Z"/><path class="uuid-790a658d-7b0c-4d0c-887e-3a964d836adf" d="M70.97,74.79c-.05-.05-.1-.05-.15-.05-.06-.06-.11-.1-.15-.12h.04c-.05-.04-.1-.04-.16-.09v.05h0c-.05-.05-.1-.1-.15-.1,0,0-.05,0-.05-.05-.16-.1-.22-.1-.22-.1L191.04,4.04c-1.09,0-61.94,34.74-62.98,34.74l-59.96,34.86h-.05c-.2.15-.37.42-.37.68v.05l-.05,6.31c0,.27.17.53.42.68l3.66,2.09-.11,42.79-1.26-.73c-.73-.43-1.96-1.15-4.11-2.42,0,.02,0,.03,0,.05l-5.22-3.02-1.62-.94-1.57.94-16.69,9.61h0s-5.73,3.3-5.73,3.3l-25.06,14.43v.02s-1.31.76-1.31.76h-.05c-.27.15-.42.42-.42.67v.06l.05,5.64c0,.25.16.52.37.67l4.33,2.51.1,21.5-13,7.51c-.25.16-.42.42-.42.68,0,.05.06.05.06.1L0,202.37c0,.32.16.57.42.73,52.97,30.58,153.67,88.71,206.65,119.28.25.15.52.1.79,0l206.63-120.12c.27-.16.42-.42.42-.68l.05-8.92c0-.32-.15-.57-.42-.73l-29.07-16.75v-5.48c0-.25-.15-.52-.35-.68h-.06l-37.24-21.48-.41-.24s-.02-.01-.04-.01l-.43-.25.03-4.23,1.57-2.58c1.51-.15,2.9-.9,3.88-2.09,7.84,1.44,12.02-8.54,5.69-13.11.84-2.03.37-4.12-1-5.61l-.16-.19c-1.29-1.29-3.36-1.65-3.93-1.47-.13,0-.25,0-.33.05-.22.03-.42.05-.62.1-1.37-5.99-9.8-6.83-12.13-1.19-1-1.29-2.51-2.06-4.18-2.06-3.91,0-6.38,4.19-4.61,7.6-3.65.03-5.69,3.65-4.6,6.45.02.41.7,1.7,1.94,2.46-.38.67-.67,2.04-.52,2.58,0,.28.05.54.1.75v.13c.22.85.68,1.55,1.27,2.14-1.01-.58-1.99-1.14-2.94-1.7l5.29,3.15s.06,0,.1,0l-.22-.13c.28.08.5.13.71.16.15.01.31.02.45.05.27,0,.56-.02.99-.11,1.22,1.24,2.85,1.76,4.52,1.61.47.43,1.04.75,1.58.92l.23.52c.03.39.03.47.05,1.76v.1s-13.7-7.9-13.7-7.9l-27.92-16.1.05-5.57,1.56-2.58c1.52-.15,2.9-.9,3.88-2.09,7.89,1.44,12-8.54,5.69-13.11.16-.39.32-.89.42-1.42-.08-.39.33-2.28-1.42-4.19l-.16-.2c-1.29-1.29-3.38-1.63-3.93-1.46-.13,0-.25,0-.33.05-.22.03-.42.05-.62.09-1.38-6.16-9.86-6.73-12.13-1.17-1-1.29-2.51-2.05-4.18-2.05-3.91,0-6.37,4.19-4.61,7.59h-.08c-3.43,0-5.66,3.58-4.52,6.46.03.41.7,1.68,1.94,2.46-.37.67-.67,2.04-.52,2.58,0,.28.05.54.1.75v.13c.59,2.33,2.9,4.04,5.66,3.5,1.22,1.24,2.83,1.76,4.48,1.62.48.42,1.05.73,1.62.91l.23.52c.04.81.04,1.93.04,3.24l-36.11-20.82c0-11.43.05-26.82.1-47.53l3.6-2.09c.27-.16.42-.42.42-.73v-6.21c0-.05.05-.05.05-.05,0-.32-.15-.58-.42-.73L195.37.12c-.2-.16-.52-.16-.79,0l-3.6,2.08c0,.63,0,1.2.05,1.84l3.96-2.31,62.26,35.91s-.01,0-.01.01c-.01.01-.04.03-.06.04-.01.01-.02.01-.05.03-.06.04-.11.08-.18.1-.05.04-.1.06-.15.09-.04.03-.08.05-.11.08-.03,0-.04.01-.05.03-.04.03-.08.04-.11.06-.08.04-.15.09-.23.13.26-.15.56-.33.94-.55h0c-.16.09-.88.51-1.41.82,0,0,0,0-.01,0,0,0-.01,0-.02.01-.58.33-.9.52-.02.01-.3.18-.47.28-.53.32-.01.01-.02.01-.02.01M256.3,38.2c-.05.04-.11.06-.16.1-.06.04-.13.08-.18.1-.04.02-.07.04-.11.06.13-.07.28-.16.45-.26Z"/><path class="uuid-790a658d-7b0c-4d0c-887e-3a964d836adf" d="M70.82,74.69v.05h.1s-.05,0-.1-.05Z"/><path class="uuid-790a658d-7b0c-4d0c-887e-3a964d836adf" d="M361.21,113.87l-.15.08c.06.04.1.06.15.09v-.17Z"/><polygon class="uuid-790a658d-7b0c-4d0c-887e-3a964d836adf" points="337.75 218.9 341.31 220.95 351.62 214.97 348.07 212.92 337.75 218.9"/><polygon class="uuid-790a658d-7b0c-4d0c-887e-3a964d836adf" points="304.69 238.12 308.24 240.17 318.55 234.19 315 232.14 304.69 238.12"/><polygon class="uuid-790a658d-7b0c-4d0c-887e-3a964d836adf" points="271.62 257.34 275.17 259.4 285.48 253.39 281.93 251.34 271.62 257.34"/><polygon class="uuid-790a658d-7b0c-4d0c-887e-3a964d836adf" points="238.55 276.57 242.11 278.62 252.42 272.62 248.87 270.57 238.55 276.57"/><polygon class="uuid-790a658d-7b0c-4d0c-887e-3a964d836adf" points="205.48 295.79 209.04 297.84 219.35 291.84 215.8 289.79 205.48 295.79"/><path class="uuid-790a658d-7b0c-4d0c-887e-3a964d836adf" d="M21.13,165.82c-.55-.3-1.22.08-1.22.7l-.04,14.76c0,.27.15.53.4.68h0s69.56,40.15,69.56,40.15c.57.3,1.22-.09,1.22-.7,0-.66.04-15.67.04-14.74,0-.78,4.27,1.99-69.95-40.85ZM89.45,217.82l-66.08-38.14c0-.65.04-11.38.04-10.69l66.06,38.14-.02,10.69Z"/><path class="uuid-790a658d-7b0c-4d0c-887e-3a964d836adf" d="M169.57,251.95c0-.06,0-.05,0,0,0,0,0,0,0,0Z"/><path class="uuid-790a658d-7b0c-4d0c-887e-3a964d836adf" d="M99.62,211.1c-.55-.3-1.22.08-1.22.7l-.04,14.76c0,.3.15.55.4.7l69.56,40.15c.57.3,1.22-.09,1.22-.7s.03-13.95.04-14.76c0-.28-.15-.55-.4-.7-3.29-1.9,17.61,10.16-69.56-40.15ZM167.92,263.12l-66.06-38.14c0-.7.04-11.34.04-10.67l66.06,38.14-.04,10.67Z"/><path class="uuid-5b943a4b-7c33-4f84-8f5c-8b08b9a9079f" d="M216.71,48.96l-39.3-22.84c-.13-.07-.28-.07-.42,0l-6.53,3.77c-.13.08-.21.22-.21.36v2.44c0,.15.08.28.21.36l39.3,22.84c.13.07.28.08.42,0l6.53-3.77c.13-.08.21-.22.21-.36v-2.44c0-.15-.08-.28-.21-.36ZM177.2,26.97l38.47,22.35c-.42.25-6.04,3.49-5.69,3.29l-38.47-22.35,5.69-3.29Z"/><path class="uuid-5b943a4b-7c33-4f84-8f5c-8b08b9a9079f" d="M231.17,41.04c0-.15-.08-.28-.21-.36l-39.29-22.84c-.13-.07-.28-.07-.42,0l-6.53,3.77c-.13.08-.21.22-.21.36v2.45c0,.15.08.28.21.36l39.3,22.84c.13.07.28.08.42,0l6.53-3.77c.13-.08.21-.22.21-.36v-2.45ZM191.45,18.69l38.47,22.35c-.34.2-6.05,3.49-5.69,3.29l-38.47-22.35,5.69-3.29Z"/><path class="uuid-5b943a4b-7c33-4f84-8f5c-8b08b9a9079f" d="M186.24,66.81l-39.3-22.84c-.13-.07-.28-.07-.42,0l-6.53,3.77c-.13.08-.21.22-.21.36v2.44c0,.15.08.28.21.36l39.3,22.84c.13.07.28.08.42,0l6.53-3.77c.13-.08.21-.22.21-.36v-2.44c0-.15-.08-.28-.21-.36ZM146.73,44.82l38.47,22.35c-.42.25-6.04,3.49-5.69,3.29l-38.47-22.35,5.69-3.29Z"/><path class="uuid-5b943a4b-7c33-4f84-8f5c-8b08b9a9079f" d="M201.79,58.11c0-.15-.08-.28-.21-.36l-39.29-22.84c-.13-.07-.28-.07-.42,0l-6.53,3.77c-.13.08-.21.22-.21.36v2.45c0,.15.08.28.21.36l39.3,22.84c.13.07.28.08.42,0l6.53-3.77c.13-.08.21-.22.21-.36v-2.45ZM162.08,35.76l38.47,22.35c-.34.2-6.05,3.49-5.69,3.29l-38.47-22.35,5.69-3.29Z"/><path class="uuid-5b943a4b-7c33-4f84-8f5c-8b08b9a9079f" d="M155.84,84.45l-39.3-22.84c-.13-.07-.28-.07-.42,0l-6.53,3.77c-.13.08-.21.22-.21.36v2.44c0,.15.08.28.21.36l39.3,22.84c.13.07.28.08.42,0l6.53-3.77c.13-.08.21-.22.21-.36v-2.44c0-.15-.08-.28-.21-.36ZM116.32,62.46l38.47,22.35c-.42.25-6.04,3.49-5.69,3.29l-38.47-22.35,5.69-3.29Z"/><path class="uuid-5b943a4b-7c33-4f84-8f5c-8b08b9a9079f" d="M170.3,76.54c0-.15-.08-.28-.21-.36l-39.29-22.84c-.13-.07-.28-.07-.42,0l-6.53,3.77c-.13.08-.21.22-.21.36v2.45c0,.15.08.28.21.36l39.3,22.84c.13.07.28.08.42,0l6.53-3.77c.13-.08.21-.22.21-.36v-2.45ZM130.58,54.19l38.47,22.35c-.34.2-6.05,3.49-5.69,3.29l-38.47-22.35,5.69-3.29Z"/><path class="uuid-5b943a4b-7c33-4f84-8f5c-8b08b9a9079f" d="M140.92,93.61c0-.15-.08-.28-.21-.36l-39.29-22.84c-.13-.07-.28-.07-.42,0l-6.53,3.77c-.13.08-.21.22-.21.36v2.45c0,.15.08.28.21.36l39.3,22.84c.13.07.28.08.42,0l6.53-3.77c.13-.08.21-.22.21-.36v-2.45ZM101.2,71.26l38.47,22.35c-.34.2-6.05,3.49-5.69,3.29l-38.47-22.35,5.69-3.29Z"/><path class="uuid-5b943a4b-7c33-4f84-8f5c-8b08b9a9079f" d="M72.68,75.03c50.6,29.19,58.76,33.9,59.21,34.16-.12-.07-.68-.39-.87-.5.11.06.37.21.89.51.27.15.55.13.82,0,8-4.65,96.32-55.95,121.94-70.84.53-.31.53-1.08,0-1.41L195.46,2.76s0-.02-.02-.02c-.25-.13-.57-.13-.82,0l-3.48,2.04c.09.84.13,1.7.3,2.51.34,1.64.77,3.26,1.18,4.87l2.4-1.41c.66.38,55.44,32,52.1,30.09l-114.79,66.72-52.06-30.07L192.62,12.16c.09-2.75-1.38-4.65-1.48-7.38l-118.46,68.85c-.53.3-.53,1.1,0,1.41Z"/><path class="uuid-5b943a4b-7c33-4f84-8f5c-8b08b9a9079f" d="M297.66,119.67c.09.3.13.61.12.93l1.33.77,26.71,15.4,14.01,8.07.04.03h.01s.19.11.19.11l.25.14c-.07-.59.04-1.2.34-1.71l-14.29-8.24-27.92-16.1-.8-.47h0s-.01.08-.01.12c.06.31.06.63.03.94Z"/><path class="uuid-5b943a4b-7c33-4f84-8f5c-8b08b9a9079f" d="M414.53,191.94l-29.07-16.75v-5.48c0-.25-.15-.52-.35-.68h-.06l-37.24-21.48-.41-.24s-.02-.01-.04-.01l-.43-.25-.75-.43c.06.28.05.57.02.86,0,.08.03.16.02.25,0,.23-.03.45-.1.66,0,.03-.02.06-.03.09h0s.02-.05.03-.08v.02s-.03.06-.03.06l1.55.9,35.38,20.44s-.06.04-.09.05c-.05.04-.11.08-.19.11-.44.25-.84.51-1.13.67-.05.05-.12.05-.17.1-.62.32-1.04.58-1.3.73-.1.05-.2.1-.25.15,0,0-.05.06-.11.06-10.91,6.36-54.16,31.52-201.78,117.24-.62-.42-174.85-101.02-175.54-101.44l10.96-6.37.05,6.52c0,.27.16.58.37.68l161.08,93.61c.27.16.57.1.84,0,10.7-6.16,17.58-10.17,21.91-12.68.11,0,.22-.05.27-.15.32-.16.57-.32.79-.42.05-.05.15-.1.25-.15.63-.37,1.15-.68,1.62-.95.32-.2.79-.47.89-.52.37-.2.79-.47,1.31-.73.2-.15.42-.25.57-.3.11-.1.16-.1.22-.16.05,0,.1-.05.15-.1.05,0,.1-.05.15-.05.11-.1.16-.1.16-.1,3.86-2.24,9.86-5.69,18.78-10.86.37-.1.62-.42.62-.79v-.05l-.05-15.97,11.01,6.59,96.28-53.59-20.2-12.17-.27-.15-.27-.16-.29-.18-.1-.06c.14.48.11.96-.08,1.39-.06.16-.14.32-.25.46,0,.03-.03.05-.04.08l.05.03.28.16.25.16.29.16.25.16.27.16,16.19,9.74-92.62,51.5-10.75-6.47v-.52c0-.57,0-4.9-.05-8.77l4.33-2.5c.27-.16.42-.43.42-.73v-5.64l-.05-.05c0-.27-.1-.52-.32-.68h-.05c-.2-.15-2.61-1.51-5.74-3.33l7.98-.89-.84-2.2-10.39,1.2c-3.6-2.09-7.56-4.38-10.49-6.11l43.37-4.9-.84-2.24-45.82,5.22c-2.46-1.41,2.29,1.36-32.35-18.78l62.22-34.54.25-.14.27-.15.14-.08c-.05-.1-.1-.22-.1-.37,0-.32,0-.63.05-.94.05-.37.1-.73.15-1.1v-.15l-.23.13-.27.15-.25.14-64.42,35.85-6.69-3.91c89.07-51.82,3.24-1.87,91.11-52.96.42-.05.63-.47.63-.84s.05-29.37.05-29.74l16.59,9.6,19.51,11.25.54.31c-.13-.6-.07-1.25.19-1.8l-.72-.42-36.11-20.82c0-11.43.05-26.82.1-47.53l3.6-2.09c.27-.16.42-.42.42-.73v-6.21c0-.05.05-.05.05-.05,0-.32-.15-.58-.42-.73L195.37.12c-.2-.16-.52-.16-.79,0l-3.6,2.08c0,.63,0,1.2.05,1.84l3.96-2.31,62.26,35.91s-.01,0-.01.01c-.01.01-.04.03-.06.04-.01.01-.02.01-.05.03-.06.04-.11.08-.18.1-.05.04-.1.06-.15.09-.04.03-.08.05-.11.08-.03,0-.04.01-.05.03-.04.03-.08.04-.11.06-.08.04-.15.09-.23.13-.05.04-.11.06-.16.1-.06.04-.13.08-.18.1s-.09.05-.14.08c-.33.2-.51.3-.57.34-.01.01-.02.01-.02.01-6.79,3.94-33.33,19.37-122.88,71.39-45.77-26.41-58.39-33.71-61.37-35.43-.05-.05-.1-.05-.15-.05-.06-.06-.11-.1-.15-.13l-.11-.04c-.05-.05-.1-.1-.15-.1,0,0-.05,0-.05-.05-.16-.1-.22-.1-.22-.1L191.04,4.04c-1.09,0-61.94,34.74-62.98,34.74l-59.96,34.86h-.05c-.2.15-.37.42-.37.68v.05l-.05,6.31c0,.27.17.53.42.68l3.66,2.09-.11,42.84c-.57-.37.95.52-5.37-3.19.1.68.22,1.36.32,2.04,45.35,26.3,154.71,90.01,159.21,92.37-34.39,19.87-47.7,27.5-48.48,27.97h-.06c-7.14-4.18-152.1-88.35-166.14-96.6l30.06-17.32v-1.82l-32.1,18.52h-.05c-.27.15-.42.42-.42.67v.06l.05,5.64c0,.25.16.52.37.67l4.33,2.51.1,21.5-13,7.51c-.25.16-.42.42-.42.68,0,.05.06.05.06.1l-.06,14.77c0,.32.16.57.42.73,52.97,30.58,153.67,88.71,206.65,119.28.25.15.52.1.79,0l206.63-120.12c.27-.16.42-.42.42-.68l.05-8.92c0-.32-.15-.57-.42-.73ZM132.18,161.36c-12.68-7.36-31.41-18.27-58.91-34.23l.11-42.74c59.17,34.12,58.23,33.86,58.9,33.86l-.1,43.11ZM205.81,127.91v4.5l-20.41,11.79c0-1.67-.05-3.18-.05-4.5l20.46-11.79ZM185.35,137.57v-1.52l20.46-11.84v1.51l-20.46,11.86ZM205.86,149.47l-20.41,11.89v-1.72l20.41-11.79v1.62ZM205.86,145.7l-20.41,11.79v-3.96l20.41-11.84v4.02ZM205.86,139.6l-20.41,11.79c0-1.67-.05-3.39-.05-5.07l20.46-11.78v5.05ZM239.26,108.65l.05,4.5-20.46,11.84v-4.55l20.41-11.79ZM218.86,118.3v-1.72l20.41-11.84v1.77l-20.41,11.79ZM239.31,115.33v5.02l-20.46,11.79v-5l20.46-11.81ZM239.36,130c-.68.37-19.25,11.17-20.46,11.84v-1.41l20.46-11.84v1.41ZM218.91,138.24v-3.96l20.41-11.79.05,3.96-20.46,11.79ZM150.29,154.99c0,4.91,0,2.82.05,16.91-3.71-2.19-8.98-5.27-16.54-9.6l.1-44.83,120.07-69.81c-.13,55.94-.15,72.35-.15,76.52v1.23l-9.55,5.52-.05-29.53c0-.63-.68-1-1.25-.68-.62.37-23.58,13.67-25.09,14.5l-.06.05c-.36.11-.62.95-.47,1.2-.15,1.77,0,28.18,0,30.11l-6.52,3.81-.1-29.54c0-.62-.67-.99-1.2-.67-.67.35-23.59,13.62-25.04,14.45l-.05.05c-.52,0-.73.79-.63,1.15-.05,1.46.11,29.58.11,30.21l-6.57,3.8-.11-29.53c0-.63-.62-.99-1.19-.73-2.04,1.15-23.95,13.88-25.31,14.72-.27.15-.42.42-.42.67ZM172.31,143.66v1.99l-20.41,11.84v-1.98l20.41-11.86ZM172.36,147.84v4.48l-20.39,11.79c0-2.08-.06-3.5-.06-4.48l20.46-11.79ZM151.96,166.26l20.39-11.79v4.5l-20.39,11.84v-4.55ZM152.01,172.89l20.39-11.79v4.55l-16.48,9.55c-1-.58-2.25-1.3-3.91-2.31ZM158.74,176.85c-.27-.15-.57-.3-1.04-.62l14.71-8.45v1.14c-.57.37-12.57,7.31-13.62,7.93h-.05ZM213.54,254.92c-.63.37-28.23,16.29-29.96,17.28.05-.57,0-1.3,0-2.09l29.96-17.38v2.19ZM213.54,251.32l-29.96,17.38v-3.6l29.96-17.38v3.6ZM213.54,246.32l-29.96,17.37v-4.38l29.96-17.37v4.38ZM183.58,257.89c-.05-1.72-.05-3.08-.05-3.75l29.95-17.38.06,3.75-29.96,17.38ZM176.9,252.83c.2.11.52.16.77,0l44.04-25.46c.05.63.11,24.94.22,26.04l-3.86,2.24-.1-21.91c0-.63-.63-1.05-1.2-.73-.62.42-32.25,18.68-34.23,19.89-.32.05-.68.89-.47,1.2-.16,1.87-.11,5.52-.06,22.38l-5.89,3.38c0-13.98,0-22.43-.05-27.5l.84.47ZM174.4,251.37l.1,28.44L15.04,187.19v-7.31l-.1-21.18,159.46,92.67ZM207.48,311.8c-1.2-.73-19.05-10.91-20.14-11.59l197.7-114.9c.27-.15.42-.42.42-.73v-7.51l27.03,15.61-205.01,119.13Z"/><path class="uuid-5b943a4b-7c33-4f84-8f5c-8b08b9a9079f" d="M70.56,74.53v.05l.16.05c-.05-.05-.1-.05-.16-.1Z"/><path class="uuid-5b943a4b-7c33-4f84-8f5c-8b08b9a9079f" d="M70.82,74.69v.05h.1s-.05,0-.1-.05Z"/><path class="uuid-5b943a4b-7c33-4f84-8f5c-8b08b9a9079f" d="M70.56,74.53v.05l.16.05c-.05-.05-.1-.05-.16-.1Z"/><path class="uuid-5b943a4b-7c33-4f84-8f5c-8b08b9a9079f" d="M70.82,74.69v.05h.1s-.05,0-.1-.05Z"/><path class="uuid-5b943a4b-7c33-4f84-8f5c-8b08b9a9079f" d="M70.56,74.53v.05l.16.05c-.05-.05-.1-.05-.16-.1Z"/><path class="uuid-5b943a4b-7c33-4f84-8f5c-8b08b9a9079f" d="M70.82,74.69v.05h.1s-.05,0-.1-.05Z"/><path class="uuid-5b943a4b-7c33-4f84-8f5c-8b08b9a9079f" d="M70.56,74.53v.05l.16.05c-.05-.05-.1-.05-.16-.1Z"/><path class="uuid-5b943a4b-7c33-4f84-8f5c-8b08b9a9079f" d="M70.82,74.69v.05h.1s-.05,0-.1-.05Z"/><path class="uuid-5b943a4b-7c33-4f84-8f5c-8b08b9a9079f" d="M70.82,74.69v.05h.1s-.05,0-.1-.05Z"/><path class="uuid-5b943a4b-7c33-4f84-8f5c-8b08b9a9079f" d="M70.56,74.53v.05l.16.05c-.05-.05-.1-.05-.16-.1Z"/><path class="uuid-5b943a4b-7c33-4f84-8f5c-8b08b9a9079f" d="M70.82,74.69v.05h.1s-.05,0-.1-.05Z"/><path class="uuid-5b943a4b-7c33-4f84-8f5c-8b08b9a9079f" d="M70.56,74.53v.05l.16.05c-.05-.05-.1-.05-.16-.1Z"/><path class="uuid-5b943a4b-7c33-4f84-8f5c-8b08b9a9079f" d="M70.82,74.69v.05h.1s-.05,0-.1-.05Z"/><path class="uuid-5b943a4b-7c33-4f84-8f5c-8b08b9a9079f" d="M70.56,74.53v.05l.16.05c-.05-.05-.1-.05-.16-.1Z"/><path class="uuid-5b943a4b-7c33-4f84-8f5c-8b08b9a9079f" d="M70.82,74.69v.05h.1s-.05,0-.1-.05Z"/><path class="uuid-5b943a4b-7c33-4f84-8f5c-8b08b9a9079f" d="M70.56,74.53v.05l.16.05c-.05-.05-.1-.05-.16-.1Z"/><path class="uuid-5b943a4b-7c33-4f84-8f5c-8b08b9a9079f" d="M253.81,125.38c0-.25.01-2.56.01,0h-.01Z"/><path class="uuid-5b943a4b-7c33-4f84-8f5c-8b08b9a9079f" d="M257.24,37.65h0c-4.34,2.52-.4.23,0,0Z"/><path class="uuid-5b943a4b-7c33-4f84-8f5c-8b08b9a9079f" d="M382.93,169.86s-.11.06-.19.11c.08-.05.14-.08.19-.11Z"/><path class="uuid-5b943a4b-7c33-4f84-8f5c-8b08b9a9079f" d="M361.06,113.94l.15-.08v.17c-.06-.04-.09-.06-.15-.09Z"/><path class="uuid-5b943a4b-7c33-4f84-8f5c-8b08b9a9079f" d="M370.82,199.7l3.55,2.05,10.31-6-3.55-2.05-10.31,6Z"/><path class="uuid-5b943a4b-7c33-4f84-8f5c-8b08b9a9079f" d="M337.75,218.9l3.55,2.05,10.31-5.98-3.55-2.05-10.31,5.98Z"/><path class="uuid-5b943a4b-7c33-4f84-8f5c-8b08b9a9079f" d="M304.69,238.12l3.55,2.05,10.31-5.98-3.55-2.05-10.31,5.98Z"/><path class="uuid-5b943a4b-7c33-4f84-8f5c-8b08b9a9079f" d="M271.62,257.34l3.55,2.05,10.31-6-3.55-2.05-10.31,6Z"/><path class="uuid-5b943a4b-7c33-4f84-8f5c-8b08b9a9079f" d="M238.55,276.57l3.55,2.05,10.31-6-3.55-2.05-10.31,6Z"/><path class="uuid-5b943a4b-7c33-4f84-8f5c-8b08b9a9079f" d="M205.48,295.79l3.55,2.05,10.31-6-3.55-2.05-10.31,6Z"/><path class="uuid-5b943a4b-7c33-4f84-8f5c-8b08b9a9079f" d="M270.98,186.57l-73.85,8.39.8,2.18,72.55-8.22c-.17-.82-.02-1.71.5-2.35Z"/><path class="uuid-5b943a4b-7c33-4f84-8f5c-8b08b9a9079f" d="M250.26,181.39c-.21-.25-.4-.5-.59-.76-.06-.09-.13-.17-.18-.26-.03-.04-.05-.09-.07-.14-.1-.22-.2-.45-.29-.68,0-.02-.02-.05-.03-.07,0,0,0,0,0,0l-30.34,3.45.8,2.18,30.88-3.5c-.06-.07-.12-.15-.18-.22Z"/><path class="uuid-5b943a4b-7c33-4f84-8f5c-8b08b9a9079f" d="M250.85,54.89c0-.63-.68-1.01-1.22-.71-89.43,51.91-108.42,62.93-111.76,64.88,0,0-.01,0-.08.04-.01.01-.04.03-.05.03,0,.01-.01.01-.01.01.02-.03,0,0-.08.05h-.01s-.08.04-.1.06c-.02.01-.05.04-.08.05-.04.01-.06.03-.09.05l.03-.03s-.1.05-.15.09h.02s-.04.01-.04.01c-.24.15-.39.41-.39.68,0,.61.02,35.05.02,37.35,0,.61.65,1.01,1.22.71l112.38-65.22c.25-.15.4-.42.4-.71l-.02-37.35ZM147,147.46l-8.5,4.93v-31.81l8.5-4.93v31.81ZM158.03,141.08l-9.82,5.66v-31.81l9.82-5.7v31.84ZM169.08,134.72l-9.8,5.66v-31.86l9.82-5.7v31.89ZM180.12,128.34l-9.82,5.66v-31.88l9.82-5.7v31.92ZM191.17,121.98l-9.83,5.66v-31.93l9.83-5.7v31.97ZM202.2,115.59l-9.82,5.66v-31.97l9.82-5.69v32ZM213.23,109.24l-9.82,5.66v-32.01l9.82-5.7v32.05ZM224.27,102.85l-9.82,5.66v-32.02l9.82-5.7v32.06ZM235.32,96.47l-9.82,5.66v-32.06l9.82-5.7v32.1ZM246.32,90.12l-9.78,5.65v-32.1l9.78-5.69v32.14Z"/><path class="uuid-5b943a4b-7c33-4f84-8f5c-8b08b9a9079f" d="M183.39,215.59c.25-.15.4-.42.4-.7v-3.17c0-.28-.15-.55-.4-.7l-110.89-64.43c-.25-.13-.55-.13-.82,0-18.82,11.05-18.82,10.43-18.82,11.32v3.19c0,.28.15.55.4.7l110.87,64.43c.25.13.55.15.82,0l18.44-10.64ZM72.11,148.22l109.25,63.5c-.65.38-17.89,10.33-16.79,9.71l-108.42-63-.85-.49,16.81-9.71Z"/><path class="uuid-5b943a4b-7c33-4f84-8f5c-8b08b9a9079f" d="M20.28,181.96l69.56,40.15c.57.3,1.22-.09,1.22-.7,0-.66.04-15.67.04-14.74,0-.78,4.27,1.99-69.95-40.85-.55-.3-1.22.08-1.22.7l-.04,14.76c0,.27.15.53.4.68h0ZM89.45,217.82l-66.08-38.14c0-.65.04-11.38.04-10.69l66.06,38.14-.02,10.69Z"/><path class="uuid-5b943a4b-7c33-4f84-8f5c-8b08b9a9079f" d="M98.76,227.26l69.56,40.15c.57.3,1.22-.09,1.22-.7,0-.66.04-15.71.04-14.76,0-.28-.15-.55-.4-.7-3.29-1.9,17.61,10.16-69.56-40.15-.55-.3-1.22.08-1.22.7l-.04,14.76c0,.3.15.55.4.7ZM167.92,263.12l-66.06-38.14c0-.7.04-11.34.04-10.67l66.06,38.14-.04,10.67Z"/><polygon class="uuid-5b943a4b-7c33-4f84-8f5c-8b08b9a9079f" points="61.01 120.14 59.44 121.02 11.02 148.89 10.34 147.48 57.82 120.14 59.39 119.2 61.01 120.14"/><polygon class="uuid-5b943a4b-7c33-4f84-8f5c-8b08b9a9079f" points="87.31 135.32 87.31 137.1 59.44 121.02 57.82 120.14 59.39 119.2 61.01 120.14 87.31 135.32"/><path class="uuid-5b943a4b-7c33-4f84-8f5c-8b08b9a9079f" d="M33.83,143.73l27.78-15.97-2.09,1.2,157.16,91.39-39.34,22.7L20.07,151.69l39.44-22.73c.21-2.54-.08-4.86-.05-7.42l-46.25,26.65c-.53.3-.53,1.08,0,1.41,82.22,47.74,89.91,52.19,85.29,49.5,10.72,6.23,33.49,19.46,78.42,45.56.25.13.55.15.82,0,.65-.38,48.79-28.19,45.72-26.42.53-.31.53-1.08,0-1.41L59.46,121.54"/><path class="uuid-5b943a4b-7c33-4f84-8f5c-8b08b9a9079f" d="M310.31,180.83c-.01-.76-.05-1.49-.1-2.2-.28-4.9-.96-9.01-2.02-13.48,0-.01-.01-.01-.01-.01-.04-.1-.09-.18-.18-.23l-14.62-8.45c-.11-.08-.27-.08-.39,0-.01,0-.16.1-.42.24v-5.5s0-.01,0-.01c0-.15-.09-.34-.23-.35l-36.25-20.93c-.13-.08-.28-.08-.4,0l-20.42,11.87c-.08.04-.2.22-.2.34v5.54s-.03,2.51-.03,2.51v7.42c-.15.09-1.78,1.05-1.91,1.1h0c-.11.08-.2.2-.2.34l-.06,2.2c0,.15.06.29.2.37.72.42,1.95,1.13,3.53,2.04l-.76.44s-.04.06-.06.09c-1.34.82-1.8,2.38-1.8,3.91,0,.15.08.28.2.35l.72.41c.09.05.19.05.29.04.2,2.57,1.99,5.55,4.18,6.81,1.01.6,2.24.87,3.25.29.19-.1,2.13-1.25,2.31-1.34l.63.35c.11.08.28.08.41,0l.83-.48c-.1.7-.18,1.1.13,1.27l.72.43c.09.05.18.05.28.04.09,1.1.46,2.23.99,3.26.4.77.91,1.49,1.47,2.1,1.52,1.68,3.46,2.6,4.98,1.74,0-.01.09-.09,2.3-1.34l.65.37c.13.06.28.08.39,0l5.14-3,7.75,4.47h.01c.33.2.54-.14,1.52-.66v.92c-.01.15.09.3.24.37.18.06.36.14.53.22-.63.37-2.03,1.17-2.19,1.27-.09.09-.42.28-.8.68-.42.44-.87,1.18-1.08,2.36-.05.34-.09.75-.09,1.18,0,.14.08.28.2.34l.77.46c.09.05.2.05.32.03.23,3.18,2.58,6.37,4.83,7.47,1.23.6,2.14.51,2.9.09.13-.03-.18.11,2.58-1.46l.67.39c.13.06.28.08.41,0h.01l2.53-1.48s.01.01.04.03c.18.1,1.13.66,5.1,2.95.13.08.28.06.39,0,11.7-6.8,7.98-4.64,19.61-11.4.13-.06.2-.2.2-.34.05-2.33.04-4.45-.02-6.42ZM273.15,181.03v1.23l-.91.54.03-1.27.89-.51ZM235.82,158.84l.05-16.04c.28.16,34.24,19.77,35.51,20.48l-.05,16.06-35.51-20.51ZM258.9,181.35c-.16-2.13-1.18-4.51-2.43-6.24l6.6,3.81-4.17,2.43ZM248.69,175.74c.04-3.52,3.42-3.03,5.67.15.98,1.36,1.61,3.03,1.61,4.51h0c-.04,2.24-1.47,3.12-3.46,1.96-2.1-1.23-3.82-4.19-3.82-6.62ZM247.05,173.46l-.9.53c-.16-2.14-1.19-4.5-2.43-6.23,1.79,1.03,3.69,2.12,5.64,3.24-.84.58-1.72.76-2.31,2.46ZM242.89,174.58c-.63,1.22-1.94,1.11-3.12.43-2.1-1.23-3.82-4.19-3.82-6.62.09-6.55,9.46,1.38,6.94,6.19ZM233.7,159.71l37.76,21.82-.02,1.28c-.2-.11-35.35-20.39-37.77-21.79l.04-1.32ZM290.73,194.71l18.82-10.93v3.23s-18.82,10.94-18.82,10.94c.01-2.9,0-3.24,0-3.24ZM309.55,182.87l-18.81,10.93c-.03-5.64-.82-11.51-2.09-16.96h0s.04-.04.06-.04c.48-.29,3.75-2.18,18.84-10.94,1.08,4.71,1.72,9.32,1.93,13.76.01.24.02.48.04.72.03.85.04,1.7.04,2.53ZM277.76,190.49c3.34,4.57,1.68,8.83-1.53,7.26-2.09-1.03-4.42-4.26-4.42-7.25.04-3.64,3.39-3.37,5.95-.01ZM306.8,165.36c-.82.48-4.61,2.67-18.61,10.81-1.36-.79-13.49-7.8-13.82-7.98,9.28-5.37,17.4-10.03,18.77-10.96l13.87,8.01c-.1.06-.16.1-.22.13ZM284.15,195.4c.01.05.06.09.1.13l-1.63.95c-.32-4.32-4.23-10.37-8.58-10.93l.79-.47c5.21,2.24,7.99,4.61,9.32,10.32ZM273.93,183.83c.01-2.27.05-14.19.05-14.96,11.68,6.75,13.01,7.52,13.87,8.02,2.23,9.59,2.03,14.8,2.06,21.05l-5.03-2.9c-1.51-6.26-4.91-8.77-10.96-11.21ZM291.4,151.2c-2.08,1.2-19.1,11.1-19.63,11.4-19.95-11.51-15.95-9.21-35.5-20.48l19.63-11.41,35.5,20.49Z"/><path class="uuid-5b943a4b-7c33-4f84-8f5c-8b08b9a9079f" d="M256.03,130.48l-.14-.08-20.15,11.72,36.02,20.79,3.55-2.06c5.22-3.03,14.71-8.54,16.23-9.41l.38-.23-35.89-20.72ZM275.06,160.4l-3.29,1.9-34.99-20.18,19.12-11.11,34.98,20.19c-2.33,1.36-10.94,6.36-15.82,9.2ZM242.81,166.93l.7.98c1.33,1.85,2.24,4.18,2.38,6.09l.04.42,1.34-.79.03-.09c.44-1.27,1.01-1.61,1.68-2,.18-.1.36-.2.53-.33l.33-.23-7.03-4.05ZM248.71,171.1c-.67.39-1.38.81-1.87,2.18l-.47.28c-.2-1.62-.86-3.42-1.82-5.03l4.31,2.48s-.09.05-.14.09ZM241.47,167.93c-1.27-1.43-3.14-2.66-4.48-2.18-.57.22-1.27.85-1.29,2.63,0,2.51,1.77,5.59,3.95,6.85.61.35,1.2.53,1.73.53.2,0,.39-.03.57-.08.51-.14.9-.48,1.17-.99,1.19-2.27-.14-5.07-1.65-6.78ZM241.81,175.2c-.13.04-.28.05-.42.05-.46,0-.96-.15-1.48-.47-2.04-1.18-3.7-4.05-3.7-6.38.01-.82.19-1.86.96-2.15.14-.05.29-.08.47-.08.95,0,2.28.8,3.43,2.12,1.39,1.57,2.65,4.14,1.58,6.18-.2.38-.49.62-.85.73ZM307.2,165.05l-.12-.14-.06.04-13.87-8.02-.14.09c-1.17.79-7.14,4.23-14.71,8.6l-4.45,2.57.39.23c.14.08,2.51,1.44,5.26,3.04,3.58,2.06,7.79,4.5,8.56,4.94l.13.08,18.85-10.94s.01-.01.02-.01c.03-.01.05-.04.09-.05l.38-.23-.34-.19ZM288.2,175.88c-1.03-.6-5.02-2.91-8.42-4.88-2.15-1.24-4.07-2.36-4.86-2.81l3.66-2.12c7.31-4.23,13.15-7.6,14.59-8.54l13.34,7.71-18.3,10.63ZM271.11,162.84c-2.7-1.56-17.58-10.15-26.82-15.48-4.74-2.74-8.21-4.74-8.3-4.79l-.39-.23-.04,16.49v.15l35.63,20.58.39.22.04-16.34h.01l.09-.25-.62-.35ZM271.07,178.89l-34.99-20.2.04-15.43c1.04.6,4.05,2.33,7.9,4.56l24.47,14.11c1.46.85,2.2,1.28,2.61,1.48l-.04,15.48ZM255.55,174.28l.7.98c1.32,1.84,2.23,4.18,2.38,6.11l.04.42,4.91-2.86-8.03-4.64ZM262.55,178.92l-3.43,2c-.2-1.61-.87-3.45-1.82-5.04l5.26,3.04ZM254.58,175.74c-1.39-1.95-3.32-3.03-4.67-2.61-.54.16-1.46.73-1.47,2.61,0,1.25.44,2.65,1.15,3.89.72,1.24,1.71,2.33,2.8,2.96.62.35,1.22.53,1.75.53.36,0,.67-.08.96-.24.7-.39,1.1-1.24,1.13-2.39v-.09c.01-1.47-.61-3.2-1.65-4.66ZM255.71,180.41c-.01.99-.33,1.71-.87,2.01-.53.32-1.32.22-2.19-.29-2.04-1.18-3.69-4.05-3.69-6.38.01-1.15.41-1.9,1.1-2.13,1.13-.34,2.85.67,4.1,2.42.95,1.36,1.53,2.95,1.55,4.29v.08ZM272.01,181.39l-.05,1.87,1.44-.85v-1.84s-1.39.81-1.39.81ZM272.88,182.12l-.38.22v-.65s.38-.22.38-.22v.65ZM233.83,159.5l-.37-.23-.06,1.9.14.08c1.22.71,10.65,6.16,19.79,11.43,8.77,5.07,17.85,10.3,17.97,10.37l.38.23.05-1.89-37.9-21.89ZM271.18,182.37c-1.79-1.03-9.5-5.47-17.61-10.16-8.85-5.1-17.99-10.39-19.65-11.34l.03-.72,37.24,21.52v.7ZM309.77,180.5c-.02-.73-.06-1.47-.11-2.22-.27-4.03-.87-8.21-1.85-12.49l-.08-.34-11.65,6.76c-4.74,2.76-6.6,3.84-7.25,4.22l-.2.11s-.06.04-.1.05l-.16.1.02.11s0,.09.04.13c1.32,5.75,2.03,11.56,2.05,16.86v.46l19.2-11.16.13-.08v-.15c0-.79-.01-1.57-.04-2.37ZM289.1,176.88c.23-.14.57-.33,1.05-.61l17.23-10.01c1.05,4.74,1.68,9.37,1.85,13.81.01.04.01.08.01.1.04.86.05,1.71.05,2.55l-18.29,10.63c-.06-5.17-.76-10.82-2.04-16.39l.14-.08ZM284.46,195.36s-.03-.03-.06-.05c-1.39-5.98-4.4-8.3-9.45-10.48l-.13-.05-1.57.91.76.1c4.1.53,8.03,6.32,8.36,10.7l.03.42,2.25-1.32-.19-.24ZM283.9,195.4l-1.05.65c-.58-4.97-4.66-9.66-8.08-10.63l.09-.05c4.83,2.1,7.71,4.36,9.04,10.03ZM277.96,190.34c-1.57-2.06-3.5-3.09-4.89-2.62-.57.19-1.51.8-1.53,2.79,0,1.55.61,3.15,1.48,4.51.87,1.34,2.01,2.44,3.09,2.98.49.24.97.35,1.41.35.65,0,1.22-.25,1.63-.76,1.09-1.3,1.04-4.22-1.19-7.25ZM273.24,188.21c1.17-.38,2.9.6,4.31,2.43,2.06,2.82,2.17,5.46,1.22,6.6-.56.66-1.42.76-2.42.28-2.01-1-4.28-4.13-4.28-7.02.01-1.23.43-2.04,1.18-2.29ZM290.17,196.28c-.01-5.51-.03-10.7-2.06-19.46l-.03-.11-.1-.05c-.85-.48-2.17-1.25-13.67-7.89l-.08-.05v-.15h-.27c-.13,0-.19.01-.22.3l-.04.15h.01c-.01.33-.01.89-.01,1.82l-.04,12.98v.18s.15.08.15.08c5.85,2.36,9.31,4.81,10.81,11.02l.03.11,5.52,3.18v-2.12ZM289.65,197.5l-4.53-2.62c-1.55-6.3-5.04-8.83-10.92-11.21,0-2.41.04-12.06.04-14.34,10.89,6.3,12.53,7.23,13.39,7.73,2,8.63,2.01,13.78,2.03,19.23v1.22ZM290.65,194.46s-.04.03-.05.04l-.13.06v.46h.02c-.02.47-.02,1.33-.04,2.94v.46l19.2-11.17.14-.08v-3.84l-19.15,11.13ZM309.29,186.87l-18.29,10.63v-2.63l18.29-10.63v2.63ZM290.6,194.5l-.13.06v.46h.02c-.02.47-.02,1.33-.04,2.94v.46l19.2-11.17.14-.08v-3.84l-19.15,11.13s-.04.03-.05.04ZM309.29,184.24v2.63l-18.29,10.63v-2.63l18.29-10.63ZM309.77,180.5c-.02-.73-.06-1.47-.11-2.22-.27-4.03-.87-8.21-1.85-12.49l-.08-.34-11.65,6.76c-4.74,2.76-6.6,3.84-7.25,4.22l-.2.11s-.06.04-.1.05l-.16.1.02.11s0,.09.04.13c1.32,5.75,2.03,11.56,2.05,16.86v.46l19.2-11.16.13-.08v-.15c0-.79-.01-1.57-.04-2.37ZM289.1,176.88c.23-.14.57-.33,1.05-.61l17.23-10.01c1.05,4.74,1.68,9.37,1.85,13.81.01.04.01.08.01.1.04.86.05,1.71.05,2.55l-18.29,10.63c-.06-5.17-.76-10.82-2.04-16.39l.14-.08ZM273.86,168.19l.39.23c.14.08,2.51,1.44,5.26,3.04,3.58,2.06,7.79,4.5,8.56,4.94l.13.08,18.85-10.94s.01-.01.02-.01c.03-.01.05-.04.09-.05l.38-.23-.34-.19-.12-.14-.06.04-13.87-8.02-.14.09c-1.17.79-7.14,4.23-14.71,8.6l-4.45,2.57ZM306.5,165.25l-18.3,10.63c-1.03-.6-5.02-2.91-8.42-4.88-2.15-1.24-4.07-2.36-4.86-2.81l3.66-2.12c7.31-4.23,13.15-7.6,14.59-8.54l13.34,7.71ZM275.31,160.84c5.22-3.03,14.71-8.54,16.23-9.41l.38-.23-35.89-20.72-.14-.08-20.15,11.72,36.02,20.79,3.55-2.06ZM255.9,131.01l34.98,20.19c-2.33,1.36-10.94,6.36-15.82,9.2l-3.29,1.9-34.99-20.18,19.12-11.11ZM288.11,176.83l-.03-.11-.1-.05c-.85-.48-2.17-1.25-13.67-7.89l-.08-.05v-.15h-.27c-.13,0-.19.01-.22.3l-.04.15h.01c-.01.33-.01.89-.01,1.82l-.04,12.98v.18s.15.08.15.08c5.85,2.36,9.31,4.81,10.81,11.02l.03.11,5.52,3.18v-2.12c-.02-5.51-.04-10.7-2.08-19.46ZM289.65,197.5l-4.53-2.62c-1.55-6.3-5.04-8.83-10.92-11.21,0-2.41.04-12.06.04-14.34,10.89,6.3,12.53,7.23,13.39,7.73,2,8.63,2.01,13.78,2.03,19.23v1.22ZM284.4,195.31c-1.39-5.98-4.4-8.3-9.45-10.48l-.13-.05-1.57.91.76.1c4.1.53,8.03,6.32,8.36,10.7l.03.42,2.25-1.32-.19-.24s-.03-.03-.06-.05ZM283.9,195.4l-1.05.65c-.58-4.97-4.66-9.66-8.08-10.63l.09-.05c4.83,2.1,7.71,4.36,9.04,10.03ZM273.07,187.72c-.57.19-1.51.8-1.53,2.79,0,1.55.61,3.15,1.48,4.51.87,1.34,2.01,2.44,3.09,2.98.49.24.97.35,1.41.35.65,0,1.22-.25,1.63-.76,1.09-1.3,1.04-4.22-1.19-7.25-1.57-2.06-3.5-3.09-4.89-2.62ZM278.76,197.24c-.56.66-1.42.76-2.42.28-2.01-1-4.28-4.13-4.28-7.02.01-1.23.43-2.04,1.18-2.29,1.17-.38,2.9.6,4.31,2.43,2.06,2.82,2.17,5.46,1.22,6.6ZM273.4,182.41v-1.84s-1.39.81-1.39.81l-.05,1.87,1.44-.85ZM272.51,181.69l.37-.22v.65l-.38.22v-.65ZM271.59,179.79l.04-16.34h.01l.09-.25-.62-.35c-2.7-1.56-17.58-10.15-26.82-15.48-4.74-2.74-8.21-4.74-8.3-4.79l-.39-.23-.04,16.49v.15l35.63,20.58.39.22ZM236.12,143.26c1.04.6,4.05,2.33,7.9,4.56l24.47,14.11c1.46.85,2.2,1.28,2.61,1.48l-.04,15.48-34.99-20.2.04-15.43ZM271.73,181.39l-37.9-21.89-.37-.23-.06,1.9.14.08c1.22.71,10.65,6.16,19.79,11.43,8.77,5.07,17.85,10.3,17.97,10.37l.38.23.05-1.89ZM271.18,182.37c-1.79-1.03-9.5-5.47-17.61-10.16-8.85-5.1-17.99-10.39-19.65-11.34l.03-.72,37.24,21.52v.7ZM256.25,175.25c1.32,1.84,2.23,4.18,2.38,6.11l.04.42,4.91-2.86-8.03-4.64.7.98ZM262.55,178.92l-3.43,2c-.2-1.61-.87-3.45-1.82-5.04l5.26,3.04ZM249.9,173.13c-.54.16-1.46.73-1.47,2.61,0,1.25.44,2.65,1.15,3.89.72,1.24,1.71,2.33,2.8,2.96.62.35,1.22.53,1.75.53.36,0,.67-.08.96-.24.7-.39,1.1-1.24,1.13-2.39v-.09c.01-1.47-.61-3.2-1.65-4.66-1.39-1.95-3.32-3.03-4.67-2.61ZM255.71,180.41c-.01.99-.33,1.71-.87,2.01-.53.32-1.32.22-2.19-.29-2.04-1.18-3.69-4.05-3.69-6.38.01-1.15.41-1.9,1.1-2.13,1.13-.34,2.85.67,4.1,2.42.95,1.36,1.53,2.95,1.55,4.29v.08ZM249.51,171.21l.33-.23-7.03-4.05.7.98c1.33,1.85,2.24,4.18,2.38,6.09l.04.42,1.34-.79.03-.09c.44-1.27,1.01-1.61,1.68-2,.18-.1.36-.2.53-.33ZM246.37,173.56c-.2-1.62-.86-3.42-1.82-5.03l4.31,2.48s-.09.05-.14.09c-.67.39-1.38.81-1.87,2.18l-.47.28ZM236.98,165.75c-.57.22-1.27.85-1.29,2.63,0,2.51,1.77,5.59,3.95,6.85.61.35,1.2.53,1.73.53.2,0,.39-.03.57-.08.51-.14.9-.48,1.17-.99,1.19-2.27-.14-5.07-1.65-6.78-1.27-1.43-3.14-2.66-4.48-2.18ZM241.81,175.2c-.13.04-.28.05-.42.05-.46,0-.96-.15-1.48-.47-2.04-1.18-3.7-4.05-3.7-6.38.01-.82.19-1.86.96-2.15.14-.05.29-.08.47-.08.95,0,2.28.8,3.43,2.12,1.39,1.57,2.65,4.14,1.58,6.18-.2.38-.49.62-.85.73ZM310.58,180.99c-.03-.76-.05-1.49-.1-2.22-.25-4.7-.9-8.89-2.03-13.69l-.05-.1h0c-.05-.14-.14-.24-.25-.3l-14.63-8.45c-.2-.11-.44-.11-.68.01v-5.04s.01-.06.01-.06c-.03-.24-.17-.49-.41-.56l-36.21-20.9c-.2-.11-.46-.11-.66,0l-20.42,11.87c-.16.09-.33.34-.33.57v5.67s-.02,2.51-.02,2.51v7.13c-.27.15-.81.47-1.23.71l-.56.33h-.01s-.01.01-.03.01l-.2.11.03.05c-.08.11-.11.24-.13.37l-.06,2.22c0,.24.13.47.33.58l3.15,1.84-.37.2c-.06.04-.1.09-.13.13-1.53.98-1.86,2.77-1.88,4.1,0,.24.13.46.33.58l.73.41c.06.04.12.05.18.06.3,2.65,2.12,5.54,4.28,6.79,1.27.73,2.56.85,3.53.29.09-.05.61-.35,1.13-.66.42-.25.82-.49,1.04-.61l.49.28c.22.13.48.13.68,0l.37-.22c-.05.47-.01.8.32,1l.73.43c.05.03.11.05.16.06.13,1,.47,2.05.96,3.03.39.77.87,1.49,1.42,2.12.66.75,1.39,1.37,2.17,1.77,1.19.63,2.32.68,3.29.13l.02-.03c.1-.06.51-.32,2.12-1.22l.52.29c.2.11.46.11.66,0l5-2.93,7.63,4.4.06.04h.01c.32.15.6-.03.95-.25.1-.06.23-.14.37-.23v.48c0,.27.16.51.42.61,0,0,.01.01.03.01l-.33.19c-.62.35-1.29.75-1.41.82l-.05.04s-.06.05-.13.09c-.19.15-.49.37-.81.73-.41.49-.84,1.24-1.01,2.42-.06.34-.09.73-.09,1.15,0,.24.13.46.33.57l.77.44c.06.04.14.06.22.08.34,3.28,2.8,6.38,4.95,7.44,1.15.57,2.17.6,3.1.11.08-.01.11-.04.54-.29.33-.19.91-.53,1.95-1.11l.56.32c.18.1.39.11.58.03l2.48-1.43.18.1c.15.09.33.19.56.33l4.27,2.47c.1.05.22.09.34.09.11,0,.23-.04.33-.09l19.6-11.4c.22-.11.33-.33.33-.56.05-2.24.05-4.32-.01-6.27ZM310.07,187.25c0,.05-.02.1-.06.13l-19.61,11.39s-.09.03-.14,0c-3.83-2.2-4.85-2.8-5.08-2.94h-.01s-.01-.01-.02-.01c0-.01-.01-.01-.03-.01l-.13-.08-.09.05s-.06.03-.08.04l-2.45,1.42h-.1s-.02.05-.02.05c-.03,0-.05,0-.08-.01l-.81-.47-.14.08c-1.12.63-1.72,1-2.08,1.19-.28.16-.37.22-.42.24l-.08.03c-.79.43-1.63.41-2.66-.1-2.08-1.01-4.46-4.08-4.69-7.26l-.03-.32-.3.09s-.08.03-.11,0l-.77-.46c-.05-.03-.08-.06-.08-.11,0-.46.04-.86.11-1.22.08-.42.18-.77.3-1.08h.01c.41-.94.99-1.37,1.28-1.58.06-.05.11-.1.16-.14.16-.09.79-.46,1.37-.79l1.23-.72-.47-.2c-.18-.08-.36-.15-.53-.22-.05-.03-.09-.08-.09-.13v-1.36l-.38.2c-.34.18-.59.34-.79.47-.37.23-.42.24-.48.19l-7.89-4.55-5.27,3.08s-.1.03-.14,0l-.77-.43-.13.06c-1.44.81-2.06,1.17-2.31,1.36h-.01c-.97.54-2.03.22-2.75-.16-2.19-1.15-4.07-4.12-4.28-6.74l-.03-.3-.3.06c-.05.01-.08,0-.08,0l-.73-.43c-.11-.06-.09-.37-.01-.86l.09-.66-1.29.75c-.05.03-.11.01-.15-.01l-.76-.43-.13.08c-.09.05-.63.37-1.18.68-.52.3-1.04.61-1.13.66-1.15.66-2.48.01-3-.28-2.08-1.2-3.85-4.12-4.05-6.62l-.02-.3-.29.08s-.06.01-.09,0l-.73-.42c-.05-.03-.08-.08-.08-.13.01-1.22.3-2.85,1.72-3.72.02-.03.05-.05.06-.08l1.1-.65-3.93-2.27s-.08-.08-.08-.13l.08-2.22s.03-.09.05-.1h0s.01-.01.01-.03c.13-.05.3-.15.57-.3.52-.32,1.24-.73,1.33-.79l.14-.08v-7.73s.03-2.51.03-2.51v-5.38s.06-.1.08-.13l20.42-11.86c.05-.03.1-.03.14,0l36.25,20.93h.08s.04.09.04.13v5.97s.38-.23.38-.23c.19-.1.33-.19.42-.24.05-.03.1-.03.14,0l14.62,8.45s.04.05.05.08l.03.05c1.08,4.62,1.71,8.69,1.99,13.2.05.72.08,1.46.11,2.2.06,2.05.06,4.22.01,6.59ZM290.6,194.5l-.13.06v.46h.02c-.02.47-.02,1.33-.04,2.94v.46l19.2-11.17.14-.08v-3.84l-19.15,11.13s-.04.03-.05.04ZM309.29,184.24v2.63l-18.29,10.63v-2.63l18.29-10.63ZM309.65,178.28c-.27-4.03-.87-8.21-1.85-12.49l-.08-.34-11.65,6.76c-4.74,2.76-6.6,3.84-7.25,4.22l-.2.11s-.06.04-.1.05l-.16.1.02.11s0,.09.04.13c1.32,5.75,2.03,11.56,2.05,16.86v.46l19.2-11.16.13-.08v-.15c0-.79-.01-1.57-.04-2.37-.02-.73-.06-1.47-.11-2.22ZM289.1,176.88c.23-.14.57-.33,1.05-.61l17.23-10.01c1.05,4.74,1.68,9.37,1.85,13.81.01.04.01.08.01.1.04.86.05,1.71.05,2.55l-18.29,10.63c-.06-5.17-.76-10.82-2.04-16.39l.14-.08ZM273.86,168.19l.39.23c.14.08,2.51,1.44,5.26,3.04,3.58,2.06,7.79,4.5,8.56,4.94l.13.08,18.85-10.94s.01-.01.02-.01c.03-.01.05-.04.09-.05l.38-.23-.34-.19-.12-.14-.06.04-13.87-8.02-.14.09c-1.17.79-7.14,4.23-14.71,8.6l-4.45,2.57ZM306.5,165.25l-18.3,10.63c-1.03-.6-5.02-2.91-8.42-4.88-2.15-1.24-4.07-2.36-4.86-2.81l3.66-2.12c7.31-4.23,13.15-7.6,14.59-8.54l13.34,7.71ZM291.54,151.43l.38-.23-35.89-20.72-.14-.08-20.15,11.72,36.02,20.79,3.55-2.06c5.22-3.03,14.71-8.54,16.23-9.41ZM255.9,131.01l34.98,20.19c-2.33,1.36-10.94,6.36-15.82,9.2l-3.29,1.9-34.99-20.18,19.12-11.11ZM288.11,176.83l-.03-.11-.1-.05c-.85-.48-2.17-1.25-13.67-7.89l-.08-.05v-.15h-.27c-.13,0-.19.01-.22.3l-.04.15h.01c-.01.33-.01.89-.01,1.82l-.04,12.98v.18s.15.08.15.08c5.85,2.36,9.31,4.81,10.81,11.02l.03.11,5.52,3.18v-2.12c-.02-5.51-.04-10.7-2.08-19.46ZM289.65,197.5l-4.53-2.62c-1.55-6.3-5.04-8.83-10.92-11.21,0-2.41.04-12.06.04-14.34,10.89,6.3,12.53,7.23,13.39,7.73,2,8.63,2.01,13.78,2.03,19.23v1.22ZM284.4,195.31c-1.39-5.98-4.4-8.3-9.45-10.48l-.13-.05-1.57.91.76.1c4.1.53,8.03,6.32,8.36,10.7l.03.42,2.25-1.32-.19-.24s-.03-.03-.06-.05ZM283.9,195.4l-1.05.65c-.58-4.97-4.66-9.66-8.08-10.63l.09-.05c4.83,2.1,7.71,4.36,9.04,10.03ZM273.07,187.72c-.57.19-1.51.8-1.53,2.79,0,1.55.61,3.15,1.48,4.51.87,1.34,2.01,2.44,3.09,2.98.49.24.97.35,1.41.35.65,0,1.22-.25,1.63-.76,1.09-1.3,1.04-4.22-1.19-7.25-1.57-2.06-3.5-3.09-4.89-2.62ZM278.76,197.24c-.56.66-1.42.76-2.42.28-2.01-1-4.28-4.13-4.28-7.02.01-1.23.43-2.04,1.18-2.29,1.17-.38,2.9.6,4.31,2.43,2.06,2.82,2.17,5.46,1.22,6.6ZM271.96,183.26l1.44-.85v-1.84s-1.39.81-1.39.81l-.05,1.87ZM272.51,181.69l.37-.22v.65l-.38.22v-.65ZM244.29,147.36c-4.74-2.74-8.21-4.74-8.3-4.79l-.39-.23-.04,16.49v.15l35.63,20.58.39.22.04-16.34h.01l.09-.25-.62-.35c-2.7-1.56-17.58-10.15-26.82-15.48ZM271.07,178.89l-34.99-20.2.04-15.43c1.04.6,4.05,2.33,7.9,4.56l24.47,14.11c1.46.85,2.2,1.28,2.61,1.48l-.04,15.48ZM233.46,159.27l-.06,1.9.14.08c1.22.71,10.65,6.16,19.79,11.43,8.77,5.07,17.85,10.3,17.97,10.37l.38.23.05-1.89-37.9-21.89-.37-.23ZM271.18,182.37c-1.79-1.03-9.5-5.47-17.61-10.16-8.85-5.1-17.99-10.39-19.65-11.34l.03-.72,37.24,21.52v.7ZM256.25,175.25c1.32,1.84,2.23,4.18,2.38,6.11l.04.42,4.91-2.86-8.03-4.64.7.98ZM262.55,178.92l-3.43,2c-.2-1.61-.87-3.45-1.82-5.04l5.26,3.04ZM249.9,173.13c-.54.16-1.46.73-1.47,2.61,0,1.25.44,2.65,1.15,3.89.72,1.24,1.71,2.33,2.8,2.96.62.35,1.22.53,1.75.53.36,0,.67-.08.96-.24.7-.39,1.1-1.24,1.13-2.39v-.09c.01-1.47-.61-3.2-1.65-4.66-1.39-1.95-3.32-3.03-4.67-2.61ZM255.71,180.41c-.01.99-.33,1.71-.87,2.01-.53.32-1.32.22-2.19-.29-2.04-1.18-3.69-4.05-3.69-6.38.01-1.15.41-1.9,1.1-2.13,1.13-.34,2.85.67,4.1,2.42.95,1.36,1.53,2.95,1.55,4.29v.08ZM249.51,171.21l.33-.23-7.03-4.05.7.98c1.33,1.85,2.24,4.18,2.38,6.09l.04.42,1.34-.79.03-.09c.44-1.27,1.01-1.61,1.68-2,.18-.1.36-.2.53-.33ZM246.37,173.56c-.2-1.62-.86-3.42-1.82-5.03l4.31,2.48s-.09.05-.14.09c-.67.39-1.38.81-1.87,2.18l-.47.28ZM236.98,165.75c-.57.22-1.27.85-1.29,2.63,0,2.51,1.77,5.59,3.95,6.85.61.35,1.2.53,1.73.53.2,0,.39-.03.57-.08.51-.14.9-.48,1.17-.99,1.19-2.27-.14-5.07-1.65-6.78-1.27-1.43-3.14-2.66-4.48-2.18ZM241.81,175.2c-.13.04-.28.05-.42.05-.46,0-.96-.15-1.48-.47-2.04-1.18-3.7-4.05-3.7-6.38.01-.82.19-1.86.96-2.15.14-.05.29-.08.47-.08.95,0,2.28.8,3.43,2.12,1.39,1.57,2.65,4.14,1.58,6.18-.2.38-.49.62-.85.73Z"/><path class="uuid-5b943a4b-7c33-4f84-8f5c-8b08b9a9079f" d="M347.65,162.03c-1.24.03-2-.77-2.95.67-.05.08-.1.15-.13.16-.05.05-.22.15-.32.15h-.08c-.7-1.11-2.17-1.51-3.05-1.22-1.24.3-1.52.54-2.17.57.13-.1.28-.22.41-.37.75-.85,1.27-5.57,1.42-16.37l-.72-.43c-.03,2.69-.13,5.97-.33,8.92-11.5,6.79-11.35,6.38-11.35,6.84s-.57-.2,15.1,8.93c.05.03.13.05.2.05s.15-.03.19-.05c15.43-9.06,14.98-8.51,14.98-8.93,0-.46.24,0-12.02-7.18l.02-4.55-.79-.47c0,2.6,0,6.04-.04,10.42-.05,1.37.65,2.19,1.61,2.84ZM346.87,154.73l10.84,6.27-14,8.14-14.11-8.14,10.08-5.85c-.22,3.28-.54,5.93-.94,6.41-.38.42-.87.57-.72,1.14.27,1.06,2.2.18,3.29-.1h.01c.65-.23,1.71.08,2.2.96.39.57,1.37.23,1.79-.39l.08-.1c.52-.77.8-.37,1.74-.27.65.08,1.34.08,1.5-.53.24-1.06-1.86-.91-1.79-3.05l.02-4.48Z"/><path class="uuid-5b943a4b-7c33-4f84-8f5c-8b08b9a9079f" d="M340.05,146.03s.73-.35.73-.4c0-.8.04-3.76.04-4.62.25.05.53.08.8.08s-.1.13.9-.08c.1-.03.19,0,.32-.03.7.51.82.67,2.22.87.14.03.22.03.24.03.03,0,.05-.05.08-.05.13-.03.2-.08.28-.15.03-.03.08-.03.11-.05.22-.32.94-1.34,1.08-1.51,0,.01-.01.03-.03.05.15.03.32.03.47.05.1,0,.2.03.3.05l-1.37,2.2c-.11.19-.14,1.49-.14,4.07v2.22l.78.75.06-2.49.03-4.23,1.57-2.58c1.51-.15,2.9-.9,3.88-2.09,7.84,1.44,12.02-8.54,5.69-13.11.84-2.03.37-4.12-1-5.61l-.16-.19c-1.29-1.29-3.36-1.65-3.93-1.47-.13,0-.25,0-.33.05-.22.03-.42.05-.62.1-1.37-5.99-9.8-6.83-12.13-1.19-1-1.29-2.51-2.06-4.18-2.06-3.91,0-6.38,4.19-4.61,7.6-3.65.03-5.69,3.65-4.6,6.45.02.41.7,1.7,1.94,2.46-.38.67-.67,2.04-.52,2.58,0,.28.05.54.1.75v.13c.22.85.68,1.55,1.27,2.14-1.01-.58-1.99-1.14-2.94-1.7l5.29,3.15s.06,0,.1,0l-.22-.13c.28.08.5.13.71.16.15.01.31.02.45.05.27,0,.56-.02.99-.11,1.22,1.24,2.85,1.76,4.52,1.61.47.43,1.04.75,1.58.92l.23.52c.03.39.03.47.05,1.76M338.65,139.1c-.18-.16-.3-.06-.95-.06-2.65.06-3.39-1.8-3.91-1.67l-.1.03c-4,.75-6.16-3.42-4.37-6.11.14-.23.05-.47-.15-.57-.8-.41-1.5-1.14-1.86-2.06,0-.18-.3-.62-.3-1.56.08-.95.25-1.62.87-2.39,1.01-1.41,2.84-1.86,3.9-1.56.39.1.65-.33.42-.62-2.13-2.93-.02-7.06,3.55-7.06,1.65,0,3.15.9,3.93,2.36.18.33.65.25.75-.06,1.52-5.76,10.03-5.19,10.96.73.04.25.24.41.52.33.89-.35,1.32-.18,1.43-.28,3.09,0,5.47,3.36,3.93,6.43-.29.57.54.52,1.68,1.96,3.66,4.52-.06,11.69-6.63,10.37-.15-.03-.3.03-.39.15-1.34,1.76-3.53,2.31-5.19,1.89-.02,0-.02.03-.02,0-.03,0-.05.03-.08.03-.13,0-.23.03-.29.1-.25.34-.98,1.34-1.15,1.58-.39-.09-.86-.03-1.61-.54-.03-.03-.2-.13-.23-.13s-.02-.03-.05-.03l-.06-.06s-.08,0-.1-.03c-.05-.03-.1-.1-.18-.1-.67.08-1.58.34-2.69-.13-.59-.18-1.17-.49-1.61-.95Z"/><path class="uuid-5b943a4b-7c33-4f84-8f5c-8b08b9a9079f" d="M298.44,119.46v-.38l.05-5.57,1.56-2.58c1.52-.15,2.9-.9,3.88-2.09,7.89,1.44,12-8.54,5.69-13.11.16-.39.32-.89.42-1.42-.08-.39.33-2.28-1.42-4.19l-.16-.2c-1.29-1.29-3.38-1.63-3.93-1.46-.13,0-.25,0-.33.05-.22.03-.42.05-.62.09-1.38-6.16-9.86-6.73-12.13-1.17-1-1.29-2.51-2.05-4.18-2.05-3.91,0-6.37,4.19-4.61,7.59h-.08c-3.43,0-5.66,3.58-4.52,6.46.03.41.7,1.68,1.94,2.46-.37.67-.67,2.04-.52,2.58,0,.28.05.54.1.75v.13c.59,2.33,2.9,4.04,5.66,3.5,1.22,1.24,2.83,1.76,4.48,1.62.48.42,1.05.73,1.62.91l.23.52c.04.81.04,1.93.04,3.24v1.68s-.01.23-.01.23c-.05,2.46-.15,5.31-.3,7.87l-11.15,6.49c-.13.08-.2.19-.2.34s.08.28.2.35l14.9,8.61c.05.03.13.05.2.05s.15-.03.2-.05l14.77-8.61c.13-.08.2-.2.2-.35s-.08-.27-.2-.34l-11.82-6.85.02-3.1.03-1.98ZM290.12,109.83c-.23-.22-2.66.43-4.47-1.61-.1-.1-.29-.13-.44-.13-4.24.85-6.08-3.52-4.37-6.05.05-.1.08-.23.05-.33-.13-.39-1.39-.59-2.06-2.31,0-.18-.29-.62-.29-1.57v-.14c0-2.32,2.67-4.37,4.74-3.8.39.1.65-.33.42-.62-2.13-2.94-.02-7.06,3.56-7.06,1.63,0,3.15.9,3.91,2.36.18.33.65.25.75-.08,1.52-5.76,10.03-5.18,10.96.75.1.67.84.08,1.74.08.1,0,.15.03.23-.05,3.05,0,5.46,3.33,3.91,6.43-.08.15-.05.42.15.54,1.71,1.11,2.98,3.1,2.98,5.48,0,3.85-3.45,7.26-8.07,6.31-.15-.03-.29.03-.39.15-1.11,1.48-2.89,2.31-5.24,1.89-.02,0-.05.03-.08.03-.11,0-.22.03-.29.1v.03c-.23.32-.96,1.32-1.14,1.56-.41-.1-.9-.03-1.62-.54-.05-.03-.1-.05-.13-.08-.03-.03-.04-.03-.09-.05t-.13-.1s-.08,0-.1-.03c-.05-.03-.1-.09-.18-.09-.02,0-.08,0-.1.01-1.56.43-3.29-.19-4.19-1.09ZM309.22,131.76l-14.01,8.14-14.11-8.14,10.08-5.85c-.22,3.27-.54,5.93-.94,6.4-.38.46-.87.57-.72,1.15.1.24,1.47.52,2.2.24,1.1-.37,1.89-.67,2.84.03.49.38.65,1.14,1.29.87.54-.08.77-.33.99-.65,0,0,.05-.1.08-.1.23-.35.52-.47.75-.47,2.83.76,2.74-.75,2.14-1.13-.65-.44-1.52-.91-1.47-2.28l.02-4.5,10.86,6.28ZM297.65,120.52c0,2.31-.01,5.35-.08,9.42-.05,1.37.65,2.22,1.62,2.84-.46,0-.77-.05-1.37-.2-.62-.08-1.17.25-1.6.87-.05.06-.1.14-.13.16-.04.05-.22.15-.32.15h-.08c-.7-1.11-2.13-1.52-3.05-1.22-1.22.3-1.52.54-2.17.57.13-.1.28-.25.41-.37.73-.84,1.25-5.26,1.41-15.31.01-.61.01-1.24.03-1.9.01-1.18.02-2.44.02-3.77.41.08,1.15.15,1.99-.05.65.52,1.34.8,2.19.85h.05c.05,0,.13.03.22.03.03,0,.05-.05.1-.05.13-.03.2-.08.28-.15.02-.03.08-.03.13-.05.19-.29.84-1.19,1.04-1.46.15.03.32.03.47.05.1,0,.2.01.3.04-1.58,2.77-1.51.94-1.47,7.64v1.91Z"/></g></svg>