<?xml version="1.0" encoding="UTF-8"?><svg id="uuid-a03015a0-14df-49e2-8534-029b195dcd7b" xmlns="http://www.w3.org/2000/svg" viewBox="0 0 70.37 84.67"><defs><style>.uuid-342f480c-229f-45a6-a46d-d2c25b9fd3fd{fill:#1b45b3;}</style></defs><g id="uuid-789a1780-b708-491b-8593-511713488876"><path class="uuid-342f480c-229f-45a6-a46d-d2c25b9fd3fd" d="M21.48,84.67c10.34,0,21.47-3.86,21.47-12.34,0-.18-.03-28.94-.06-29.26-.32-7.07-3.08-13.77-7.9-18.98-1.49-1.61-2.31-3.76-2.31-6.06v-4.66s0,0,0,0c-.01-1.87-1.23-3.6-3.43-4.87-4.3-2.48-11.27-2.48-15.54,0-2.18,1.27-3.38,2.99-3.38,4.85,0,0,0,0,0,.01l-.03,4.67c0,2.29-.83,4.43-2.31,6.03C2.72,29.75.04,37.54.01,43.06H.01c-.03,15.41,0,20.26,0,29.27,0,9.05,12.35,12.34,21.47,12.34ZM41.63,61.46c-.03,10.97-25.57,15.75-36.89,6.26v-16.64c.53.39,1.1.77,1.72,1.12,8.32,4.81,21.83,4.81,30.1,0,2.28-1.32,3.99-2.91,5.06-4.66l.02,13.91ZM21.48,83.37c-9.72,0-20.17-3.46-20.17-11.04v-6.53c6.88,11.12,33.68,10.99,40.34-.03v6.56c0,7.59-10.46,11.04-20.17,11.04ZM14.36,9.62c3.92-2.28,10.31-2.27,14.23,0,3.69,2.13,3.71,5.36.04,7.5-3.91,2.27-10.29,2.27-14.23,0-3.69-2.13-3.72-5.36-.05-7.49ZM8.94,24.96c1.71-1.84,2.65-4.3,2.66-6.91v-1.53c.56.64,1.28,1.22,2.16,1.73,4.29,2.48,11.26,2.48,15.54,0,.85-.49,1.54-1.06,2.08-1.67v1.45c0,2.63.94,5.1,2.66,6.95,4.64,5.01,7.28,11.45,7.56,18.25-.05,2.96-2.06,5.75-5.7,7.86-7.91,4.6-20.83,4.6-28.79,0-2.91-1.68-5.54-4.22-5.75-7.57.22-6.91,2.88-13.47,7.59-18.55Z"/><path class="uuid-342f480c-229f-45a6-a46d-d2c25b9fd3fd" d="M36.04,60.9c-.13-.02-.13-.23,0-.4l2.09-2.78c.13-.17.16-.38.07-.48l-.69-.8c-.05-.06-.14-.06-.23-.01-.05.03-.1.07-.15.13l-1.79,2.38s-.08.08-.11.1c-.11.06-.21.02-.21-.11v-2.46c0-.17-.13-.24-.28-.15l-1.24.71c-.15.09-.27.29-.27.47v2.46c0,.14-.09.29-.2.35-.04.02-.08.03-.11.03l-1.79-.32s-.1,0-.15.03c-.09.05-.18.15-.23.28l-.68,1.59c-.08.19-.05.37.08.39l2.1.37c.13.02.13.23,0,.4l-2.09,2.77c-.13.17-.16.39-.07.48l.69.8c.05.06.14.06.23,0,.05-.03.11-.08.15-.14l1.79-2.38s.08-.08.11-.1c.11-.06.21-.02.21.11v2.46c0,.17.13.24.28.15l1.24-.71c.15-.09.27-.29.27-.47v-2.46c0-.14.09-.29.2-.35.04-.02.08-.03.11-.03l1.79.31s.1,0,.15-.04c.09-.05.17-.15.22-.27l.68-1.59c.08-.19.05-.37-.08-.4l-2.1-.36Z"/><path class="uuid-342f480c-229f-45a6-a46d-d2c25b9fd3fd" d="M66.59,17.43c-.48-.28-1.01-.51-1.55-.72V7.04c0-3.88-3.16-7.04-7.04-7.04s-7.04,3.16-7.04,7.04v9.64c-.56.22-1.1.46-1.6.75-2.39,1.39-3.71,3.28-3.73,5.31,0,0,0,0,0,.01l-.07,8.7c0,2.07,1.34,3.99,3.79,5.4.92.53,1.96.92,3.06,1.25v15.78c0,1.32.54,2.63,1.56,3.56.73.67,1.14,1.62,1.14,2.61v1.66c0,1.58,1.28,2.86,2.86,2.86s2.86-1.28,2.86-2.86v-1.66c0-.96.4-1.92,1.14-2.6.99-.91,1.56-2.21,1.56-3.56v-15.78c3.29-.98,6.76-3.17,6.77-6.58,0-.18.07-8.62.07-8.7h0s0,0,0,0c0,0,0,0,0-.01,0-2.06-1.35-3.97-3.78-5.38ZM52.27,7.04c0-3.16,2.57-5.74,5.74-5.74s5.74,2.57,5.74,5.74v14.73c0,.75-.54,1.48-1.53,2.05-2.3,1.34-6.06,1.35-8.39,0-1-.59-1.56-1.31-1.56-2.05V7.04ZM50.02,18.56c.29-.17.63-.3.94-.45v3.66c0,1.22.78,2.34,2.21,3.17,2.73,1.58,6.99,1.58,9.7,0,1.4-.81,2.17-1.94,2.17-3.17v-3.64c.3.14.62.27.9.43,4.16,2.4,4.17,6.08.05,8.47-4.38,2.54-11.52,2.54-15.92,0-1.62-.94-3.14-2.42-3.13-4.26,0-1.56,1.09-3.06,3.08-4.21ZM62.23,53.88c0,.99-.42,1.94-1.14,2.61-1,.92-1.56,2.21-1.56,3.56v1.66c0,.86-.7,1.56-1.56,1.56s-1.56-.7-1.56-1.56v-1.66c0-1.35-.57-2.65-1.56-3.56-.74-.68-1.14-1.64-1.14-2.61v-15.42c2.85.61,5.68.61,8.52,0v15.42ZM50,35.72c-2.03-1.17-3.14-2.68-3.13-4.26l.04-5.36c.54.66,1.44,1.44,2.51,2.06,4.27,2.47,11.54,2.96,16.75.22v7.18c-4.38,2.73-11.72,2.73-16.17.16Z"/><path class="uuid-342f480c-229f-45a6-a46d-d2c25b9fd3fd" d="M57.96,79.91c2.58,0,4.68-2.1,4.68-4.68,0-1.63-1.76-4.51-3.23-6.64-.7-1.01-2.19-1.01-2.89,0-1.47,2.13-3.22,5.01-3.22,6.64,0,2.58,2.09,4.68,4.66,4.68ZM57.59,69.33c.18-.26.56-.27.75,0,1.88,2.71,3,4.92,3,5.9,0,1.86-1.51,3.37-3.37,3.37s-3.36-1.51-3.36-3.37c0-.98,1.12-3.19,2.99-5.9Z"/><path class="uuid-342f480c-229f-45a6-a46d-d2c25b9fd3fd" d="M16.02,15.92c2.98,1.72,7.99,1.75,11,0,2.6-1.51,2.58-3.59-.03-5.11-3.01-1.74-8.01-1.74-11,0-2.59,1.51-2.58,3.59.04,5.1ZM26.53,15.08c-1.17.68-2.8,1.1-4.56,1.16v-5.74c1.72.07,3.35.48,4.53,1.16,1.94,1.12,1.98,2.28.03,3.42ZM16.48,11.66c1.17-.68,2.79-1.1,4.51-1.16v5.74c-1.7-.07-3.31-.49-4.48-1.16-1.86-1.08-2.06-2.24-.03-3.41Z"/></g></svg>