<?xml version="1.0" encoding="UTF-8"?>
<svg id="Layer_1" data-name="Layer 1" xmlns="http://www.w3.org/2000/svg" xmlns:xlink="http://www.w3.org/1999/xlink" viewBox="0 0 94.2371 28.1382">
  <a xlink:href="72.9035294117647">
    <path id="fullLogo" d="M44.9279,6.3806v5.4153h-2.0916v-4.702c0-.9437-.765-1.7087-1.7091-1.7087h-.0653c-.9437,0-1.7091.765-1.7091,1.7087v4.702h-2.0862v-4.702c0-.9437-.7655-1.7087-1.7091-1.7087h-.0653c-.9441,0-1.7091.765-1.7091,1.7087v.1595c-.0023.0137-.0041.0274-.0055.0411v4.5013h-2.1478V3.7073h2.1478v.6398c1.4295-1.2873,3.921-1.163,5.0497.4565,1.4939-1.8389,4.7463-1.8389,5.7887.4725.111.2463.3121.8509.3121,1.1045Z" style="fill: #fff;"/>
  </a>
  <path id="fullLogo-2" data-name="fullLogo" d="M74.7693.1429v11.6532h-2.1478v-.6398c-2.6378,2.0229-6.4178.3397-6.6286-2.9911-.2397-3.7881,3.4993-6.0291,6.6286-3.8181V.1429h2.1478ZM69.9609,5.3653c-2.5636.3091-2.5543,4.5455.0794,4.7849,3.4642.3149,3.38-5.2019-.0794-4.7849Z" style="fill: #fff;"/>
  <path id="fullLogo-3" data-name="fullLogo" d="M33.7774,24.8022v3.336h-2.1478v-10.8306h2.1478v.6398c2.4574-1.845,5.8388-.6351,6.5125,2.3759.8044,3.595-2.6554,6.5972-6.0107,4.7769-.1706-.0926-.2908-.1598-.5018-.2979ZM35.7313,18.9644c-2.6257.3317-2.5968,4.5426.0804,4.7859,3.4247.3113,3.3159-5.2149-.0804-4.7859Z" style="fill: #fff;"/>
  <path id="fullLogo-4" data-name="fullLogo" d="M87.6564,4.3472v-.6398h2.1478v8.0887h-2.1478v-.6398c-2.6378,2.0228-6.4178.3398-6.6286-2.9911-.2397-3.788,3.4993-6.0291,6.6286-3.8181ZM84.9958,5.3653c-2.5636.3091-2.5543,4.5455.0794,4.7849,3.4642.3149,3.38-5.2019-.0794-4.7849Z" style="fill: #fff;"/>
  <path id="fullLogo-5" data-name="fullLogo" d="M48.5866,17.9473v-.6398h2.1478v8.0887h-2.1478v-.6398c-2.6378,2.0228-6.4178.3398-6.6286-2.9911-.2397-3.788,3.4993-6.0291,6.6286-3.8181ZM45.926,18.9655c-2.5636.3091-2.5543,4.5455.0794,4.7849,3.4642.3149,3.38-5.2019-.0794-4.7849Z" style="fill: #fff;"/>
  <path id="fullLogo-6" data-name="fullLogo" d="M50.3112,3.5383c5.9384-.4867,6.4563,8.0953.7627,8.4859-5.8639.4023-6.4464-8.0201-.7627-8.4859ZM50.493,5.3652c-3.0325.3344-2.5947,5.0536.3981,4.8305,3.0571-.2279,2.6625-5.168-.3981-4.8305Z" style="fill: #fff;"/>
  <a xlink:href="72.9035294117647">
    <path id="fullLogo-7" data-name="fullLogo" d="M64.5007,6.3806v5.4153h-2.0231v-4.7513c0-1.0314-.8363-1.8673-1.8677-1.8673s-1.8673.8358-1.8673,1.8673v4.7513h-2.1478V3.7073h2.1478v.6855l.5877-.3957c.1878-.127.3912-.2294.606-.303,1.6328-.5594,3.57-.0548,4.2792,1.6465.0864.2066.2852.6705.2852,1.0401Z" style="fill: #fff;"/>
  </a>
  <a xlink:href="72.9035294117647">
    <path id="fullLogo-8" data-name="fullLogo" d="M58.6867,20.6439c-.2971-1.2959-1.4588-1.8603-2.7172-1.5059-2.0666.5821-2.0622,3.926.0741,4.445,1.2177.2959,2.3784-.2203,2.6884-1.4772l1.9914.5009c-1.0713,4.2559-7.5803,3.8924-8.2917-.4387-.8837-5.38,6.6091-7.1109,8.3074-2.1406l-2.0525.6165Z" style="fill: #fff;"/>
  </a>
  <a xlink:href="72.9035294117647">
    <rect id="fullLogo-9" data-name="fullLogo" x="92.0892" y=".1429" width="2.1478" height="11.6532" style="fill: #fff;"/>
  </a>
  <a xlink:href="72.9035294117647">
    <rect id="fullLogo-10" data-name="fullLogo" x="77.1457" y="3.7074" width="2.1478" height="8.0887" style="fill: #fff;"/>
  </a>
  <a xlink:href="72.9035294117647">
    <path id="fullLogo-11" data-name="fullLogo" d="M78.003.0178c1.9078-.2759,2.1031,2.7525-.0068,2.4964-1.4348-.1742-1.3796-2.2959.0068-2.4964Z" style="fill: #fff;"/>
  </a>
  <a xlink:href="72.9035294117647">
    <path id="fullLogo-12" data-name="fullLogo" d="M66.5928,21.1691l3.8836-3.8616h-2.6734c-.1409.101-.471.4321-.8615.834l-2.0641,1.9983c-.1087.0089-.2365,0-.3419.001v-6.3978h-2.1478v11.6532h2.1478v-3.1532l.3587.0039,3.1829,3.1494h2.8105l-4.2949-4.2272Z" style="fill: #fff;"/>
  </a>
  <g id="logoMark">
    <a xlink:href="72.9035294117647">
      <path id="logoMark_PathItem_" data-name="logoMark &amp;lt;PathItem&amp;gt;" d="M21.7598,15.3073c-.1505,2.2318-.9669,4.3317-2.3669,6.0809-1.3379,1.6716-3.1041,2.8946-5.1295,3.5558,1.5986-2.1123,2.5997-5.6604,2.7068-9.6367h4.7896Z" style="fill: #fff;"/>
    </a>
    <a xlink:href="72.9035294117647">
      <path id="logoMark_PathItem_-2" data-name="logoMark &amp;lt;PathItem&amp;gt;" d="M21.7598,13.8437h-4.7896c-.1071-3.9779-1.1082-7.5244-2.7068-9.6367,2.0254.6611,3.7917,1.8826,5.1295,3.5557,1.3984,1.7492,2.2163,3.8491,2.3669,6.081Z" style="fill: #fff;"/>
    </a>
    <a xlink:href="72.9035294117647">
      <path id="logoMark_PathItem_-3" data-name="logoMark &amp;lt;PathItem&amp;gt;" d="M15.5066,13.8437H6.2532c.1645-5.6308,2.2272-10.1877,4.6267-10.1877,2.3979,0,4.4606,4.5569,4.6267,10.1877Z" style="fill: #fff;"/>
    </a>
    <a xlink:href="72.9035294117647">
      <path id="logoMark_PathItem_-4" data-name="logoMark &amp;lt;PathItem&amp;gt;" d="M15.5066,15.3073c-.1661,5.6308-2.2272,10.1876-4.6267,10.1876s-4.4622-4.5568-4.6267-10.1876h9.2534Z" style="fill: #fff;"/>
    </a>
    <a xlink:href="72.9035294117647">
      <path id="logoMark_PathItem_-5" data-name="logoMark &amp;lt;PathItem&amp;gt;" d="M7.4964,24.944c-2.0254-.6612-3.7917-1.8826-5.1296-3.5558-1.3999-1.7492-2.2163-3.8491-2.3669-6.0809h4.7897c.1071,3.9763,1.1082,7.5244,2.7068,9.6367Z" style="fill: #fff;"/>
    </a>
    <a xlink:href="72.9035294117647">
      <path id="logoMark_PathItem_-6" data-name="logoMark &amp;lt;PathItem&amp;gt;" d="M7.4964,4.207c-1.5986,2.1123-2.5997,5.6603-2.7068,9.6367H0c.1506-2.2318.9669-4.3318,2.3669-6.081,1.3379-1.6731,3.1041-2.8946,5.1296-3.5557Z" style="fill: #fff;"/>
    </a>
  </g>
</svg>