<?xml version="1.0" encoding="UTF-8"?>
<svg id="Layer_1" data-name="Layer 1" xmlns="http://www.w3.org/2000/svg" xmlns:xlink="http://www.w3.org/1999/xlink" viewBox="0 0 21.7598 21.839">
  <g id="logoMark">
    <a xlink:href="72.9035294117647">
      <path id="logoMark_PathItem_" data-name="logoMark &amp;lt;PathItem&amp;gt;" d="M21.7598,11.6513c-.1505,2.2318-.9669,4.3317-2.3669,6.0809-1.3379,1.6716-3.1041,2.8946-5.1295,3.5558,1.5986-2.1123,2.5997-5.6604,2.7068-9.6367h4.7896Z" style="fill: #1b45b4;"/>
    </a>
    <a xlink:href="72.9035294117647">
      <path id="logoMark_PathItem_-2" data-name="logoMark &amp;lt;PathItem&amp;gt;" d="M21.7598,10.1877h-4.7896c-.1071-3.9779-1.1082-7.5244-2.7068-9.6367,2.0254.6611,3.7917,1.8826,5.1295,3.5557,1.3984,1.7492,2.2163,3.8491,2.3669,6.081Z" style="fill: #1b45b4;"/>
    </a>
    <a xlink:href="72.9035294117647">
      <path id="logoMark_PathItem_-3" data-name="logoMark &amp;lt;PathItem&amp;gt;" d="M15.5066,10.1877H6.2532c.1645-5.6308,2.2272-10.1877,4.6267-10.1877,2.3979,0,4.4606,4.5569,4.6267,10.1877Z" style="fill: #1b45b4;"/>
    </a>
    <a xlink:href="72.9035294117647">
      <path id="logoMark_PathItem_-4" data-name="logoMark &amp;lt;PathItem&amp;gt;" d="M15.5066,11.6513c-.1661,5.6308-2.2272,10.1876-4.6267,10.1876s-4.4622-4.5568-4.6267-10.1876h9.2534Z" style="fill: #1b45b4;"/>
    </a>
    <a xlink:href="72.9035294117647">
      <path id="logoMark_PathItem_-5" data-name="logoMark &amp;lt;PathItem&amp;gt;" d="M7.4964,21.288c-2.0254-.6612-3.7917-1.8826-5.1296-3.5558C.9669,15.9831.1506,13.8832,0,11.6513h4.7897c.1071,3.9763,1.1082,7.5244,2.7068,9.6367Z" style="fill: #1b45b4;"/>
    </a>
    <a xlink:href="72.9035294117647">
      <path id="logoMark_PathItem_-6" data-name="logoMark &amp;lt;PathItem&amp;gt;" d="M7.4964.551c-1.5986,2.1123-2.5997,5.6603-2.7068,9.6367H0c.1506-2.2318.9669-4.3318,2.3669-6.081,1.3379-1.6731,3.1041-2.8946,5.1296-3.5557Z" style="fill: #1b45b4;"/>
    </a>
  </g>
</svg>