<?xml version="1.0" encoding="UTF-8"?><svg id="uuid-357b1541-82a0-4950-ace9-d4574ae8100c" xmlns="http://www.w3.org/2000/svg" viewBox="0 0 84.68 81.47"><defs><style>.uuid-15644f3b-1c75-413f-a724-ab09001994ba{fill:#1b45b3;}</style></defs><g id="uuid-329f7be2-0fa8-439c-a655-f6044a0c0146"><path class="uuid-15644f3b-1c75-413f-a724-ab09001994ba" d="M84.46,19.07l-19.48-11.25c-.14-.08-.32-.08-.45,0l-15.2,9.44L27.56,4.46l-2.55-3.77c-.46-.68-1.37-.89-2.07-.47L.77,13.08c-.67.39-.95,1.22-.66,1.93,1.72,4.11,1.68,4.33,1.93,4.47l22.1,12.73-9.61,13.12c-.15.2-.1.5.14.64l9.63,5.56-.05,15.19c0,.16.08.3.22.38l24.66,14.24c.12.13.46.18.57.03l24.55-14.26c.14-.08.22-.22.22-.37l.08-34.51,10.05-12.51c.16-.2.11-.51-.12-.65h0ZM32.92,31.3c1.51-.91,2.64-1.71,3.74-1.93-.68.77-1.16,1.6-1.43,2.47-1.47-.55-2.09-.49-2.31-.54h0ZM40.63,29.24c8.18-4.82,23.4-.92,21.84,5.04-2.5-3.4-10.53-6.27-18.91-3.77-2.81.84-4.93,2.15-6.08,3.72.05-.17-1.06-2.59,3.15-5h0ZM37.9,35.19c.92-1.59,3.05-2.98,5.91-3.83,8.48-2.53,16.39.64,18.25,3.87-3.7,6.26-20.45,6.26-24.15-.05h0ZM45.64,41.95c3.15.56,6,.47,8.58.03l-4.45,2.59c-.03-.47-.19-.25-4.12-2.62h0ZM30.37,32.72c.49-.15,1.71-1.17,4.67-.02-.11.78-.05,1.35-.07,3.09l-4.93-2.84c.11-.08.22-.15.33-.22h0ZM37.63,28.42c-1.59-.01-2.52.52-4.27,1.59-3.57,2.18-3.35,1.76-4.12,2.47l-.71-.41,20.38-11.84v4.48c-3.94.15-8.32,1.19-11.28,3.72h0ZM64.95,33.54c.11-2.71-2.14-5.01-4.52-6.39-2.94-1.69-6.8-2.52-10.65-2.5v-4.41l20.97,12.11-5.81,3.38c0-.17,0-2.36,0-2.18h0ZM24.77,31.57L3.14,19.11c2.92-1.67-9.4,5.38,24.12-13.81l21.23,12.5-23.71,13.78ZM24.9,32.65c20.82,12.03,18.1,10.45,23.81,13.75l-14.38,9.91c-2.84-1.64-6.36-3.67-18.81-10.86l9.38-12.8ZM25.16,52.04l8.97,5.18h0c.08.05.27.09.32.09.1,0,.16-.06.23-.17l14.41-9.93c-.05,14.65-.08,25.56-.1,33.07l-23.88-13.79.05-14.44ZM73.58,66.49l-23.71,13.77c0-.24.1-33.45.1-33.64,7.93-4.61,21.26-12.37,23.69-13.77l-.08,33.64ZM73.99,31.51l-23.8-13.74,14.58-9.06,18.81,10.86-9.59,11.94Z"/><path class="uuid-15644f3b-1c75-413f-a724-ab09001994ba" d="M70.97,36.76c-.2.11-18.62,10.8-18.81,10.94-.17.14-.19.16-.18.34-.13,46.21-.04,15.72-.07,27.94,0,.34.36.55.66.38l18.78-10.92h0s0,0,0,0c.13-.08.21-.28.21-.37l.07-27.92c0-.33-.35-.55-.66-.38h0ZM69.31,38.74l-.06,25.27-1,.58-4.52-2.62c.74-1.03,1.18-2.19,1.19-3.5l.02-17.19,4.37-2.54ZM52.78,73.58l.02-6.49c3.98-.45,8.1-1.95,10.37-4.43l4.21,2.44c-.19.11-14.8,8.61-14.6,8.49h0ZM64.06,41.78c-.14,17.78.54,17.73-1.28,19.97-2.13,2.61-6.55,4.05-9.98,4.47.01-3.92.03-11.32.05-17.93.18-.1,11.96-6.94,11.21-6.51h0Z"/></g></svg>