<?xml version="1.0" encoding="UTF-8"?><svg id="uuid-96371f39-4bbc-4d6d-959b-4f6a548a160b" xmlns="http://www.w3.org/2000/svg" viewBox="0 0 84.46 47.81"><defs><style>.uuid-8d6b6fa9-b4d3-41d7-bd98-276a599f99c5{fill:#1b45b3;}</style></defs><g id="uuid-6bb75966-15f2-4503-bfea-d359285f55b3"><path class="uuid-8d6b6fa9-b4d3-41d7-bd98-276a599f99c5" d="M80.63,4.12c4.92,5.09,4.8,13.21-.3,18.14h0s-.07.08-.07.08l-13.22,12.05c-1.05.91-2.41,1.4-3.8,1.35-3.2,0-7.18-2.03-10.49-5.67-2.14-2.25-3.67-5.01-4.44-8.02-.18-.79-.26-1.55-.26-2.25,0-1.83.58-3.34,1.72-4.37l13.31-12.12c5.15-4.43,12.86-4.07,17.57.8ZM79.32,21.28c4.66-4.27,4.97-11.5.71-16.16-2.26-2.46-5.33-3.7-8.43-3.7-2.76,0-5.53.99-7.72,3l-10.57,9.68c1.08-.02,2.15.15,3.16.49,5.88,2.23,10.36,7.12,12.05,13.18h-.03c.24,1.05.31,2.13.2,3.2l10.63-9.69ZM66.09,33.34c1.18-1.08,1.54-2.99,1.03-5.26-1.59-5.56-5.69-10.05-11.09-12.15-2.25-.72-4.15-.51-5.32.55-1.18,1.07-1.55,2.98-1.03,5.25.72,2.77,2.13,5.31,4.1,7.39,4.17,4.56,9.8,6.5,12.29,4.22Z"/><path class="uuid-8d6b6fa9-b4d3-41d7-bd98-276a599f99c5" d="M66.15,46.46l.17.95-34.73.09c-.3.07-.61.1-.9.1l-17.79-.3c-7.09-.08-12.76-5.88-12.69-12.97.08-7.03,5.8-12.68,12.82-12.68h.15l17.85.22c3.39.04,6.4,3.57,7.39,8.53,1.2-.55,2.5-.83,3.83-.83,1.44.02,2.84.34,4.1.97,1.26.62,2.38,1.52,3.26,2.66.21.26.4.52.58.79,2.57-.03,4.85,1.69,5.53,4.18.85.65,1.61,1.41,2.27,2.27.25-.02.5-.02.74,0,3.55.09,6.6,2.56,7.42,6.02ZM36.58,46l27.93-.1c-.93-2.39-3.21-4-5.76-4.07-.32,0-.62.04-.93.1-1.38.38-2.61,1.12-3.57,2.15l-1.05-.96c.9-.95,1.98-1.71,3.21-2.2-.53-.66-1.15-1.23-1.81-1.73l-.21-.16v-.27c-.38-1.72-1.74-3.03-3.47-3.34.52,1.42.56,2.97.09,4.41l-1.34-.48c.42-1.29.32-2.69-.27-3.92l-.21-.39c-1.46-2.56-4.15-4.01-6.9-4.01-1.22,0-2.45.28-3.62.87l-.37.24c-.99.6-1.86,1.37-2.57,2.27l-.25.38-.45-.09c-.59-.1-1.18-.15-1.77-.15-3.24,0-6.27,1.56-8.18,4.16.55,4.37,2.86,6.8,4.96,7.29h6.57ZM34.84,33.27c.66-.78,1.42-1.49,2.27-2.06-.36-2.25-1.2-4.21-2.28-5.63-1.09-1.42-2.44-2.29-3.85-2.33-1.55,0-3.1,1.11-4.23,3.14-1.36,2.51-2.06,5.33-2.03,8.19-.02.76,0,1.51.09,2.27,2.18-2.35,5.25-3.68,8.45-3.68.52,0,1.05.03,1.58.11ZM27.53,23.25l-14.08-.18h-.15c-.19,0-.38-.02-.58,0-.04,0-.09.02-.14.03-.8.03-1.6.17-2.37.39v.03c-.85.23-1.58.52-2.22.85h-.04c-.1.05-.21.11-.31.18-.07.03-.15.08-.21.12-1.99,1.15-2.82,2.47-2.82,2.47-.15.19-.28.35-.41.54-.08.1-.15.2-.21.3-.03.03-.05.09-.08.12-.41.61-.73,1.21-.98,1.82-.03.03-.03.08-.05.13-.08.16-.15.35-.21.52-.32.91-.5,1.8-.58,2.62-.02.03-.02.07-.02.11-.02.23-.03.45-.04.68h0c-.03.52,0,.99.03,1.44h-.04c.04.48.11.94.2,1.41h.03c.19.88.38,1.41.38,1.41.09.24.17.45.26.68.08.21.18.43.28.64h.03c.24.51.5.99.8,1.42.14.22.29.43.45.63.02.03.04.07.07.09.15.18.29.35.44.52.99,1.12,2.11,1.89,3.18,2.42.21.1.42.21.62.28.5.22.99.39,1.43.51h0c.5.16,1,.26,1.52.32.09.02.18.03.27.03.09.03.19.03.28.03.06,0,.1,0,.15,0,.26.03.44.03.52.03h.04l10.81.14h3.24c-1.02-.97-1.82-2.1-2.41-3.35-.58-1.25-.94-2.6-1.04-3.99-.25-1.33-.35-2.69-.33-4.05-.02-3.12.76-6.18,2.27-8.9.52-.92,1.21-1.76,2.02-2.47Z"/><path class="uuid-8d6b6fa9-b4d3-41d7-bd98-276a599f99c5" d="M13.45,23.07l14.08.18c-.81.71-1.5,1.55-2.02,2.47-1.5,2.72-2.28,5.78-2.27,8.9-.02,1.36.09,2.72.33,4.05.1,1.39.46,2.74,1.04,3.99.59,1.25,1.39,2.38,2.41,3.35h-3.24l-10.81-.14h-.04c-.17,0-.35,0-.52-.03-.04,0-.09,0-.15,0-.09,0-.2,0-.28-.03-.09,0-.18-.02-.27-.03-.52-.05-1.02-.15-1.52-.31h0c-.44-.13-.92-.3-1.43-.52-.2-.08-.4-.18-.62-.28-1.07-.53-2.19-1.3-3.18-2.42-.15-.17-.29-.34-.44-.52-.03-.03-.05-.06-.07-.09-.16-.21-.32-.41-.45-.63-.3-.43-.56-.91-.8-1.42h-.03c-.1-.21-.21-.43-.28-.64-.09-.23-.18-.44-.26-.68,0,0-.2-.53-.38-1.41h-.03c-.09-.47-.15-.93-.2-1.41h.04c-.03-.44-.06-.91-.03-1.43h0c0-.24.03-.46.04-.69,0-.04,0-.08.02-.11.08-.83.26-1.72.58-2.62.06-.17.13-.36.21-.52.02-.05.03-.09.05-.13.26-.62.57-1.21.98-1.82.03-.03.04-.09.08-.12.06-.1.14-.2.21-.3.13-.19.26-.35.41-.54,0,0,.83-1.32,2.82-2.47.07-.04.15-.09.21-.12.1-.07.21-.13.31-.18h.04c.64-.33,1.38-.62,2.22-.85v-.03c.77-.22,1.56-.36,2.37-.39.24-.03.48-.03.72-.03h.15Z"/><path class="uuid-8d6b6fa9-b4d3-41d7-bd98-276a599f99c5" d="M12.72,23.07c.21-.02.39,0,.58,0-.24,0-.48,0-.72.03.04,0,.09-.03.14-.03Z"/><path class="uuid-8d6b6fa9-b4d3-41d7-bd98-276a599f99c5" d="M12.41,45.85c.17.02.35.03.52.03-.08,0-.26,0-.52-.03Z"/></g></svg>