<?xml version="1.0" encoding="UTF-8"?><svg id="uuid-89145f7e-ee6f-46f9-b784-47fded98b5bc" xmlns="http://www.w3.org/2000/svg" viewBox="0 0 64.72 99.71"><defs><style>.uuid-950546ca-96f5-4ab1-924f-14d098915d05{stroke-width:1.31px;}.uuid-950546ca-96f5-4ab1-924f-14d098915d05,.uuid-d45b3da0-07b2-4a84-a590-16eb0c0cceae,.uuid-96ed5e9a-9512-4057-a7dc-f26e30bc2c2a,.uuid-60c1ee38-2519-4827-982a-e9715995c822{fill:none;stroke:#1b45b3;stroke-miterlimit:10;}.uuid-d45b3da0-07b2-4a84-a590-16eb0c0cceae{stroke-width:1.2px;}.uuid-96ed5e9a-9512-4057-a7dc-f26e30bc2c2a,.uuid-60c1ee38-2519-4827-982a-e9715995c822{stroke-linecap:round;stroke-width:2.11px;}.uuid-60c1ee38-2519-4827-982a-e9715995c822{stroke-dasharray:4.01 4.01;}.uuid-c7d3b350-cde8-4629-8693-52008c07fed8{fill:#1b45b3;}</style></defs><g id="uuid-d5e02f95-bb25-4a53-89c0-be3cbfe4e3e0"><path class="uuid-950546ca-96f5-4ab1-924f-14d098915d05" d="M59.93.65H4.79C2.51.65.65,2.72.65,5.27v6.04c0,.86.63,1.57,1.4,1.57h.03c.89,0,1.62.81,1.62,1.81v3.14c0,1.01-.74,1.84-1.65,1.84h0c-.78,0-1.4.7-1.4,1.57v73.21c0,2.55,1.85,4.61,4.14,4.61h55.13c2.28,0,4.14-2.07,4.14-4.61V21.23c0-.86-.63-1.57-1.4-1.57h-.25c-.78,0-1.4-.7-1.4-1.57v-3.66c0-.86.63-1.57,1.4-1.57h.25c.78,0,1.4-.7,1.4-1.57v-6.04c0-2.55-1.85-4.61-4.14-4.61Z"/><path class="uuid-d45b3da0-07b2-4a84-a590-16eb0c0cceae" d="M53.5,27.91H11.22c-.78,0-1.4.59-1.4,1.31v57.85c0,.72.63,1.31,1.4,1.31h42.28c.78,0,1.4-.59,1.4-1.31V29.22c0-.72-.63-1.31-1.4-1.31Z"/><path class="uuid-c7d3b350-cde8-4629-8693-52008c07fed8" d="M25.42,64.35c1.65,1.75,4.42,1.86,6.19.23.13-.12,7.9-7.26,7.46-6.85,1.77-1.63,1.88-4.37.23-6.12-1.66-1.76-4.43-1.85-6.19-.23l-7.46,6.85c-1.77,1.63-1.88,4.37-.23,6.12ZM33.66,51.97c1.44-1.33,3.7-1.24,5.03.18,1.34,1.43,1.26,3.65-.19,4.98l-3.4,3.13-4.85-5.16,3.4-3.13Z"/><line class="uuid-96ed5e9a-9512-4057-a7dc-f26e30bc2c2a" x1="4.14" y1="16.15" x2="6.26" y2="16.15"/><line class="uuid-60c1ee38-2519-4827-982a-e9715995c822" x1="10.27" y1="16.15" x2="56.4" y2="16.15"/><line class="uuid-96ed5e9a-9512-4057-a7dc-f26e30bc2c2a" x1="58.4" y1="16.15" x2="60.51" y2="16.15"/></g></svg>