<?xml version="1.0" encoding="UTF-8"?><svg id="uuid-bf47bc4e-70b0-4761-a517-5ceffea79092" xmlns="http://www.w3.org/2000/svg" viewBox="0 0 137.04 46.72"><defs><style>.uuid-9aceefd8-c3bb-4db6-8f0f-71cbba4a1af4{fill:#1b45b3;}</style></defs><g id="uuid-6492f48f-d376-4186-8746-af30f83b5716"><path class="uuid-9aceefd8-c3bb-4db6-8f0f-71cbba4a1af4" d="M100.53,35.47c.07.33.09.63.02.92-.02.08-.04.16-.07.23.38.11.72.25,1.04.4.04-.13.08-.26.11-.4.05-.24.08-.49.07-.74-.37-.16-.75-.3-1.17-.42ZM100.53,35.47c.07.33.09.63.02.92-.02.08-.04.16-.07.23.38.11.72.25,1.04.4.04-.13.08-.26.11-.4.05-.24.08-.49.07-.74-.37-.16-.75-.3-1.17-.42ZM130.11,34.66c-1.49-1.3-3.89-2.42-6.76-3.14-.3-.07-.61.11-.68.41-.08.29.11.6.41.67,2.69.67,4.93,1.7,6.3,2.9.11.1.26.14.39.13.15,0,.3-.07.39-.19.21-.23.18-.59-.05-.79ZM130.11,34.66c-1.49-1.3-3.89-2.42-6.76-3.14-.3-.07-.61.11-.68.41-.08.29.11.6.41.67,2.69.67,4.93,1.7,6.3,2.9.11.1.26.14.39.13.15,0,.3-.07.39-.19.21-.23.18-.59-.05-.79ZM100.53,35.47c.07.33.09.63.02.92-.02.08-.04.16-.07.23.38.11.72.25,1.04.4.04-.13.08-.26.11-.4.05-.24.08-.49.07-.74-.37-.16-.75-.3-1.17-.42ZM88.99,25.18c-.54.34-1.05.7-1.52,1.06.46.11.91.24,1.36.38.52-.35,1.09-.72,1.69-1.08-.53-.12-1.04-.23-1.53-.36ZM100.53,35.47c.07.33.09.63.02.92-.02.08-.04.16-.07.23.38.11.72.25,1.04.4.04-.13.08-.26.11-.4.05-.24.08-.49.07-.74-.37-.16-.75-.3-1.17-.42ZM130.11,34.66c-1.49-1.3-3.89-2.42-6.76-3.14-.3-.07-.61.11-.68.41-.08.29.11.6.41.67,2.69.67,4.93,1.7,6.3,2.9.11.1.26.14.39.13.15,0,.3-.07.39-.19.21-.23.18-.59-.05-.79ZM130.11,34.66c-1.49-1.3-3.89-2.42-6.76-3.14-.3-.07-.61.11-.68.41-.08.29.11.6.41.67,2.69.67,4.93,1.7,6.3,2.9.11.1.26.14.39.13.15,0,.3-.07.39-.19.21-.23.18-.59-.05-.79ZM100.53,35.47c.07.33.09.63.02.92-.02.08-.04.16-.07.23.38.11.72.25,1.04.4.04-.13.08-.26.11-.4.05-.24.08-.49.07-.74-.37-.16-.75-.3-1.17-.42ZM130.11,34.66c-1.49-1.3-3.89-2.42-6.76-3.14-.3-.07-.61.11-.68.41-.08.29.11.6.41.67,2.69.67,4.93,1.7,6.3,2.9.11.1.26.14.39.13.15,0,.3-.07.39-.19.21-.23.18-.59-.05-.79ZM130.11,34.66c-1.49-1.3-3.89-2.42-6.76-3.14-.3-.07-.61.11-.68.41-.08.29.11.6.41.67,2.69.67,4.93,1.7,6.3,2.9.11.1.26.14.39.13.15,0,.3-.07.39-.19.21-.23.18-.59-.05-.79ZM100.53,35.47c.07.33.09.63.02.92-.02.08-.04.16-.07.23.38.11.72.25,1.04.4.04-.13.08-.26.11-.4.05-.24.08-.49.07-.74-.37-.16-.75-.3-1.17-.42ZM130.11,34.66c-1.49-1.3-3.89-2.42-6.76-3.14-.3-.07-.61.11-.68.41-.08.29.11.6.41.67,2.69.67,4.93,1.7,6.3,2.9.11.1.26.14.39.13.15,0,.3-.07.39-.19.21-.23.18-.59-.05-.79ZM130.11,34.66c-1.49-1.3-3.89-2.42-6.76-3.14-.3-.07-.61.11-.68.41-.08.29.11.6.41.67,2.69.67,4.93,1.7,6.3,2.9.11.1.26.14.39.13.15,0,.3-.07.39-.19.21-.23.18-.59-.05-.79ZM88.99,25.18c-.54.34-1.05.7-1.52,1.06.46.11.91.24,1.36.38.52-.35,1.09-.72,1.69-1.08-.53-.12-1.04-.23-1.53-.36ZM100.53,35.47c.07.33.09.63.02.92-.02.08-.04.16-.07.23.38.11.72.25,1.04.4.04-.13.08-.26.11-.4.05-.24.08-.49.07-.74-.37-.16-.75-.3-1.17-.42ZM130.11,34.66c-1.49-1.3-3.89-2.42-6.76-3.14-.3-.07-.61.11-.68.41-.08.29.11.6.41.67,2.69.67,4.93,1.7,6.3,2.9.11.1.26.14.39.13.15,0,.3-.07.39-.19.21-.23.18-.59-.05-.79ZM130.11,34.66c-1.49-1.3-3.89-2.42-6.76-3.14-.3-.07-.61.11-.68.41-.08.29.11.6.41.67,2.69.67,4.93,1.7,6.3,2.9.11.1.26.14.39.13.15,0,.3-.07.39-.19.21-.23.18-.59-.05-.79ZM132.65,32.96c-3.06-1.97-7.34-3.63-12.04-4.67-1.58-.35-3.14-.61-4.66-.78,2.03-1.95,2.87-3.85,2.37-5.44-.13-.41-.35-.8-.66-1.13-.22-.27-.51-.52-.84-.73-.22.27-.51.53-.84.79.37.21.66.45.88.71.18.22.31.45.39.7.42,1.3-.6,3.1-2.8,4.95-2.45-.2-4.74-.17-6.74.11-3.79.52-6.12,1.9-6.55,3.86-.13.56-.09,1.14.11,1.73-.3-.06-.62-.11-.93-.16-.6-.11-1.21-.2-1.83-.27.51.44.93.88,1.26,1.31.5.08,1,.17,1.47.26.22.04.44.09.66.14.73,1.09,1.94,2.19,3.59,3.25.97.63,2.08,1.22,3.26,1.78-.72,2.71-7.12,5.75-16.87,6.2-10.3.46-17.35-2.35-17.48-5.26-.04-.82.48-1.68,1.47-2.52.32-.25.69-.51,1.1-.77-.44-.15-.86-.31-1.27-.48-.36.26-.69.52-.97.8-.99.95-1.48,1.97-1.44,3.02.09,2.01,2.15,3.76,5.8,4.93,3.47,1.12,8.04,1.61,12.85,1.4,9.33-.42,16.71-3.31,17.85-6.86,2.33,1,4.97,1.83,7.76,2.45,3.74.82,7.4,1.18,10.57,1.04.81-.04,1.59-.1,2.32-.2,3.8-.53,6.12-1.91,6.55-3.87s-1.1-4.19-4.32-6.26ZM135.89,38.99c-.32,1.45-2.37,2.54-5.62,2.99-3.48.49-7.92.19-12.5-.82-3.1-.68-5.83-1.58-8.08-2.59-.06-.04-.12-.06-.18-.08-4.98-2.25-7.69-4.98-7.26-6.92.33-1.46,2.37-2.55,5.62-2.99.71-.1,1.45-.16,2.23-.2,1.4-.06,2.9-.02,4.47.11,0,0,.01,0,.02,0,1.85.16,3.8.46,5.78.89,4.58,1.01,8.73,2.61,11.68,4.52,2.76,1.78,4.16,3.63,3.84,5.08ZM123.35,31.51c-.3-.07-.61.11-.68.41-.08.29.11.6.41.67,2.69.67,4.93,1.7,6.3,2.9.11.1.26.14.39.13.15,0,.3-.07.39-.19.21-.23.18-.59-.05-.79-1.49-1.3-3.89-2.42-6.76-3.14ZM100.48,36.62c.38.11.72.25,1.04.4.04-.13.08-.26.11-.4.05-.24.08-.49.07-.74-.37-.16-.75-.3-1.17-.42.07.33.09.63.02.92-.02.08-.04.16-.07.23ZM90.51,25.54c-.53-.12-1.04-.23-1.53-.36-.54.34-1.05.7-1.52,1.06.46.11.91.24,1.36.38.52-.35,1.09-.72,1.69-1.08ZM130.11,34.66c-1.49-1.3-3.89-2.42-6.76-3.14-.3-.07-.61.11-.68.41-.08.29.11.6.41.67,2.69.67,4.93,1.7,6.3,2.9.11.1.26.14.39.13.15,0,.3-.07.39-.19.21-.23.18-.59-.05-.79ZM130.11,34.66c-1.49-1.3-3.89-2.42-6.76-3.14-.3-.07-.61.11-.68.41-.08.29.11.6.41.67,2.69.67,4.93,1.7,6.3,2.9.11.1.26.14.39.13.15,0,.3-.07.39-.19.21-.23.18-.59-.05-.79ZM100.53,35.47c.07.33.09.63.02.92-.02.08-.04.16-.07.23.38.11.72.25,1.04.4.04-.13.08-.26.11-.4.05-.24.08-.49.07-.74-.37-.16-.75-.3-1.17-.42ZM90.34,24.36c-.47.27-.92.54-1.35.82-.54.34-1.05.7-1.52,1.06-.13.09-.25.18-.37.28-.25.2-.49.39-.72.59.45.11.89.22,1.33.35.35-.29.73-.56,1.12-.84.52-.35,1.09-.72,1.69-1.08h0c.48-.28.99-.57,1.52-.85-.59-.09-1.17-.21-1.71-.33ZM130.11,34.66c-1.49-1.3-3.89-2.42-6.76-3.14-.3-.07-.61.11-.68.41-.08.29.11.6.41.67,2.69.67,4.93,1.7,6.3,2.9.11.1.26.14.39.13.15,0,.3-.07.39-.19.21-.23.18-.59-.05-.79ZM130.11,34.66c-1.49-1.3-3.89-2.42-6.76-3.14-.3-.07-.61.11-.68.41-.08.29.11.6.41.67,2.69.67,4.93,1.7,6.3,2.9.11.1.26.14.39.13.15,0,.3-.07.39-.19.21-.23.18-.59-.05-.79ZM100.53,35.47c.07.33.09.63.02.92-.02.08-.04.16-.07.23.38.11.72.25,1.04.4.04-.13.08-.26.11-.4.05-.24.08-.49.07-.74-.37-.16-.75-.3-1.17-.42ZM130.11,34.66c-1.49-1.3-3.89-2.42-6.76-3.14-.3-.07-.61.11-.68.41-.08.29.11.6.41.67,2.69.67,4.93,1.7,6.3,2.9.11.1.26.14.39.13.15,0,.3-.07.39-.19.21-.23.18-.59-.05-.79ZM130.11,34.66c-1.49-1.3-3.89-2.42-6.76-3.14-.3-.07-.61.11-.68.41-.08.29.11.6.41.67,2.69.67,4.93,1.7,6.3,2.9.11.1.26.14.39.13.15,0,.3-.07.39-.19.21-.23.18-.59-.05-.79ZM100.53,35.47c.07.33.09.63.02.92-.02.08-.04.16-.07.23.38.11.72.25,1.04.4.04-.13.08-.26.11-.4.05-.24.08-.49.07-.74-.37-.16-.75-.3-1.17-.42ZM130.11,34.66c-1.49-1.3-3.89-2.42-6.76-3.14-.3-.07-.61.11-.68.41-.08.29.11.6.41.67,2.69.67,4.93,1.7,6.3,2.9.11.1.26.14.39.13.15,0,.3-.07.39-.19.21-.23.18-.59-.05-.79ZM130.11,34.66c-1.49-1.3-3.89-2.42-6.76-3.14-.3-.07-.61.11-.68.41-.08.29.11.6.41.67,2.69.67,4.93,1.7,6.3,2.9.11.1.26.14.39.13.15,0,.3-.07.39-.19.21-.23.18-.59-.05-.79ZM100.53,35.47c.07.33.09.63.02.92-.02.08-.04.16-.07.23.38.11.72.25,1.04.4.04-.13.08-.26.11-.4.05-.24.08-.49.07-.74-.37-.16-.75-.3-1.17-.42ZM88.99,25.18c-.54.34-1.05.7-1.52,1.06.46.11.91.24,1.36.38.52-.35,1.09-.72,1.69-1.08-.53-.12-1.04-.23-1.53-.36ZM100.53,35.47c.07.33.09.63.02.92-.02.08-.04.16-.07.23.38.11.72.25,1.04.4.04-.13.08-.26.11-.4.05-.24.08-.49.07-.74-.37-.16-.75-.3-1.17-.42ZM130.11,34.66c-1.49-1.3-3.89-2.42-6.76-3.14-.3-.07-.61.11-.68.41-.08.29.11.6.41.67,2.69.67,4.93,1.7,6.3,2.9.11.1.26.14.39.13.15,0,.3-.07.39-.19.21-.23.18-.59-.05-.79ZM130.11,34.66c-1.49-1.3-3.89-2.42-6.76-3.14-.3-.07-.61.11-.68.41-.08.29.11.6.41.67,2.69.67,4.93,1.7,6.3,2.9.11.1.26.14.39.13.15,0,.3-.07.39-.19.21-.23.18-.59-.05-.79Z"/><path class="uuid-9aceefd8-c3bb-4db6-8f0f-71cbba4a1af4" d="M66.77,33.47c-1.79-.88-4.39-1.33-7.34-1.28-.32,0-.56.26-.56.57.01.31.27.56.57.54,2.77-.04,5.2.37,6.83,1.18.08.04.18.06.27.06.19,0,.38-.13.48-.31.13-.28.01-.61-.25-.75ZM66.77,33.47c-1.79-.88-4.39-1.33-7.34-1.28-.32,0-.56.26-.56.57.01.31.27.56.57.54,2.77-.04,5.2.37,6.83,1.18.08.04.18.06.27.06.19,0,.38-.13.48-.31.13-.28.01-.61-.25-.75ZM66.77,33.47c-1.79-.88-4.39-1.33-7.34-1.28-.32,0-.56.26-.56.57.01.31.27.56.57.54,2.77-.04,5.2.37,6.83,1.18.08.04.18.06.27.06.19,0,.38-.13.48-.31.13-.28.01-.61-.25-.75ZM66.77,33.47c-1.79-.88-4.39-1.33-7.34-1.28-.32,0-.56.26-.56.57.01.31.27.56.57.54,2.77-.04,5.2.37,6.83,1.18.08.04.18.06.27.06.19,0,.38-.13.48-.31.13-.28.01-.61-.25-.75ZM66.77,33.47c-1.79-.88-4.39-1.33-7.34-1.28-.32,0-.56.26-.56.57.01.31.27.56.57.54,2.77-.04,5.2.37,6.83,1.18.08.04.18.06.27.06.19,0,.38-.13.48-.31.13-.28.01-.61-.25-.75ZM66.77,33.47c-1.79-.88-4.39-1.33-7.34-1.28-.32,0-.56.26-.56.57.01.31.27.56.57.54,2.77-.04,5.2.37,6.83,1.18.08.04.18.06.27.06.19,0,.38-.13.48-.31.13-.28.01-.61-.25-.75ZM66.77,33.47c-1.79-.88-4.39-1.33-7.34-1.28-.32,0-.56.26-.56.57.01.31.27.56.57.54,2.77-.04,5.2.37,6.83,1.18.08.04.18.06.27.06.19,0,.38-.13.48-.31.13-.28.01-.61-.25-.75ZM66.77,33.47c-1.79-.88-4.39-1.33-7.34-1.28-.32,0-.56.26-.56.57.01.31.27.56.57.54,2.77-.04,5.2.37,6.83,1.18.08.04.18.06.27.06.19,0,.38-.13.48-.31.13-.28.01-.61-.25-.75ZM66.77,33.47c-1.79-.88-4.39-1.33-7.34-1.28-.32,0-.56.26-.56.57.01.31.27.56.57.54,2.77-.04,5.2.37,6.83,1.18.08.04.18.06.27.06.19,0,.38-.13.48-.31.13-.28.01-.61-.25-.75ZM62.06,18.62c.09,0,.18-.03.26-.09-.09.02-.17.06-.26.09ZM66.77,33.47c-1.79-.88-4.39-1.33-7.34-1.28-.32,0-.56.26-.56.57.01.31.27.56.57.54,2.77-.04,5.2.37,6.83,1.18.08.04.18.06.27.06.19,0,.38-.13.48-.31.13-.28.01-.61-.25-.75ZM66.77,33.47c-1.79-.88-4.39-1.33-7.34-1.28-.32,0-.56.26-.56.57.01.31.27.56.57.54,2.77-.04,5.2.37,6.83,1.18.08.04.18.06.27.06.19,0,.38-.13.48-.31.13-.28.01-.61-.25-.75ZM101.23,34.19c-.22-.43-.52-.87-.9-1.3-.73-.85-1.74-1.7-3.03-2.53-2.27-1.46-5.21-2.75-8.49-3.74-.45-.14-.9-.27-1.36-.38-.72-.2-1.45-.38-2.2-.54-1.58-.35-3.14-.61-4.66-.79,1.1-1.05,1.85-2.09,2.22-3.08.32-.84.38-1.63.15-2.35-.01-.03-.02-.06-.03-.09-.15.1-.29.18-.45.27-.06.02-.12.06-.17.1-.13.07-.25.14-.38.21.1.39.07.82-.08,1.28-.33,1.06-1.28,2.28-2.76,3.52-2.45-.2-4.74-.17-6.74.1-.09.01-.18.03-.26.04-.85.13-1.62.3-2.3.51h0c-2.27.7-3.66,1.84-3.99,3.31-.13.56-.09,1.14.11,1.73-2.98-.6-6.4-.82-9.98-.66-2.35.1-4.61.38-6.71.78-.07-.12-.12-.24-.17-.36-.58-1.85,1.7-4.68,6.16-7.29.32-.18.65-.37,1-.55-.1-.4-.06-.84.09-1.31-.43.22-.84.45-1.24.67h0c-1.23.71-2.34,1.44-3.32,2.19-3.03,2.36-4.36,4.71-3.76,6.62.03.1.07.19.1.28-1.76.41-3.4.91-4.83,1.52-3.53,1.49-5.42,3.42-5.33,5.42s2.15,3.76,5.8,4.93c3.47,1.11,8.04,1.6,12.84,1.39,9.33-.42,16.71-3.3,17.85-6.85.09.04.18.08.29.12.37.15.74.31,1.14.45,1.96.74,4.1,1.38,6.33,1.87,3.74.83,7.4,1.18,10.57,1.04.81-.04,1.59-.1,2.32-.2,3.54-.5,5.8-1.71,6.44-3.46.04-.13.08-.26.11-.4.05-.24.08-.49.07-.74-.01-.55-.17-1.11-.47-1.69ZM56.53,42.96c-10.3.46-17.35-2.35-17.48-5.25-.1-2.19,3.69-4.66,9.93-5.95h0c.07,0,.13-.02.19-.04,2.03-.41,4.31-.69,6.81-.8,3.84-.17,7.47.12,10.56.82.73,1.09,1.94,2.2,3.59,3.25.98.63,2.08,1.23,3.26,1.78-.72,2.72-7.12,5.76-16.87,6.2ZM94.93,39.38c-3.48.49-7.92.19-12.5-.81-1.99-.44-3.82-.97-5.47-1.56-.44-.15-.86-.31-1.27-.48-.47-.18-.91-.36-1.34-.55-.06-.04-.12-.07-.18-.08-4.98-2.25-7.68-4.98-7.26-6.93.33-1.45,2.37-2.54,5.62-2.99.71-.09,1.45-.17,2.23-.2,1.4-.06,2.9-.02,4.47.12h.02c1.85.17,3.8.46,5.78.9.45.1.9.2,1.35.32.45.11.89.22,1.33.35,3.51.98,6.64,2.32,9.01,3.84.68.44,1.28.88,1.79,1.32.51.44.93.88,1.26,1.31.4.53.67,1.05.77,1.54.07.33.09.63.02.92-.02.08-.04.16-.07.23-.48,1.34-2.48,2.34-5.55,2.76ZM66.77,33.47c-1.79-.88-4.39-1.33-7.34-1.28-.32,0-.56.26-.56.57.01.31.27.56.57.54,2.77-.04,5.2.37,6.83,1.18.08.04.18.06.27.06.19,0,.38-.13.48-.31.13-.28.01-.61-.25-.75ZM66.77,33.47c-1.79-.88-4.39-1.33-7.34-1.28-.32,0-.56.26-.56.57.01.31.27.56.57.54,2.77-.04,5.2.37,6.83,1.18.08.04.18.06.27.06.19,0,.38-.13.48-.31.13-.28.01-.61-.25-.75ZM66.77,33.47c-1.79-.88-4.39-1.33-7.34-1.28-.32,0-.56.26-.56.57.01.31.27.56.57.54,2.77-.04,5.2.37,6.83,1.18.08.04.18.06.27.06.19,0,.38-.13.48-.31.13-.28.01-.61-.25-.75ZM66.77,33.47c-1.79-.88-4.39-1.33-7.34-1.28-.32,0-.56.26-.56.57.01.31.27.56.57.54,2.77-.04,5.2.37,6.83,1.18.08.04.18.06.27.06.19,0,.38-.13.48-.31.13-.28.01-.61-.25-.75ZM66.77,33.47c-1.79-.88-4.39-1.33-7.34-1.28-.32,0-.56.26-.56.57.01.31.27.56.57.54,2.77-.04,5.2.37,6.83,1.18.08.04.18.06.27.06.19,0,.38-.13.48-.31.13-.28.01-.61-.25-.75ZM66.77,33.47c-1.79-.88-4.39-1.33-7.34-1.28-.32,0-.56.26-.56.57.01.31.27.56.57.54,2.77-.04,5.2.37,6.83,1.18.08.04.18.06.27.06.19,0,.38-.13.48-.31.13-.28.01-.61-.25-.75ZM66.77,33.47c-1.79-.88-4.39-1.33-7.34-1.28-.32,0-.56.26-.56.57.01.31.27.56.57.54,2.77-.04,5.2.37,6.83,1.18.08.04.18.06.27.06.19,0,.38-.13.48-.31.13-.28.01-.61-.25-.75ZM66.77,33.47c-1.79-.88-4.39-1.33-7.34-1.28-.32,0-.56.26-.56.57.01.31.27.56.57.54,2.77-.04,5.2.37,6.83,1.18.08.04.18.06.27.06.19,0,.38-.13.48-.31.13-.28.01-.61-.25-.75ZM66.77,33.47c-1.79-.88-4.39-1.33-7.34-1.28-.32,0-.56.26-.56.57.01.31.27.56.57.54,2.77-.04,5.2.37,6.83,1.18.08.04.18.06.27.06.19,0,.38-.13.48-.31.13-.28.01-.61-.25-.75ZM66.77,33.47c-1.79-.88-4.39-1.33-7.34-1.28-.32,0-.56.26-.56.57.01.31.27.56.57.54,2.77-.04,5.2.37,6.83,1.18.08.04.18.06.27.06.19,0,.38-.13.48-.31.13-.28.01-.61-.25-.75Z"/><path class="uuid-9aceefd8-c3bb-4db6-8f0f-71cbba4a1af4" d="M96.84,14.66c-2.95.21-5.51.9-7.2,1.93-.26.16-.35.51-.19.77.11.18.3.28.49.27.09,0,.19-.04.27-.08,1.55-.95,3.93-1.58,6.71-1.78.3-.01.54-.28.51-.59-.02-.31-.28-.54-.59-.51ZM87.86,2.83c-2.91-.55-5.55-.55-7.46,0-.3.09-.46.4-.38.7.08.3.39.46.69.38,1.75-.51,4.21-.51,6.94.02.04,0,.09,0,.13,0,.25-.01.47-.19.52-.45.06-.3-.14-.59-.44-.65ZM68.79,14.29c-.1-.29-.42-.44-.71-.34-2.79.97-5.08,2.29-6.46,3.72-.21.23-.2.58.03.79.11.1.25.16.4.15h0c.09,0,.18-.03.26-.09.04-.01.08-.04.12-.08,1.25-1.32,3.39-2.53,6.01-3.44.3-.1.45-.42.35-.72ZM87.86,2.83c-2.91-.55-5.55-.55-7.46,0-.3.09-.46.4-.38.7.08.3.39.46.69.38,1.75-.51,4.21-.51,6.94.02.04,0,.09,0,.13,0,.25-.01.47-.19.52-.45.06-.3-.14-.59-.44-.65ZM96.84,14.66c-2.95.21-5.51.9-7.2,1.93-.26.16-.35.51-.19.77.11.18.3.28.49.27.09,0,.19-.04.27-.08,1.55-.95,3.93-1.58,6.71-1.78.3-.01.54-.28.51-.59-.02-.31-.28-.54-.59-.51ZM96.84,14.66c-2.95.21-5.51.9-7.2,1.93-.26.16-.35.51-.19.77.11.18.3.28.49.27.09,0,.19-.04.27-.08,1.55-.95,3.93-1.58,6.71-1.78.3-.01.54-.28.51-.59-.02-.31-.28-.54-.59-.51ZM68.79,14.29c-.1-.29-.42-.44-.71-.34-2.79.97-5.08,2.29-6.46,3.72-.21.23-.2.58.03.79.11.1.25.16.4.15h0c.09,0,.18-.03.26-.09.04-.01.08-.04.12-.08,1.25-1.32,3.39-2.53,6.01-3.44.3-.1.45-.42.35-.72ZM87.86,2.83c-2.91-.55-5.55-.55-7.46,0-.3.09-.46.4-.38.7.08.3.39.46.69.38,1.75-.51,4.21-.51,6.94.02.04,0,.09,0,.13,0,.25-.01.47-.19.52-.45.06-.3-.14-.59-.44-.65ZM68.79,14.29c-.1-.29-.42-.44-.71-.34-2.79.97-5.08,2.29-6.46,3.72-.21.23-.2.58.03.79.11.1.25.16.4.15h0c.09,0,.18-.03.26-.09.04-.01.08-.04.12-.08,1.25-1.32,3.39-2.53,6.01-3.44.3-.1.45-.42.35-.72ZM87.86,2.83c-2.91-.55-5.55-.55-7.46,0-.3.09-.46.4-.38.7.08.3.39.46.69.38,1.75-.51,4.21-.51,6.94.02.04,0,.09,0,.13,0,.25-.01.47-.19.52-.45.06-.3-.14-.59-.44-.65ZM96.84,14.66c-2.95.21-5.51.9-7.2,1.93-.26.16-.35.51-.19.77.11.18.3.28.49.27.09,0,.19-.04.27-.08,1.55-.95,3.93-1.58,6.71-1.78.3-.01.54-.28.51-.59-.02-.31-.28-.54-.59-.51ZM96.84,14.66c-2.95.21-5.51.9-7.2,1.93-.26.16-.35.51-.19.77.11.18.3.28.49.27.09,0,.19-.04.27-.08,1.55-.95,3.93-1.58,6.71-1.78.3-.01.54-.28.51-.59-.02-.31-.28-.54-.59-.51ZM68.79,14.29c-.1-.29-.42-.44-.71-.34-2.79.97-5.08,2.29-6.46,3.72-.21.23-.2.58.03.79.11.1.25.16.4.15h0c.09,0,.18-.03.26-.09.04-.01.08-.04.12-.08,1.25-1.32,3.39-2.53,6.01-3.44.3-.1.45-.42.35-.72ZM87.86,2.83c-2.91-.55-5.55-.55-7.46,0-.3.09-.46.4-.38.7.08.3.39.46.69.38,1.75-.51,4.21-.51,6.94.02.04,0,.09,0,.13,0,.25-.01.47-.19.52-.45.06-.3-.14-.59-.44-.65ZM68.79,14.29c-.1-.29-.42-.44-.71-.34-2.79.97-5.08,2.29-6.46,3.72-.21.23-.2.58.03.79.11.1.25.16.4.15h0c.09,0,.18-.03.26-.09.04-.01.08-.04.12-.08,1.25-1.32,3.39-2.53,6.01-3.44.3-.1.45-.42.35-.72ZM87.86,2.83c-2.91-.55-5.55-.55-7.46,0-.3.09-.46.4-.38.7.08.3.39.46.69.38,1.75-.51,4.21-.51,6.94.02.04,0,.09,0,.13,0,.25-.01.47-.19.52-.45.06-.3-.14-.59-.44-.65ZM96.84,14.66c-2.95.21-5.51.9-7.2,1.93-.26.16-.35.51-.19.77.11.18.3.28.49.27.09,0,.19-.04.27-.08,1.55-.95,3.93-1.58,6.71-1.78.3-.01.54-.28.51-.59-.02-.31-.28-.54-.59-.51ZM96.84,14.66c-2.95.21-5.51.9-7.2,1.93-.26.16-.35.51-.19.77.11.18.3.28.49.27.09,0,.19-.04.27-.08,1.55-.95,3.93-1.58,6.71-1.78.3-.01.54-.28.51-.59-.02-.31-.28-.54-.59-.51ZM68.79,14.29c-.1-.29-.42-.44-.71-.34-2.79.97-5.08,2.29-6.46,3.72-.21.23-.2.58.03.79.11.1.25.16.4.15h0c.09,0,.18-.03.26-.09.04-.01.08-.04.12-.08,1.25-1.32,3.39-2.53,6.01-3.44.3-.1.45-.42.35-.72ZM87.86,2.83c-2.91-.55-5.55-.55-7.46,0-.3.09-.46.4-.38.7.08.3.39.46.69.38,1.75-.51,4.21-.51,6.94.02.04,0,.09,0,.13,0,.25-.01.47-.19.52-.45.06-.3-.14-.59-.44-.65ZM68.79,14.29c-.1-.29-.42-.44-.71-.34-2.79.97-5.08,2.29-6.46,3.72-.21.23-.2.58.03.79.11.1.25.16.4.15h0c.09,0,.18-.03.26-.09.04-.01.08-.04.12-.08,1.25-1.32,3.39-2.53,6.01-3.44.3-.1.45-.42.35-.72ZM87.86,2.83c-2.91-.55-5.55-.55-7.46,0-.3.09-.46.4-.38.7.08.3.39.46.69.38,1.75-.51,4.21-.51,6.94.02.04,0,.09,0,.13,0,.25-.01.47-.19.52-.45.06-.3-.14-.59-.44-.65ZM96.84,14.66c-2.95.21-5.51.9-7.2,1.93-.26.16-.35.51-.19.77.11.18.3.28.49.27.09,0,.19-.04.27-.08,1.55-.95,3.93-1.58,6.71-1.78.3-.01.54-.28.51-.59-.02-.31-.28-.54-.59-.51ZM96.84,14.66c-2.95.21-5.51.9-7.2,1.93-.26.16-.35.51-.19.77.11.18.3.28.49.27.09,0,.19-.04.27-.08,1.55-.95,3.93-1.58,6.71-1.78.3-.01.54-.28.51-.59-.02-.31-.28-.54-.59-.51ZM68.79,14.29c-.1-.29-.42-.44-.71-.34-2.79.97-5.08,2.29-6.46,3.72-.21.23-.2.58.03.79.11.1.25.16.4.15h0c.09,0,.18-.03.26-.09.04-.01.08-.04.12-.08,1.25-1.32,3.39-2.53,6.01-3.44.3-.1.45-.42.35-.72ZM87.86,2.83c-2.91-.55-5.55-.55-7.46,0-.3.09-.46.4-.38.7.08.3.39.46.69.38,1.75-.51,4.21-.51,6.94.02.04,0,.09,0,.13,0,.25-.01.47-.19.52-.45.06-.3-.14-.59-.44-.65ZM68.79,14.29c-.1-.29-.42-.44-.71-.34-2.79.97-5.08,2.29-6.46,3.72-.21.23-.2.58.03.79.11.1.25.16.4.15h0c.09,0,.18-.03.26-.09.04-.01.08-.04.12-.08,1.25-1.32,3.39-2.53,6.01-3.44.3-.1.45-.42.35-.72ZM87.86,2.83c-2.91-.55-5.55-.55-7.46,0-.3.09-.46.4-.38.7.08.3.39.46.69.38,1.75-.51,4.21-.51,6.94.02.04,0,.09,0,.13,0,.25-.01.47-.19.52-.45.06-.3-.14-.59-.44-.65ZM96.84,14.66c-2.95.21-5.51.9-7.2,1.93-.26.16-.35.51-.19.77.11.18.3.28.49.27.09,0,.19-.04.27-.08,1.55-.95,3.93-1.58,6.71-1.78.3-.01.54-.28.51-.59-.02-.31-.28-.54-.59-.51ZM96.84,14.66c-2.95.21-5.51.9-7.2,1.93-.26.16-.35.51-.19.77.11.18.3.28.49.27.09,0,.19-.04.27-.08,1.55-.95,3.93-1.58,6.71-1.78.3-.01.54-.28.51-.59-.02-.31-.28-.54-.59-.51ZM68.79,14.29c-.1-.29-.42-.44-.71-.34-2.79.97-5.08,2.29-6.46,3.72-.21.23-.2.58.03.79.11.1.25.16.4.15h0c.09,0,.18-.03.26-.09.04-.01.08-.04.12-.08,1.25-1.32,3.39-2.53,6.01-3.44.3-.1.45-.42.35-.72ZM87.86,2.83c-2.91-.55-5.55-.55-7.46,0-.3.09-.46.4-.38.7.08.3.39.46.69.38,1.75-.51,4.21-.51,6.94.02.04,0,.09,0,.13,0,.25-.01.47-.19.52-.45.06-.3-.14-.59-.44-.65ZM112.94,13.36c-1.47-.47-3.14-.83-4.94-1.08.03-.09.05-.18.08-.28.43-1.96-1.11-4.18-4.32-6.26-3.07-1.96-7.35-3.63-12.05-4.67-4.7-1.03-9.28-1.33-12.89-.84-3.8.53-6.13,1.9-6.56,3.86-.36,1.63.64,3.45,2.85,5.21-1.49.32-3.02.72-4.56,1.2-4.6,1.45-8.71,3.48-11.59,5.72-2.46,1.91-3.79,3.81-3.88,5.5h0c-.03.39.01.77.13,1.13.01.02.01.05.02.07.64,1.87,3.08,3,6.85,3.19.74.04,1.52.03,2.34,0,1.69-.08,3.5-.31,5.38-.68h0c.75-.14,1.53-.32,2.3-.51.9-.23,1.82-.49,2.73-.78,2.54-.8,4.92-1.78,7.03-2.88.17-.08.32-.15.48-.24.12.28.29.56.49.82,1.05,1.41,3.24,2.57,6.16,3.36.49.13,1,.25,1.53.36h0c2.92.6,6.42.86,10.21.69,4.82-.22,9.31-1.12,12.67-2.53,1.42-.6,2.59-1.28,3.45-2.01.3-.24.57-.51.8-.77.74-.83,1.12-1.73,1.08-2.65-.09-2.01-2.15-3.77-5.8-4.93ZM73.34,4.34c.32-1.46,2.37-2.55,5.62-2.99,3.48-.49,7.92-.19,12.5.81,10.07,2.22,16.16,6.76,15.52,9.6-.02.13-.07.26-.12.39-2.13-.22-4.42-.28-6.76-.18-3.58.16-6.96.69-9.87,1.55.13-.61.12-1.19-.06-1.74-.61-1.91-3.04-3.07-6.87-3.26-2.02-.09-4.3.08-6.72.5-2.35-1.66-3.53-3.35-3.23-4.68ZM82.94,19.39c-.15.1-.29.18-.45.27-.06.02-.12.06-.17.1-.13.07-.25.14-.38.21-2.09,1.13-4.6,2.21-7.45,3.11-4.46,1.41-8.87,2.1-12.38,1.92-3.28-.15-5.42-1.06-5.87-2.48-.01-.05-.02-.1-.04-.15-.1-.4-.06-.84.09-1.31.39-1.18,1.52-2.56,3.32-3.95,2.78-2.16,6.77-4.13,11.23-5.55,1.93-.61,3.85-1.07,5.68-1.41h0c1.55-.28,3.05-.46,4.44-.52.78-.03,1.53-.04,2.24,0,3.28.16,5.42,1.07,5.87,2.48.58,1.85-1.7,4.68-6.16,7.27ZM116.81,20.2c-.22.27-.51.53-.84.79-2.59,2.04-8.07,3.81-15.28,4.14-3.27.15-6.18-.03-8.65-.43-.59-.09-1.17-.21-1.71-.33-3.94-.88-6.45-2.35-7.01-3.9,1.14-.65,2.18-1.35,3.09-2.06,1.56-1.2,2.66-2.41,3.28-3.56,3.01-.99,6.62-1.59,10.44-1.76,2.5-.11,4.8-.03,6.87.19.05.02.12.02.18.02h0c6.34.73,10.33,2.85,10.43,5.04.03.61-.25,1.24-.82,1.87ZM96.84,14.66c-2.95.21-5.51.9-7.2,1.93-.26.16-.35.51-.19.77.11.18.3.28.49.27.09,0,.19-.04.27-.08,1.55-.95,3.93-1.58,6.71-1.78.3-.01.54-.28.51-.59-.02-.31-.28-.54-.59-.51ZM80.71,3.91c1.75-.51,4.21-.51,6.94.02.04,0,.09,0,.13,0,.25-.01.47-.19.52-.45.06-.3-.14-.59-.44-.65-2.91-.55-5.55-.55-7.46,0-.3.09-.46.4-.38.7.08.3.39.46.69.38ZM68.08,13.95c-2.79.97-5.08,2.29-6.46,3.72-.21.23-.2.58.03.79.11.1.25.16.4.15h0c.09,0,.18-.03.26-.09.04-.01.08-.04.12-.08,1.25-1.32,3.39-2.53,6.01-3.44.3-.1.45-.42.35-.72-.1-.29-.42-.44-.71-.34ZM87.86,2.83c-2.91-.55-5.55-.55-7.46,0-.3.09-.46.4-.38.7.08.3.39.46.69.38,1.75-.51,4.21-.51,6.94.02.04,0,.09,0,.13,0,.25-.01.47-.19.52-.45.06-.3-.14-.59-.44-.65ZM68.79,14.29c-.1-.29-.42-.44-.71-.34-2.79.97-5.08,2.29-6.46,3.72-.21.23-.2.58.03.79.11.1.25.16.4.15h0c.09,0,.18-.03.26-.09.04-.01.08-.04.12-.08,1.25-1.32,3.39-2.53,6.01-3.44.3-.1.45-.42.35-.72ZM96.84,14.66c-2.95.21-5.51.9-7.2,1.93-.26.16-.35.51-.19.77.11.18.3.28.49.27.09,0,.19-.04.27-.08,1.55-.95,3.93-1.58,6.71-1.78.3-.01.54-.28.51-.59-.02-.31-.28-.54-.59-.51ZM96.84,14.66c-2.95.21-5.51.9-7.2,1.93-.26.16-.35.51-.19.77.11.18.3.28.49.27.09,0,.19-.04.27-.08,1.55-.95,3.93-1.58,6.71-1.78.3-.01.54-.28.51-.59-.02-.31-.28-.54-.59-.51ZM87.86,2.83c-2.91-.55-5.55-.55-7.46,0-.3.09-.46.4-.38.7.08.3.39.46.69.38,1.75-.51,4.21-.51,6.94.02.04,0,.09,0,.13,0,.25-.01.47-.19.52-.45.06-.3-.14-.59-.44-.65ZM68.79,14.29c-.1-.29-.42-.44-.71-.34-2.79.97-5.08,2.29-6.46,3.72-.21.23-.2.58.03.79.11.1.25.16.4.15h0c.09,0,.18-.03.26-.09.04-.01.08-.04.12-.08,1.25-1.32,3.39-2.53,6.01-3.44.3-.1.45-.42.35-.72ZM87.86,2.83c-2.91-.55-5.55-.55-7.46,0-.3.09-.46.4-.38.7.08.3.39.46.69.38,1.75-.51,4.21-.51,6.94.02.04,0,.09,0,.13,0,.25-.01.47-.19.52-.45.06-.3-.14-.59-.44-.65ZM68.79,14.29c-.1-.29-.42-.44-.71-.34-2.79.97-5.08,2.29-6.46,3.72-.21.23-.2.58.03.79.11.1.25.16.4.15h0c.09,0,.18-.03.26-.09.04-.01.08-.04.12-.08,1.25-1.32,3.39-2.53,6.01-3.44.3-.1.45-.42.35-.72ZM96.84,14.66c-2.95.21-5.51.9-7.2,1.93-.26.16-.35.51-.19.77.11.18.3.28.49.27.09,0,.19-.04.27-.08,1.55-.95,3.93-1.58,6.71-1.78.3-.01.54-.28.51-.59-.02-.31-.28-.54-.59-.51ZM96.84,14.66c-2.95.21-5.51.9-7.2,1.93-.26.16-.35.51-.19.77.11.18.3.28.49.27.09,0,.19-.04.27-.08,1.55-.95,3.93-1.58,6.71-1.78.3-.01.54-.28.51-.59-.02-.31-.28-.54-.59-.51ZM87.86,2.83c-2.91-.55-5.55-.55-7.46,0-.3.09-.46.4-.38.7.08.3.39.46.69.38,1.75-.51,4.21-.51,6.94.02.04,0,.09,0,.13,0,.25-.01.47-.19.52-.45.06-.3-.14-.59-.44-.65ZM68.79,14.29c-.1-.29-.42-.44-.71-.34-2.79.97-5.08,2.29-6.46,3.72-.21.23-.2.58.03.79.11.1.25.16.4.15h0c.09,0,.18-.03.26-.09.04-.01.08-.04.12-.08,1.25-1.32,3.39-2.53,6.01-3.44.3-.1.45-.42.35-.72ZM87.86,2.83c-2.91-.55-5.55-.55-7.46,0-.3.09-.46.4-.38.7.08.3.39.46.69.38,1.75-.51,4.21-.51,6.94.02.04,0,.09,0,.13,0,.25-.01.47-.19.52-.45.06-.3-.14-.59-.44-.65ZM68.79,14.29c-.1-.29-.42-.44-.71-.34-2.79.97-5.08,2.29-6.46,3.72-.21.23-.2.58.03.79.11.1.25.16.4.15h0c.09,0,.18-.03.26-.09.04-.01.08-.04.12-.08,1.25-1.32,3.39-2.53,6.01-3.44.3-.1.45-.42.35-.72ZM96.84,14.66c-2.95.21-5.51.9-7.2,1.93-.26.16-.35.51-.19.77.11.18.3.28.49.27.09,0,.19-.04.27-.08,1.55-.95,3.93-1.58,6.71-1.78.3-.01.54-.28.51-.59-.02-.31-.28-.54-.59-.51ZM96.84,14.66c-2.95.21-5.51.9-7.2,1.93-.26.16-.35.51-.19.77.11.18.3.28.49.27.09,0,.19-.04.27-.08,1.55-.95,3.93-1.58,6.71-1.78.3-.01.54-.28.51-.59-.02-.31-.28-.54-.59-.51ZM87.86,2.83c-2.91-.55-5.55-.55-7.46,0-.3.09-.46.4-.38.7.08.3.39.46.69.38,1.75-.51,4.21-.51,6.94.02.04,0,.09,0,.13,0,.25-.01.47-.19.52-.45.06-.3-.14-.59-.44-.65ZM68.79,14.29c-.1-.29-.42-.44-.71-.34-2.79.97-5.08,2.29-6.46,3.72-.21.23-.2.58.03.79.11.1.25.16.4.15h0c.09,0,.18-.03.26-.09.04-.01.08-.04.12-.08,1.25-1.32,3.39-2.53,6.01-3.44.3-.1.45-.42.35-.72ZM87.86,2.83c-2.91-.55-5.55-.55-7.46,0-.3.09-.46.4-.38.7.08.3.39.46.69.38,1.75-.51,4.21-.51,6.94.02.04,0,.09,0,.13,0,.25-.01.47-.19.52-.45.06-.3-.14-.59-.44-.65ZM68.79,14.29c-.1-.29-.42-.44-.71-.34-2.79.97-5.08,2.29-6.46,3.72-.21.23-.2.58.03.79.11.1.25.16.4.15h0c.09,0,.18-.03.26-.09.04-.01.08-.04.12-.08,1.25-1.32,3.39-2.53,6.01-3.44.3-.1.45-.42.35-.72ZM96.84,14.66c-2.95.21-5.51.9-7.2,1.93-.26.16-.35.51-.19.77.11.18.3.28.49.27.09,0,.19-.04.27-.08,1.55-.95,3.93-1.58,6.71-1.78.3-.01.54-.28.51-.59-.02-.31-.28-.54-.59-.51ZM96.84,14.66c-2.95.21-5.51.9-7.2,1.93-.26.16-.35.51-.19.77.11.18.3.28.49.27.09,0,.19-.04.27-.08,1.55-.95,3.93-1.58,6.71-1.78.3-.01.54-.28.51-.59-.02-.31-.28-.54-.59-.51ZM87.86,2.83c-2.91-.55-5.55-.55-7.46,0-.3.09-.46.4-.38.7.08.3.39.46.69.38,1.75-.51,4.21-.51,6.94.02.04,0,.09,0,.13,0,.25-.01.47-.19.52-.45.06-.3-.14-.59-.44-.65ZM68.79,14.29c-.1-.29-.42-.44-.71-.34-2.79.97-5.08,2.29-6.46,3.72-.21.23-.2.58.03.79.11.1.25.16.4.15h0c.09,0,.18-.03.26-.09.04-.01.08-.04.12-.08,1.25-1.32,3.39-2.53,6.01-3.44.3-.1.45-.42.35-.72ZM87.86,2.83c-2.91-.55-5.55-.55-7.46,0-.3.09-.46.4-.38.7.08.3.39.46.69.38,1.75-.51,4.21-.51,6.94.02.04,0,.09,0,.13,0,.25-.01.47-.19.52-.45.06-.3-.14-.59-.44-.65ZM96.84,14.66c-2.95.21-5.51.9-7.2,1.93-.26.16-.35.51-.19.77.11.18.3.28.49.27.09,0,.19-.04.27-.08,1.55-.95,3.93-1.58,6.71-1.78.3-.01.54-.28.51-.59-.02-.31-.28-.54-.59-.51ZM68.79,14.29c-.1-.29-.42-.44-.71-.34-2.79.97-5.08,2.29-6.46,3.72-.21.23-.2.58.03.79.11.1.25.16.4.15h0c.09,0,.18-.03.26-.09.04-.01.08-.04.12-.08,1.25-1.32,3.39-2.53,6.01-3.44.3-.1.45-.42.35-.72ZM68.79,14.29c-.1-.29-.42-.44-.71-.34-2.79.97-5.08,2.29-6.46,3.72-.21.23-.2.58.03.79.11.1.25.16.4.15h0c.09,0,.18-.03.26-.09.04-.01.08-.04.12-.08,1.25-1.32,3.39-2.53,6.01-3.44.3-.1.45-.42.35-.72Z"/><path class="uuid-9aceefd8-c3bb-4db6-8f0f-71cbba4a1af4" d="M97.19,34.05c-1.45-1.37-3.8-2.58-6.63-3.4-.31-.09-.61.08-.7.38-.08.3.09.61.39.69,2.66.78,4.86,1.89,6.17,3.15.07.06.16.11.24.14.18.05.41,0,.55-.16.2-.23.19-.58-.02-.79Z"/><path class="uuid-9aceefd8-c3bb-4db6-8f0f-71cbba4a1af4" d="M13.37,27.43c-2.83.84-5.18,2.06-6.62,3.43-.22.22-.23.57-.01.79.11.11.24.17.39.17h.01c.09,0,.18-.02.26-.08.04,0,.08-.04.12-.07,1.31-1.26,3.5-2.38,6.16-3.17.3-.09.47-.4.38-.7-.09-.29-.4-.46-.69-.37Z"/><path class="uuid-9aceefd8-c3bb-4db6-8f0f-71cbba4a1af4" d="M35.53,26.24c-.52-1.94-2.9-3.2-6.72-3.56-2.01-.18-4.3-.11-6.74.2l-1.49.21c-1.5.25-3.05.58-4.61,1-4.66,1.24-8.86,3.09-11.83,5.2C1.6,31.09.18,32.93.02,34.61H.02c-.05.39-.02.77.08,1.13.01.02.01.05.02.07.56,1.9,2.94,3.13,6.7,3.49.74.07,1.52.1,2.34.1,1.69,0,3.51-.15,5.41-.44h.01c.76-.11,1.54-.25,2.32-.41.91-.19,1.84-.41,2.76-.66,2.57-.69,4.99-1.56,7.15-2.56.17-.07.33-.14.49-.22l1.01-.5s0,0,0,0c1.17-.6,2.24-1.25,3.18-1.92,1.61-1.13,2.85-2.4,3.53-3.52.54-.65.57-1.9.57-1.9h0c.03-.35.03-.69-.06-1.03ZM27.97,33.52c-.15.09-.3.17-.46.25-.06.02-.12.05-.17.09-.13.06-.26.13-.39.19-2.14,1.04-4.69,2-7.58,2.77-4.52,1.21-8.95,1.7-12.45,1.37-3.27-.3-5.37-1.3-5.75-2.74-.01-.05-.02-.1-.03-.15-.08-.4-.02-.84.15-1.3.44-1.16,1.63-2.49,3.49-3.8,2.87-2.03,6.95-3.82,11.47-5.04,1.96-.52,3.89-.9,5.74-1.15h.01c1.56-.21,3.07-.32,4.46-.32.78,0,1.53.03,2.24.1,3.27.31,5.37,1.31,5.75,2.74.5,1.87-1.91,4.6-6.48,6.99Z"/></g></svg>