<?xml version="1.0" encoding="UTF-8"?><svg id="uuid-f1b0f469-0c3b-4153-b2e4-dd10f76c0df9" xmlns="http://www.w3.org/2000/svg" viewBox="0 0 113.86 57.86"><defs><style>.uuid-caec6bf2-deb6-4a48-b05a-5bcd92312103{fill:#1b45b3;}</style></defs><g id="uuid-920e513d-52e0-48f4-b1e1-9f60d20dbcea"><path class="uuid-caec6bf2-deb6-4a48-b05a-5bcd92312103" d="M77.07,30.3l-.84-.48c-.24-.14-.48-.27-.74-.38-.5-.24-.99-.42-1.52-.57.13.41.21.84.25,1.27.01.16.03.33.04.48.01.44,0,.88-.04,1.32-.11,1.02-.44,2.05-.99,3-1.05,1.81-2.73,3.1-4.74,3.63-1.47.38-2.99.34-4.39-.13-.4-.14-.78-.3-1.16-.5-.1-.06-.21-.11-.31-.17-.03-.01-.25-.16-.62-.38v.06c-.01.42-.01.86.01,1.29.01.04.01.09.01.11,1.02.58,2.37,1.36,4.15,2.39,1.9,1.1,3.27,2.89,3.84,5.04.17.67.27,1.32.28,1.98.37.23.76.45,1.18.69,1.29.74,2.73,1.57,4.18,2.42,4.4,2.56,8.82,5.13,8.95,5.2,1.49.86,3.13,1.28,4.74,1.28,3.27,0,6.44-1.69,8.2-4.7,1.03-1.77,1.46-3.75,1.23-5.76l.82.47c4.53,2.62,10.34,1.08,12.96-3.43,1.27-2.2,1.61-4.76.96-7.21-.67-2.42-2.22-4.46-4.4-5.74l-6.83-3.97-2.39-1.39c.52.64.92,1.35,1.22,2.1,0,.01.01.01.01.01l.17.1s.06.03.07.04c.13.09.51.28,1.43.84,1.05.59,2.79,1.6,5.72,3.3,1.91,1.1,3.27,2.9,3.84,5.04.57,2.14.27,4.36-.84,6.27-1.13,1.93-2.93,3.29-5.1,3.84-2.12.55-4.33.24-6.22-.85l-1.74-1.01c-.67-2.38-2.21-4.36-4.35-5.61h-.03s-2.66-1.56-2.66-1.56c0-.07.01-.14.01-.21-.4-.14-.78-.3-1.16-.5v.04l-4.98-2.9-2.79-1.61s-.01,0-.01-.01l-2-1.16-1.73-1.01-.37-.21M96.52,52.56c-1.1,1.9-2.89,3.26-5.01,3.82-2.14.58-4.38.28-6.3-.84l-1.91-1.12c-2-1.16-4.5-2.62-5.35-3.12-.71-.41-1.19-1.18-1.4-2.2-.07-.37-.11-.76-.13-1.19v-.13c-.01-3.8,2.65-8.44,5.96-10.34.84-.48,1.64-.75,2.35-.78.5-.03.96.06,1.36.24.01.01.04.01.06.03h-.01s.18.11.18.11c.01.01.04.03.07.04.28.17,1.63.93,7.15,4.14,1.9,1.1,3.27,2.89,3.84,5.04.57,2.12.27,4.35-.85,6.27ZM87.01,19.82c-.31-.01-.64-.01-.95,0-.03.03-.07.04-.1.07-.13.09-.24.17-.35.25h0c-.03.31-.1.61-.17.92.31-.04.62-.06.92-.07h.38s.08-.06.13-.07h0c.14-.1.28-.18.42-.27.47-.27.93-.47,1.36-.59-.54-.13-1.09-.21-1.64-.24Z"/><path class="uuid-caec6bf2-deb6-4a48-b05a-5bcd92312103" d="M57.76,16.36c-.11.1-.21.2-.31.31-.06.04-.1.1-.14.14.08-.03.17-.04.25-.07.21-.04.44-.09.65-.11l-.45-.27ZM86.95,17.94c-.03-.21-.06-.41-.1-.61-.06-.27-.11-.52-.2-.79-.04-.14-.08-.28-.13-.42-.06-.17-.11-.33-.18-.48-.03-.07-.06-.13-.08-.2-.75-1.71-2.03-3.23-3.75-4.23l-3.82-2.24-2.51-1.46-10.69-6.26c-2.1-1.22-4.55-1.56-6.9-.93-2.35.62-4.33,2.14-5.55,4.26-.57.99-.93,2.05-1.1,3.12-.08.47-.13.92-.13,1.39-.01,1.12.18,2.24.57,3.29.25.68.58,1.33.99,1.94.59.89,1.35,1.69,2.25,2.34.23.17.47.34.72.48l.45.27,1.18.68.95.55.95.54,1.56.88,6.8,3.87.95.54,1.02.58,2.68,1.52,1.67.95.51.3.21.11c.2.06.38.11.58.16.71.17,1.42.26,2.12.26h.18c.3,0,.58-.03.88-.07.61-.06,1.2-.2,1.78-.4,2.04-.68,3.84-2.1,5-4.09.52-.89.86-1.86,1.06-2.82h0c.07-.38.11-.74.14-1.11.01-.2.03-.38.03-.58,0-.44-.03-.88-.08-1.3ZM61.09,18.32l-2.11-1.23-.76-.45-.45-.27-.75-.44c-1.15-.68-2.07-1.6-2.7-2.66-.68-1.12-1.06-2.39-1.13-3.7-.03-.5-.01-.98.07-1.46.13-.98.44-1.94.96-2.85,1.05-1.81,2.72-3.1,4.73-3.64.65-.17,1.32-.25,1.98-.25,1.35,0,2.68.35,3.88,1.06l7.56,4.42c-.57.16-1.15.4-1.71.72-.18.11-.37.23-.55.35-.59.4-1.16.89-1.7,1.46-1.47,1.5-2.68,3.47-3.38,5.49-.16.45-.28.92-.4,1.37-.17.79-.27,1.57-.27,2.32,0,.18.01.38.03.57.03.41.1.82.2,1.2l-2.14-1.25-1.35-.78ZM84.63,23.05c-1.05,1.81-2.73,3.1-4.74,3.63-.27.07-.54.13-.81.16-.86.14-1.74.13-2.59-.04-.18-.01-.37-.06-.54-.11-.16-.03-.3-.07-.45-.13-.31-.11-.62-.23-.92-.38-.08-.03-.16-.07-.24-.11-.07-.04-.16-.08-.23-.13-.03-.01-.06-.03-.08-.04-.07-.04-1.5-.88-3.03-1.78-.54-.31-1.08-.64-1.59-.92-.61-.37-1.15-.68-1.56-.92-.42-.24-.69-.41-.72-.42-.59-.34-1.02-.96-1.23-1.8-.11-.44-.17-.93-.17-1.47,0-.51.04-1.05.14-1.57.07-.47.2-.93.35-1.4.79-2.56,2.52-5.07,4.56-6.49l.55-.34c.47-.27.93-.47,1.36-.59.34-.1.67-.14.98-.14.08,0,.16,0,.24.01.38.03.74.14,1.05.34.01.01.03.01.04.03.1.06.34.2.88.51.17.11.38.24.64.38,1.02.58,2.66,1.54,5.3,3.09.85.5,1.57,1.13,2.14,1.86.17.21.33.43.47.64.31.45.55.93.75,1.44h0c.04.13.08.24.11.35.04.11.07.23.1.34.28,1.01.37,2.07.23,3.13h0c-.03.31-.1.61-.17.92-.17.68-.44,1.34-.81,1.98ZM57.76,16.36c-.11.1-.21.2-.31.31-.06.04-.1.1-.14.14.08-.03.17-.04.25-.07.21-.04.44-.09.65-.11l-.45-.27Z"/><path class="uuid-caec6bf2-deb6-4a48-b05a-5bcd92312103" d="M29.27,35.69c.11.1.21.2.31.31.06.04.1.1.14.14-.08-.03-.17-.04-.25-.07-.21-.04-.44-.09-.65-.11l.45-.27ZM.08,37.26c.03-.21.06-.41.1-.61.06-.27.11-.52.2-.79.04-.14.08-.28.13-.42.06-.17.11-.33.18-.48.03-.07.06-.13.08-.2.75-1.71,2.03-3.23,3.75-4.23l3.82-2.24,2.51-1.46,10.69-6.26c2.1-1.22,4.55-1.56,6.9-.93,2.35.62,4.33,2.14,5.55,4.26.57.99.93,2.05,1.1,3.12.08.47.13.92.13,1.39.01,1.12-.18,2.24-.57,3.29-.25.68-.58,1.33-.99,1.94-.59.89-1.35,1.69-2.25,2.34-.23.17-.47.34-.72.48l-.45.27-1.18.68-.95.55-.95.54-1.56.88-6.8,3.87-.95.54-1.02.58-2.68,1.52-1.67.95-.51.3-.21.11c-.2.06-.38.11-.58.16-.71.17-1.42.26-2.12.26h-.18c-.3,0-.58-.03-.88-.07-.61-.06-1.2-.2-1.78-.4-2.04-.68-3.84-2.1-5-4.09-.52-.89-.86-1.86-1.06-2.82H.17c-.07-.38-.11-.74-.14-1.11-.01-.2-.03-.38-.03-.58,0-.44.03-.88.08-1.3ZM25.94,37.64l2.11-1.23.76-.45.45-.27.75-.44c1.15-.68,2.07-1.6,2.7-2.66.68-1.12,1.06-2.39,1.13-3.7.03-.5.01-.98-.07-1.46-.13-.98-.44-1.94-.96-2.85-1.05-1.81-2.72-3.1-4.73-3.64-.65-.17-1.32-.25-1.98-.25-1.35,0-2.68.35-3.88,1.06l-7.56,4.42c.57.16,1.15.4,1.71.72.18.11.37.23.55.35.59.4,1.16.89,1.7,1.46,1.47,1.5,2.68,3.47,3.38,5.49.16.45.28.92.4,1.37.17.79.27,1.57.27,2.32,0,.18-.01.38-.03.57-.03.41-.1.82-.2,1.2l2.14-1.25,1.35-.78ZM2.41,42.37c1.05,1.81,2.73,3.1,4.74,3.63.27.07.54.13.81.16.86.14,1.74.13,2.59-.04.18-.01.37-.06.54-.11.16-.03.3-.07.45-.13.31-.11.62-.23.92-.38.08-.03.16-.07.24-.11.07-.04.16-.08.23-.13.03-.01.06-.03.08-.04.07-.04,1.5-.88,3.03-1.78.54-.31,1.08-.64,1.59-.92.61-.37,1.15-.68,1.56-.92.42-.24.69-.41.72-.42.59-.34,1.02-.96,1.23-1.8.11-.44.17-.93.17-1.47,0-.51-.04-1.05-.14-1.57-.07-.47-.2-.93-.35-1.4-.79-2.56-2.52-5.07-4.56-6.49l-.55-.34c-.47-.27-.93-.47-1.36-.59-.34-.1-.67-.14-.98-.14-.08,0-.16,0-.24.01-.38.03-.74.14-1.05.34-.01.01-.03.01-.04.03-.1.06-.34.2-.88.51-.17.11-.38.24-.64.38-1.02.58-2.66,1.54-5.3,3.09-.85.5-1.57,1.13-2.14,1.86-.17.21-.33.43-.47.64-.31.45-.55.93-.75,1.44h0c-.04.13-.08.24-.11.35-.04.11-.07.23-.1.34-.28,1.01-.37,2.07-.23,3.13h0c.03.31.1.61.17.92.17.68.44,1.34.81,1.98ZM29.27,35.69c.11.1.21.2.31.31.06.04.1.1.14.14-.08-.03-.17-.04-.25-.07-.21-.04-.44-.09-.65-.11l.45-.27Z"/><path class="uuid-caec6bf2-deb6-4a48-b05a-5bcd92312103" d="M75.48,29.29l-1.67-.99c.06.18.13.37.17.57.52.14,1.02.33,1.52.57,0-.04,0-.1-.01-.14ZM75.48,29.29l-1.67-.99c.06.18.13.37.17.57.52.14,1.02.33,1.52.57,0-.04,0-.1-.01-.14ZM75.48,29.29l-1.67-.99c.06.18.13.37.17.57.52.14,1.02.33,1.52.57,0-.04,0-.1-.01-.14ZM75.48,29.29l-1.67-.99c.06.18.13.37.17.57.52.14,1.02.33,1.52.57,0-.04,0-.1-.01-.14ZM75.48,29.29l-1.67-.99c.06.18.13.37.17.57.52.14,1.02.33,1.52.57,0-.04,0-.1-.01-.14ZM77.07,30.3l-.84-.48c-.24-.14-.48-.27-.74-.38,0-.04,0-.1-.01-.14l-1.67-.99c.06.18.13.37.17.57.13.41.21.84.25,1.27l.64.37.78.44.54.3,2.53,1.44,5.66,3.23,1.69.95,5.14,2.92c.91.27,1.81.41,2.7.41h.18c3.1-.07,6.02-1.73,7.66-4.56,1.16-2.01,1.47-4.29,1.05-6.42-.11-.58-.28-1.15-.51-1.7-.74-1.8-2.04-3.38-3.84-4.43l-11.94-6.98-2.11-1.23c.31.45.55.93.75,1.44h0c.04.13.08.24.11.35.04.11.07.23.1.34l1.57.92,1.37.81c-.42.11-.86.28-1.29.5-.14.07-.28.14-.42.23-.18.11-.37.23-.55.35-.03.03-.07.04-.1.07-.13.09-.24.17-.35.25h0c-.03.31-.1.61-.17.92.31-.04.62-.06.92-.07h.38s.08-.06.13-.07h0c.14-.1.28-.18.42-.27.47-.27.93-.47,1.36-.59.34-.1.67-.14.98-.14.48,0,.92.11,1.29.35.01.01.03.01.04.03.13.07.51.3,1.52.89,1.02.58,2.66,1.54,5.3,3.09.85.5,1.57,1.13,2.14,1.86.52.64.92,1.35,1.22,2.1.79,2.12.68,4.59-.54,6.71-1.05,1.81-2.73,3.1-4.74,3.63-1.47.38-2.99.34-4.39-.13-.4-.14-.78-.3-1.16-.5-.1-.06-.21-.11-.31-.17s-2.73-1.61-4.72-2.76c.01.03.03.04.04.07l-2.79-1.61s-.01,0-.01-.01l-2-1.16-1.73-1.01-.37-.21M69.62,23.81c-.08-.21-.16-.43-.21-.64-.61-.37-1.15-.68-1.56-.92.01.2.04.38.08.57.07.37.17.72.28,1.08l.95.54,1.02.58c-.23-.38-.41-.79-.57-1.2ZM75.48,29.29l-1.67-.99c.06.18.13.37.17.57.52.14,1.02.33,1.52.57,0-.04,0-.1-.01-.14ZM75.48,29.29l-1.67-.99c.06.18.13.37.17.57.52.14,1.02.33,1.52.57,0-.04,0-.1-.01-.14ZM75.48,29.29l-1.67-.99c.06.18.13.37.17.57.52.14,1.02.33,1.52.57,0-.04,0-.1-.01-.14ZM75.48,29.29l-1.67-.99c.06.18.13.37.17.57.52.14,1.02.33,1.52.57,0-.04,0-.1-.01-.14ZM75.48,29.29l-1.67-.99c.06.18.13.37.17.57.52.14,1.02.33,1.52.57,0-.04,0-.1-.01-.14Z"/><path class="uuid-caec6bf2-deb6-4a48-b05a-5bcd92312103" d="M75.04,27.78c-.01-.09-.06-.17-.08-.26l-2.39-1.39c.1.13.2.26.3.4.38.52.68,1.1.92,1.7h.01s.17.11.17.11c.03.01.06.03.07.04.13.09.51.28,1.43.84-.1-.5-.23-.98-.42-1.44ZM86.07,36.87c-.18-.62-.45-1.22-.76-1.78l-2.79-1.61c.78.69,1.42,1.52,1.87,2.45.14.26.25.51.34.76.5-.03.96.06,1.36.24,0-.03,0-.04-.01-.06ZM76.54,49.12c-.07-.37-.11-.76-.13-1.19-1.23-.1-2.44-.47-3.54-1.1l-1.74-1.01c-.67-2.38-2.21-4.36-4.35-5.61h-.03s-2.66-1.56-2.66-1.56c0-.07.01-.14.01-.21-.4-.14-.78-.3-1.16-.5v.04l-.93-.54-10.95-6.37s-.01-.06-.01-.09l-1.35-.78s.01.06.01.08l-.84-.48c-1.44-.84-3.03-1.27-4.66-1.29-.84-.01-1.69.1-2.52.31-2.45.65-4.49,2.21-5.76,4.4-1.27,2.18-1.61,4.73-.96,7.18.64,2.44,2.21,4.49,4.39,5.76.13.07,4.55,2.63,8.95,5.2,4.4,2.56,8.82,5.13,8.95,5.2,1.49.86,3.13,1.28,4.74,1.28,3.27,0,6.44-1.69,8.2-4.7.76-1.3,1.19-2.72,1.27-4.19.03-.52.01-1.05-.04-1.57l.82.47c1.36.78,2.82,1.19,4.28,1.26ZM69.18,52.56c-1.1,1.9-2.89,3.26-5.01,3.82-2.14.58-4.38.28-6.3-.84l-1.91-1.12c-2-1.16-4.5-2.62-5.35-3.12-.99-.57-1.53-1.83-1.53-3.51-.01-3.8,2.65-8.44,5.96-10.34,1.44-.84,2.78-1.01,3.77-.51h-.01s.18.11.18.11c.01.01.04.03.07.04.2.11.86.5,3,1.74,1.02.58,2.37,1.36,4.15,2.39,1.9,1.1,3.27,2.89,3.84,5.04.17.67.27,1.32.28,1.98.03,1.49-.35,2.96-1.13,4.29ZM58.71,19.82c-.42.28-.85.62-1.25,1.01-.16.14-.31.3-.45.45.3-.09.61-.14.91-.18.5-.08.98-.11,1.47-.1.18-.11.37-.23.55-.34.47-.27.93-.47,1.36-.59-.85-.2-1.73-.28-2.59-.24Z"/><path class="uuid-caec6bf2-deb6-4a48-b05a-5bcd92312103" d="M75.48,29.29l-1.67-.99c.06.18.13.37.17.57.52.14,1.02.33,1.52.57,0-.04,0-.1-.01-.14ZM55.74,33.73c-.91-.52-1.4-1.69-1.4-3.27-.03-2.66,1.36-5.76,3.33-7.93.33-.35.67-.68,1.02-.98.23-.2.47-.38.71-.55-.5-.01-.98.01-1.47.1-.3.04-.61.1-.91.18-.18.18-.35.37-.52.57-2.1,2.39-3.54,5.74-3.53,8.62,0,.62.08,1.22.23,1.77l-2.14-1.25s.01.06.01.09l10.95,6.37v-.06c-1.67-.98-6.15-3.6-6.27-3.67ZM55.74,33.73c-.91-.52-1.4-1.69-1.4-3.27-.03-2.66,1.36-5.76,3.33-7.93.33-.35.67-.68,1.02-.98.23-.2.47-.38.71-.55-.5-.01-.98.01-1.47.1-.3.04-.61.1-.91.18-.18.18-.35.37-.52.57-2.1,2.39-3.54,5.74-3.53,8.62,0,.62.08,1.22.23,1.77l-2.14-1.25s.01.06.01.09l10.95,6.37v-.06c-1.67-.98-6.15-3.6-6.27-3.67ZM55.74,33.73c-.91-.52-1.4-1.69-1.4-3.27-.03-2.66,1.36-5.76,3.33-7.93.33-.35.67-.68,1.02-.98.23-.2.47-.38.71-.55-.5-.01-.98.01-1.47.1-.3.04-.61.1-.91.18-.18.18-.35.37-.52.57-2.1,2.39-3.54,5.74-3.53,8.62,0,.62.08,1.22.23,1.77l-2.14-1.25s.01.06.01.09l10.95,6.37v-.06c-1.67-.98-6.15-3.6-6.27-3.67ZM55.74,33.73c-.91-.52-1.4-1.69-1.4-3.27-.03-2.66,1.36-5.76,3.33-7.93.33-.35.67-.68,1.02-.98.23-.2.47-.38.71-.55-.5-.01-.98.01-1.47.1-.3.04-.61.1-.91.18-.18.18-.35.37-.52.57-2.1,2.39-3.54,5.74-3.53,8.62,0,.62.08,1.22.23,1.77l-2.14-1.25s.01.06.01.09l10.95,6.37v-.06c-1.67-.98-6.15-3.6-6.27-3.67ZM57.92,21.09c-.3.04-.61.1-.91.18-.18.18-.35.37-.52.57l1.18.68c.33-.35.67-.68,1.02-.98.23-.2.47-.38.71-.55-.5-.01-.98.01-1.47.1ZM55.74,33.73c-.91-.52-1.4-1.69-1.4-3.27-.03-2.66,1.36-5.76,3.33-7.93l-1.18-.68c-2.1,2.39-3.54,5.74-3.53,8.62,0,.62.08,1.22.23,1.77l-2.14-1.25s.01.06.01.09l10.95,6.37v-.06c-1.67-.98-6.15-3.6-6.27-3.67ZM55.74,33.73c-.91-.52-1.4-1.69-1.4-3.27-.03-2.66,1.36-5.76,3.33-7.93.33-.35.67-.68,1.02-.98.23-.2.47-.38.71-.55-.5-.01-.98.01-1.47.1-.3.04-.61.1-.91.18-.18.18-.35.37-.52.57-2.1,2.39-3.54,5.74-3.53,8.62,0,.62.08,1.22.23,1.77l-2.14-1.25s.01.06.01.09l10.95,6.37v-.06c-1.67-.98-6.15-3.6-6.27-3.67ZM55.74,33.73c-.91-.52-1.4-1.69-1.4-3.27-.03-2.66,1.36-5.76,3.33-7.93.33-.35.67-.68,1.02-.98.23-.2.47-.38.71-.55-.5-.01-.98.01-1.47.1-.3.04-.61.1-.91.18-.18.18-.35.37-.52.57-2.1,2.39-3.54,5.74-3.53,8.62,0,.62.08,1.22.23,1.77l-2.14-1.25s.01.06.01.09l10.95,6.37v-.06c-1.67-.98-6.15-3.6-6.27-3.67ZM55.74,33.73c-.91-.52-1.4-1.69-1.4-3.27-.03-2.66,1.36-5.76,3.33-7.93.33-.35.67-.68,1.02-.98.23-.2.47-.38.71-.55-.5-.01-.98.01-1.47.1-.3.04-.61.1-.91.18-.18.18-.35.37-.52.57-2.1,2.39-3.54,5.74-3.53,8.62,0,.62.08,1.22.23,1.77l-2.14-1.25s.01.06.01.09l10.95,6.37v-.06c-1.67-.98-6.15-3.6-6.27-3.67ZM55.74,33.73c-.91-.52-1.4-1.69-1.4-3.27-.03-2.66,1.36-5.76,3.33-7.93.33-.35.67-.68,1.02-.98.23-.2.47-.38.71-.55-.5-.01-.98.01-1.47.1-.3.04-.61.1-.91.18-.18.18-.35.37-.52.57-2.1,2.39-3.54,5.74-3.53,8.62,0,.62.08,1.22.23,1.77l-2.14-1.25s.01.06.01.09l10.95,6.37v-.06c-1.67-.98-6.15-3.6-6.27-3.67ZM75.49,29.44s0-.1-.01-.14c0-.03-.01-.04-.01-.07-.1-.5-.23-.98-.42-1.44-.01-.09-.06-.17-.08-.26-.23-.57-.51-1.1-.85-1.6-.03-.01-.06-.03-.08-.04-.07-.04-1.5-.88-3.03-1.78-.54-.31-1.08-.64-1.59-.92-.61-.37-1.15-.68-1.56-.92-.42-.24-.69-.41-.72-.42-.59-.34-1.02-.96-1.23-1.8l-1.18-.69-.34-.2c.03.41.1.82.2,1.2l-2.14-1.25-1.35-.78-2.11-1.23-.76-.45-.45-.27-.75-.44c-1.15-.68-2.07-1.6-2.7-2.66l-.21-.13c-.37-.21-.75-.41-1.15-.57-.18-.09-.38-.16-.58-.21-.24-.08-.48-.16-.74-.21-1.44-.34-2.96-.34-4.43.06-2.35.62-4.33,2.14-5.55,4.26-2.39,4.12-1.2,9.35,2.58,12.07.23.17.47.34.72.48l2.58,1.5,14.5,8.23,1.84,1.05c.91.27,1.81.41,2.7.41h.18c3.1-.07,6.02-1.73,7.66-4.56.58-.99.93-2.05,1.12-3.13.07-.45.11-.92.11-1.37v-.18c0-.51-.06-1.02-.16-1.52ZM49.7,30.22l-4.08-2.39c-3.7-2.17-4.96-6.95-2.8-10.66,1.05-1.81,2.72-3.1,4.73-3.64.65-.17,1.32-.26,1.98-.26s1.32.09,1.97.27c.47.11.92.28,1.37.5.17.09.31.18.48.27.01.01.04.01.06.03l4.04,2.35.11.07,3.41,2c-.37.1-.74.24-1.12.41-.2.1-.4.2-.59.31-.18.11-.37.23-.55.35-.42.28-.85.62-1.25,1.01-.16.14-.31.3-.45.45-.18.18-.35.37-.52.57-2.1,2.39-3.54,5.74-3.53,8.62,0,.62.08,1.22.23,1.77l-2.14-1.25-1.35-.78ZM74.23,31.94c-.11,1.02-.44,2.05-.99,3-1.05,1.81-2.73,3.1-4.74,3.63-1.47.38-2.99.34-4.39-.13-.4-.14-.78-.3-1.16-.5-.1-.06-.21-.11-.31-.17-.03-.01-.25-.16-.62-.38-1.67-.98-6.15-3.6-6.27-3.67-.91-.52-1.4-1.69-1.4-3.27-.03-2.66,1.36-5.76,3.33-7.93.33-.35.67-.68,1.02-.98.23-.2.47-.38.71-.55.18-.11.37-.23.55-.34.47-.27.93-.47,1.36-.59.04-.01.07-.03.11-.03.3-.08.59-.11.86-.11.48,0,.92.11,1.29.35.01.01.03.01.04.03.08.04.28.17.71.41.21.13.47.28.81.48.13.07.28.16.44.25.59.34,1.36.79,2.37,1.37.5.3,1.06.62,1.69.99.25.14.52.3.81.47.85.5,1.57,1.13,2.14,1.86.1.13.2.26.3.4.38.52.68,1.1.92,1.7h.01s0,.04.01.07c.06.18.13.37.17.57.13.41.21.84.25,1.27.01.16.03.33.04.48.01.44,0,.88-.04,1.32ZM55.74,33.73c-.91-.52-1.4-1.69-1.4-3.27-.03-2.66,1.36-5.76,3.33-7.93.33-.35.67-.68,1.02-.98.23-.2.47-.38.71-.55-.5-.01-.98.01-1.47.1-.3.04-.61.1-.91.18-.18.18-.35.37-.52.57-2.1,2.39-3.54,5.74-3.53,8.62,0,.62.08,1.22.23,1.77l-2.14-1.25s.01.06.01.09l10.95,6.37v-.06c-1.67-.98-6.15-3.6-6.27-3.67ZM55.74,33.73c-.91-.52-1.4-1.69-1.4-3.27-.03-2.66,1.36-5.76,3.33-7.93.33-.35.67-.68,1.02-.98.23-.2.47-.38.71-.55-.5-.01-.98.01-1.47.1-.3.04-.61.1-.91.18-.18.18-.35.37-.52.57-2.1,2.39-3.54,5.74-3.53,8.62,0,.62.08,1.22.23,1.77l-2.14-1.25s.01.06.01.09l10.95,6.37v-.06c-1.67-.98-6.15-3.6-6.27-3.67ZM55.74,33.73c-.91-.52-1.4-1.69-1.4-3.27-.03-2.66,1.36-5.76,3.33-7.93.33-.35.67-.68,1.02-.98.23-.2.47-.38.71-.55-.5-.01-.98.01-1.47.1-.3.04-.61.1-.91.18-.18.18-.35.37-.52.57-2.1,2.39-3.54,5.74-3.53,8.62,0,.62.08,1.22.23,1.77l-2.14-1.25s.01.06.01.09l10.95,6.37v-.06c-1.67-.98-6.15-3.6-6.27-3.67ZM55.74,33.73c-.91-.52-1.4-1.69-1.4-3.27-.03-2.66,1.36-5.76,3.33-7.93.33-.35.67-.68,1.02-.98.23-.2.47-.38.71-.55-.5-.01-.98.01-1.47.1-.3.04-.61.1-.91.18-.18.18-.35.37-.52.57-2.1,2.39-3.54,5.74-3.53,8.62,0,.62.08,1.22.23,1.77l-2.14-1.25s.01.06.01.09l10.95,6.37v-.06c-1.67-.98-6.15-3.6-6.27-3.67ZM55.74,33.73c-.91-.52-1.4-1.69-1.4-3.27-.03-2.66,1.36-5.76,3.33-7.93l-1.18-.68c-2.1,2.39-3.54,5.74-3.53,8.62,0,.62.08,1.22.23,1.77l-2.14-1.25s.01.06.01.09l10.95,6.37v-.06c-1.67-.98-6.15-3.6-6.27-3.67ZM57.92,21.09c-.3.04-.61.1-.91.18-.18.18-.35.37-.52.57l1.18.68c.33-.35.67-.68,1.02-.98.23-.2.47-.38.71-.55-.5-.01-.98.01-1.47.1ZM55.74,33.73c-.91-.52-1.4-1.69-1.4-3.27-.03-2.66,1.36-5.76,3.33-7.93.33-.35.67-.68,1.02-.98.23-.2.47-.38.71-.55-.5-.01-.98.01-1.47.1-.3.04-.61.1-.91.18-.18.18-.35.37-.52.57-2.1,2.39-3.54,5.74-3.53,8.62,0,.62.08,1.22.23,1.77l-2.14-1.25s.01.06.01.09l10.95,6.37v-.06c-1.67-.98-6.15-3.6-6.27-3.67ZM55.74,33.73c-.91-.52-1.4-1.69-1.4-3.27-.03-2.66,1.36-5.76,3.33-7.93.33-.35.67-.68,1.02-.98.23-.2.47-.38.71-.55-.5-.01-.98.01-1.47.1-.3.04-.61.1-.91.18-.18.18-.35.37-.52.57-2.1,2.39-3.54,5.74-3.53,8.62,0,.62.08,1.22.23,1.77l-2.14-1.25s.01.06.01.09l10.95,6.37v-.06c-1.67-.98-6.15-3.6-6.27-3.67ZM55.74,33.73c-.91-.52-1.4-1.69-1.4-3.27-.03-2.66,1.36-5.76,3.33-7.93.33-.35.67-.68,1.02-.98.23-.2.47-.38.71-.55-.5-.01-.98.01-1.47.1-.3.04-.61.1-.91.18-.18.18-.35.37-.52.57-2.1,2.39-3.54,5.74-3.53,8.62,0,.62.08,1.22.23,1.77l-2.14-1.25s.01.06.01.09l10.95,6.37v-.06c-1.67-.98-6.15-3.6-6.27-3.67ZM75.48,29.29l-1.67-.99c.06.18.13.37.17.57.52.14,1.02.33,1.52.57,0-.04,0-.1-.01-.14Z"/></g></svg>